{"glyphs":{"0":{"ha":566,"x_min":51,"x_max":514,"o":"m 154 772 l 206 772 l 206 720 l 154 720 l 154 772 m 206 772 l 257 772 l 257 720 l 206 720 l 206 772 m 257 772 l 309 772 l 309 720 l 257 720 l 257 772 m 309 772 l 360 772 l 360 720 l 309 720 l 309 772 m 360 772 l 412 772 l 412 720 l 360 720 l 360 772 m 360 720 l 412 720 l 412 669 l 360 669 l 360 720 m 412 720 l 463 720 l 463 669 l 412 669 l 412 720 m 309 720 l 360 720 l 360 669 l 309 669 l 309 720 m 257 720 l 309 720 l 309 669 l 257 669 l 257 720 m 206 720 l 257 720 l 257 669 l 206 669 l 206 720 m 154 720 l 206 720 l 206 669 l 154 669 l 154 720 m 103 669 l 154 669 l 154 617 l 103 617 l 103 669 m 103 720 l 154 720 l 154 669 l 103 669 l 103 720 m 51 669 l 103 669 l 103 617 l 51 617 l 51 669 m 154 669 l 206 669 l 206 617 l 154 617 l 154 669 m 206 669 l 257 669 l 257 617 l 206 617 l 206 669 m 257 669 l 309 669 l 309 617 l 257 617 l 257 669 m 309 669 l 360 669 l 360 617 l 309 617 l 309 669 m 360 669 l 412 669 l 412 617 l 360 617 l 360 669 m 412 669 l 463 669 l 463 617 l 412 617 l 412 669 m 463 669 l 514 669 l 514 617 l 463 617 l 463 669 m 463 617 l 514 617 l 514 566 l 463 566 l 463 617 m 412 617 l 463 617 l 463 566 l 412 566 l 412 617 m 360 617 l 412 617 l 412 566 l 360 566 l 360 617 m 309 617 l 360 617 l 360 566 l 309 566 l 309 617 m 360 566 l 412 566 l 412 514 l 360 514 l 360 566 m 360 514 l 412 514 l 412 463 l 360 463 l 360 514 m 360 463 l 412 463 l 412 412 l 360 412 l 360 463 m 360 412 l 412 412 l 412 360 l 360 360 l 360 412 m 360 360 l 412 360 l 412 309 l 360 309 l 360 360 m 412 412 l 463 412 l 463 360 l 412 360 l 412 412 m 463 412 l 514 412 l 514 360 l 463 360 l 463 412 m 463 463 l 514 463 l 514 412 l 463 412 l 463 463 m 463 514 l 514 514 l 514 463 l 463 463 l 463 514 m 463 566 l 514 566 l 514 514 l 463 514 l 463 566 m 412 566 l 463 566 l 463 514 l 412 514 l 412 566 m 412 514 l 463 514 l 463 463 l 412 463 l 412 514 m 412 463 l 463 463 l 463 412 l 412 412 l 412 463 m 412 360 l 463 360 l 463 309 l 412 309 l 412 360 m 412 309 l 463 309 l 463 257 l 412 257 l 412 309 m 463 309 l 514 309 l 514 257 l 463 257 l 463 309 m 463 360 l 514 360 l 514 309 l 463 309 l 463 360 m 463 257 l 514 257 l 514 206 l 463 206 l 463 257 m 463 206 l 514 206 l 514 154 l 463 154 l 463 206 m 463 154 l 514 154 l 514 103 l 463 103 l 463 154 m 412 154 l 463 154 l 463 103 l 412 103 l 412 154 m 412 206 l 463 206 l 463 154 l 412 154 l 412 206 m 412 257 l 463 257 l 463 206 l 412 206 l 412 257 m 360 309 l 412 309 l 412 257 l 360 257 l 360 309 m 360 257 l 412 257 l 412 206 l 360 206 l 360 257 m 360 206 l 412 206 l 412 154 l 360 154 l 360 206 m 309 206 l 360 206 l 360 154 l 309 154 l 309 206 m 360 154 l 412 154 l 412 103 l 360 103 l 360 154 m 412 103 l 463 103 l 463 51 l 412 51 l 412 103 m 360 103 l 412 103 l 412 51 l 360 51 l 360 103 m 309 154 l 360 154 l 360 103 l 309 103 l 309 154 m 309 103 l 360 103 l 360 51 l 309 51 l 309 103 m 360 51 l 412 51 l 412 0 l 360 0 l 360 51 m 309 51 l 360 51 l 360 0 l 309 0 l 309 51 m 257 51 l 309 51 l 309 0 l 257 0 l 257 51 m 206 51 l 257 51 l 257 0 l 206 0 l 206 51 m 154 51 l 206 51 l 206 0 l 154 0 l 154 51 m 154 103 l 206 103 l 206 51 l 154 51 l 154 103 m 206 103 l 257 103 l 257 51 l 206 51 l 206 103 m 206 154 l 257 154 l 257 103 l 206 103 l 206 154 m 257 154 l 309 154 l 309 103 l 257 103 l 257 154 m 257 103 l 309 103 l 309 51 l 257 51 l 257 103 m 103 103 l 154 103 l 154 51 l 103 51 l 103 103 m 154 154 l 206 154 l 206 103 l 154 103 l 154 154 m 206 206 l 257 206 l 257 154 l 206 154 l 206 206 m 154 206 l 206 206 l 206 154 l 154 154 l 154 206 m 103 206 l 154 206 l 154 154 l 103 154 l 103 206 m 103 154 l 154 154 l 154 103 l 103 103 l 103 154 m 51 154 l 103 154 l 103 103 l 51 103 l 51 154 m 51 206 l 103 206 l 103 154 l 51 154 l 51 206 m 51 257 l 103 257 l 103 206 l 51 206 l 51 257 m 51 309 l 103 309 l 103 257 l 51 257 l 51 309 m 51 360 l 103 360 l 103 309 l 51 309 l 51 360 m 51 412 l 103 412 l 103 360 l 51 360 l 51 412 m 51 463 l 103 463 l 103 412 l 51 412 l 51 463 m 51 514 l 103 514 l 103 463 l 51 463 l 51 514 m 51 566 l 103 566 l 103 514 l 51 514 l 51 566 m 51 617 l 103 617 l 103 566 l 51 566 l 51 617 m 103 617 l 154 617 l 154 566 l 103 566 l 103 617 m 154 617 l 206 617 l 206 566 l 154 566 l 154 617 m 206 617 l 257 617 l 257 566 l 206 566 l 206 617 m 154 566 l 206 566 l 206 514 l 154 514 l 154 566 m 154 514 l 206 514 l 206 463 l 154 463 l 154 514 m 154 463 l 206 463 l 206 412 l 154 412 l 154 463 m 154 412 l 206 412 l 206 360 l 154 360 l 154 412 m 154 360 l 206 360 l 206 309 l 154 309 l 154 360 m 154 309 l 206 309 l 206 257 l 154 257 l 154 309 m 154 257 l 206 257 l 206 206 l 154 206 l 154 257 m 103 257 l 154 257 l 154 206 l 103 206 l 103 257 m 103 309 l 154 309 l 154 257 l 103 257 l 103 309 m 103 360 l 154 360 l 154 309 l 103 309 l 103 360 m 103 412 l 154 412 l 154 360 l 103 360 l 103 412 m 103 463 l 154 463 l 154 412 l 103 412 l 103 463 m 103 514 l 154 514 l 154 463 l 103 463 l 103 514 m 103 566 l 154 566 l 154 514 l 103 514 l 103 566 z "},"1":{"ha":360,"x_min":51,"x_max":309,"o":"m 206 51 l 257 51 l 257 0 l 206 0 l 206 51 m 257 51 l 309 51 l 309 0 l 257 0 l 257 51 m 154 51 l 206 51 l 206 0 l 154 0 l 154 51 m 154 103 l 206 103 l 206 51 l 154 51 l 154 103 m 154 154 l 206 154 l 206 103 l 154 103 l 154 154 m 154 206 l 206 206 l 206 154 l 154 154 l 154 206 m 154 257 l 206 257 l 206 206 l 154 206 l 154 257 m 154 309 l 206 309 l 206 257 l 154 257 l 154 309 m 206 360 l 257 360 l 257 309 l 206 309 l 206 360 m 206 412 l 257 412 l 257 360 l 206 360 l 206 412 m 206 463 l 257 463 l 257 412 l 206 412 l 206 463 m 206 514 l 257 514 l 257 463 l 206 463 l 206 514 m 206 566 l 257 566 l 257 514 l 206 514 l 206 566 m 206 617 l 257 617 l 257 566 l 206 566 l 206 617 m 206 669 l 257 669 l 257 617 l 206 617 l 206 669 m 206 720 l 257 720 l 257 669 l 206 669 l 206 720 m 154 720 l 206 720 l 206 669 l 154 669 l 154 720 m 154 772 l 206 772 l 206 720 l 154 720 l 154 772 m 154 669 l 206 669 l 206 617 l 154 617 l 154 669 m 154 617 l 206 617 l 206 566 l 154 566 l 154 617 m 154 566 l 206 566 l 206 514 l 154 514 l 154 566 m 154 514 l 206 514 l 206 463 l 154 463 l 154 514 m 154 463 l 206 463 l 206 412 l 154 412 l 154 463 m 154 412 l 206 412 l 206 360 l 154 360 l 154 412 m 154 360 l 206 360 l 206 309 l 154 309 l 154 360 m 206 772 l 257 772 l 257 720 l 206 720 l 206 772 m 257 772 l 309 772 l 309 720 l 257 720 l 257 772 m 257 720 l 309 720 l 309 669 l 257 669 l 257 720 m 257 669 l 309 669 l 309 617 l 257 617 l 257 669 m 257 617 l 309 617 l 309 566 l 257 566 l 257 617 m 257 566 l 309 566 l 309 514 l 257 514 l 257 566 m 257 514 l 309 514 l 309 463 l 257 463 l 257 514 m 257 463 l 309 463 l 309 412 l 257 412 l 257 463 m 257 412 l 309 412 l 309 360 l 257 360 l 257 412 m 257 360 l 309 360 l 309 309 l 257 309 l 257 360 m 257 309 l 309 309 l 309 257 l 257 257 l 257 309 m 257 257 l 309 257 l 309 206 l 257 206 l 257 257 m 257 206 l 309 206 l 309 154 l 257 154 l 257 206 m 257 154 l 309 154 l 309 103 l 257 103 l 257 154 m 257 103 l 309 103 l 309 51 l 257 51 l 257 103 m 206 103 l 257 103 l 257 51 l 206 51 l 206 103 m 206 154 l 257 154 l 257 103 l 206 103 l 206 154 m 206 206 l 257 206 l 257 154 l 206 154 l 206 206 m 206 257 l 257 257 l 257 206 l 206 206 l 206 257 m 206 309 l 257 309 l 257 257 l 206 257 l 206 309 m 103 772 l 154 772 l 154 720 l 103 720 l 103 772 m 51 772 l 103 772 l 103 720 l 51 720 l 51 772 m 51 720 l 103 720 l 103 669 l 51 669 l 51 720 m 51 669 l 103 669 l 103 617 l 51 617 l 51 669 m 103 669 l 154 669 l 154 617 l 103 617 l 103 669 m 103 720 l 154 720 l 154 669 l 103 669 l 103 720 z "},"2":{"ha":617,"x_min":51,"x_max":566,"o":"m 51 566 l 103 566 l 103 514 l 51 514 l 51 566 m 51 617 l 103 617 l 103 566 l 51 566 l 51 617 m 51 669 l 103 669 l 103 617 l 51 617 l 51 669 m 103 669 l 154 669 l 154 617 l 103 617 l 103 669 m 103 617 l 154 617 l 154 566 l 103 566 l 103 617 m 154 617 l 206 617 l 206 566 l 154 566 l 154 617 m 154 566 l 206 566 l 206 514 l 154 514 l 154 566 m 103 566 l 154 566 l 154 514 l 103 514 l 103 566 m 154 669 l 206 669 l 206 617 l 154 617 l 154 669 m 206 617 l 257 617 l 257 566 l 206 566 l 206 617 m 154 720 l 206 720 l 206 669 l 154 669 l 154 720 m 103 720 l 154 720 l 154 669 l 103 669 l 103 720 m 154 772 l 206 772 l 206 720 l 154 720 l 154 772 m 206 772 l 257 772 l 257 720 l 206 720 l 206 772 m 257 772 l 309 772 l 309 720 l 257 720 l 257 772 m 309 772 l 360 772 l 360 720 l 309 720 l 309 772 m 360 772 l 412 772 l 412 720 l 360 720 l 360 772 m 412 772 l 463 772 l 463 720 l 412 720 l 412 772 m 412 720 l 463 720 l 463 669 l 412 669 l 412 720 m 463 720 l 514 720 l 514 669 l 463 669 l 463 720 m 360 720 l 412 720 l 412 669 l 360 669 l 360 720 m 309 720 l 360 720 l 360 669 l 309 669 l 309 720 m 257 720 l 309 720 l 309 669 l 257 669 l 257 720 m 206 720 l 257 720 l 257 669 l 206 669 l 206 720 m 206 669 l 257 669 l 257 617 l 206 617 l 206 669 m 257 669 l 309 669 l 309 617 l 257 617 l 257 669 m 309 669 l 360 669 l 360 617 l 309 617 l 309 669 m 360 669 l 412 669 l 412 617 l 360 617 l 360 669 m 412 669 l 463 669 l 463 617 l 412 617 l 412 669 m 463 669 l 514 669 l 514 617 l 463 617 l 463 669 m 463 617 l 514 617 l 514 566 l 463 566 l 463 617 m 514 617 l 566 617 l 566 566 l 514 566 l 514 617 m 514 669 l 566 669 l 566 617 l 514 617 l 514 669 m 412 617 l 463 617 l 463 566 l 412 566 l 412 617 m 360 617 l 412 617 l 412 566 l 360 566 l 360 617 m 463 566 l 514 566 l 514 514 l 463 514 l 463 566 m 412 566 l 463 566 l 463 514 l 412 514 l 412 566 m 412 514 l 463 514 l 463 463 l 412 463 l 412 514 m 412 463 l 463 463 l 463 412 l 412 412 l 412 463 m 463 463 l 514 463 l 514 412 l 463 412 l 463 463 m 463 514 l 514 514 l 514 463 l 463 463 l 463 514 m 514 514 l 566 514 l 566 463 l 514 463 l 514 514 m 514 566 l 566 566 l 566 514 l 514 514 l 514 566 m 514 463 l 566 463 l 566 412 l 514 412 l 514 463 m 360 463 l 412 463 l 412 412 l 360 412 l 360 463 m 412 412 l 463 412 l 463 360 l 412 360 l 412 412 m 463 412 l 514 412 l 514 360 l 463 360 l 463 412 m 360 412 l 412 412 l 412 360 l 360 360 l 360 412 m 309 412 l 360 412 l 360 360 l 309 360 l 309 412 m 360 360 l 412 360 l 412 309 l 360 309 l 360 360 m 412 360 l 463 360 l 463 309 l 412 309 l 412 360 m 360 309 l 412 309 l 412 257 l 360 257 l 360 309 m 309 309 l 360 309 l 360 257 l 309 257 l 309 309 m 257 309 l 309 309 l 309 257 l 257 257 l 257 309 m 257 257 l 309 257 l 309 206 l 257 206 l 257 257 m 309 257 l 360 257 l 360 206 l 309 206 l 309 257 m 309 360 l 360 360 l 360 309 l 309 309 l 309 360 m 257 360 l 309 360 l 309 309 l 257 309 l 257 360 m 206 309 l 257 309 l 257 257 l 206 257 l 206 309 m 206 257 l 257 257 l 257 206 l 206 206 l 206 257 m 154 257 l 206 257 l 206 206 l 154 206 l 154 257 m 154 206 l 206 206 l 206 154 l 154 154 l 154 206 m 206 206 l 257 206 l 257 154 l 206 154 l 206 206 m 257 206 l 309 206 l 309 154 l 257 154 l 257 206 m 103 206 l 154 206 l 154 154 l 103 154 l 103 206 m 103 154 l 154 154 l 154 103 l 103 103 l 103 154 m 51 154 l 103 154 l 103 103 l 51 103 l 51 154 m 51 103 l 103 103 l 103 51 l 51 51 l 51 103 m 103 103 l 154 103 l 154 51 l 103 51 l 103 103 m 103 51 l 154 51 l 154 0 l 103 0 l 103 51 m 154 51 l 206 51 l 206 0 l 154 0 l 154 51 m 206 51 l 257 51 l 257 0 l 206 0 l 206 51 m 257 51 l 309 51 l 309 0 l 257 0 l 257 51 m 51 51 l 103 51 l 103 0 l 51 0 l 51 51 m 514 154 l 566 154 l 566 103 l 514 103 l 514 154 m 463 154 l 514 154 l 514 103 l 463 103 l 463 154 m 412 154 l 463 154 l 463 103 l 412 103 l 412 154 m 360 154 l 412 154 l 412 103 l 360 103 l 360 154 m 257 154 l 309 154 l 309 103 l 257 103 l 257 154 m 206 154 l 257 154 l 257 103 l 206 103 l 206 154 m 154 154 l 206 154 l 206 103 l 154 103 l 154 154 m 154 103 l 206 103 l 206 51 l 154 51 l 154 103 m 206 103 l 257 103 l 257 51 l 206 51 l 206 103 m 257 103 l 309 103 l 309 51 l 257 51 l 257 103 m 309 103 l 360 103 l 360 51 l 309 51 l 309 103 m 360 103 l 412 103 l 412 51 l 360 51 l 360 103 m 309 154 l 360 154 l 360 103 l 309 103 l 309 154 m 514 103 l 566 103 l 566 51 l 514 51 l 514 103 m 463 103 l 514 103 l 514 51 l 463 51 l 463 103 m 412 103 l 463 103 l 463 51 l 412 51 l 412 103 m 309 51 l 360 51 l 360 0 l 309 0 l 309 51 m 360 51 l 412 51 l 412 0 l 360 0 l 360 51 m 412 51 l 463 51 l 463 0 l 412 0 l 412 51 m 463 51 l 514 51 l 514 0 l 463 0 l 463 51 m 514 51 l 566 51 l 566 0 l 514 0 l 514 51 z "},"3":{"ha":617,"x_min":51,"x_max":566,"o":"m 51 669 l 103 669 l 103 617 l 51 617 l 51 669 m 51 617 l 103 617 l 103 566 l 51 566 l 51 617 m 51 566 l 103 566 l 103 514 l 51 514 l 51 566 m 103 566 l 154 566 l 154 514 l 103 514 l 103 566 m 154 566 l 206 566 l 206 514 l 154 514 l 154 566 m 154 617 l 206 617 l 206 566 l 154 566 l 154 617 m 154 669 l 206 669 l 206 617 l 154 617 l 154 669 m 103 669 l 154 669 l 154 617 l 103 617 l 103 669 m 103 617 l 154 617 l 154 566 l 103 566 l 103 617 m 103 720 l 154 720 l 154 669 l 103 669 l 103 720 m 154 720 l 206 720 l 206 669 l 154 669 l 154 720 m 206 669 l 257 669 l 257 617 l 206 617 l 206 669 m 206 617 l 257 617 l 257 566 l 206 566 l 206 617 m 206 720 l 257 720 l 257 669 l 206 669 l 206 720 m 206 772 l 257 772 l 257 720 l 206 720 l 206 772 m 154 772 l 206 772 l 206 720 l 154 720 l 154 772 m 257 772 l 309 772 l 309 720 l 257 720 l 257 772 m 309 772 l 360 772 l 360 720 l 309 720 l 309 772 m 360 772 l 412 772 l 412 720 l 360 720 l 360 772 m 412 772 l 463 772 l 463 720 l 412 720 l 412 772 m 412 720 l 463 720 l 463 669 l 412 669 l 412 720 m 463 720 l 514 720 l 514 669 l 463 669 l 463 720 m 463 669 l 514 669 l 514 617 l 463 617 l 463 669 m 514 669 l 566 669 l 566 617 l 514 617 l 514 669 m 514 617 l 566 617 l 566 566 l 514 566 l 514 617 m 514 566 l 566 566 l 566 514 l 514 514 l 514 566 m 514 514 l 566 514 l 566 463 l 514 463 l 514 514 m 463 514 l 514 514 l 514 463 l 463 463 l 463 514 m 412 514 l 463 514 l 463 463 l 412 463 l 412 514 m 412 566 l 463 566 l 463 514 l 412 514 l 412 566 m 463 566 l 514 566 l 514 514 l 463 514 l 463 566 m 463 617 l 514 617 l 514 566 l 463 566 l 463 617 m 412 617 l 463 617 l 463 566 l 412 566 l 412 617 m 360 617 l 412 617 l 412 566 l 360 566 l 360 617 m 412 669 l 463 669 l 463 617 l 412 617 l 412 669 m 360 669 l 412 669 l 412 617 l 360 617 l 360 669 m 309 669 l 360 669 l 360 617 l 309 617 l 309 669 m 257 669 l 309 669 l 309 617 l 257 617 l 257 669 m 257 720 l 309 720 l 309 669 l 257 669 l 257 720 m 309 720 l 360 720 l 360 669 l 309 669 l 309 720 m 360 720 l 412 720 l 412 669 l 360 669 l 360 720 m 360 514 l 412 514 l 412 463 l 360 463 l 360 514 m 360 463 l 412 463 l 412 412 l 360 412 l 360 463 m 309 463 l 360 463 l 360 412 l 309 412 l 309 463 m 257 463 l 309 463 l 309 412 l 257 412 l 257 463 m 206 463 l 257 463 l 257 412 l 206 412 l 206 463 m 206 412 l 257 412 l 257 360 l 206 360 l 206 412 m 257 412 l 309 412 l 309 360 l 257 360 l 257 412 m 309 412 l 360 412 l 360 360 l 309 360 l 309 412 m 360 412 l 412 412 l 412 360 l 360 360 l 360 412 m 412 412 l 463 412 l 463 360 l 412 360 l 412 412 m 412 463 l 463 463 l 463 412 l 412 412 l 412 463 m 463 463 l 514 463 l 514 412 l 463 412 l 463 463 m 463 412 l 514 412 l 514 360 l 463 360 l 463 412 m 412 360 l 463 360 l 463 309 l 412 309 l 412 360 m 360 360 l 412 360 l 412 309 l 360 309 l 360 360 m 463 360 l 514 360 l 514 309 l 463 309 l 463 360 m 463 309 l 514 309 l 514 257 l 463 257 l 463 309 m 514 309 l 566 309 l 566 257 l 514 257 l 514 309 m 514 360 l 566 360 l 566 309 l 514 309 l 514 360 m 514 257 l 566 257 l 566 206 l 514 206 l 514 257 m 514 206 l 566 206 l 566 154 l 514 154 l 514 206 m 514 154 l 566 154 l 566 103 l 514 103 l 514 154 m 463 154 l 514 154 l 514 103 l 463 103 l 463 154 m 463 206 l 514 206 l 514 154 l 463 154 l 463 206 m 463 257 l 514 257 l 514 206 l 463 206 l 463 257 m 412 309 l 463 309 l 463 257 l 412 257 l 412 309 m 412 257 l 463 257 l 463 206 l 412 206 l 412 257 m 412 206 l 463 206 l 463 154 l 412 154 l 412 206 m 412 154 l 463 154 l 463 103 l 412 103 l 412 154 m 360 154 l 412 154 l 412 103 l 360 103 l 360 154 m 360 206 l 412 206 l 412 154 l 360 154 l 360 206 m 412 103 l 463 103 l 463 51 l 412 51 l 412 103 m 463 103 l 514 103 l 514 51 l 463 51 l 463 103 m 412 51 l 463 51 l 463 0 l 412 0 l 412 51 m 360 51 l 412 51 l 412 0 l 360 0 l 360 51 m 309 51 l 360 51 l 360 0 l 309 0 l 309 51 m 257 51 l 309 51 l 309 0 l 257 0 l 257 51 m 206 51 l 257 51 l 257 0 l 206 0 l 206 51 m 154 51 l 206 51 l 206 0 l 154 0 l 154 51 m 154 103 l 206 103 l 206 51 l 154 51 l 154 103 m 103 103 l 154 103 l 154 51 l 103 51 l 103 103 m 103 154 l 154 154 l 154 103 l 103 103 l 103 154 m 51 154 l 103 154 l 103 103 l 51 103 l 51 154 m 51 206 l 103 206 l 103 154 l 51 154 l 51 206 m 51 257 l 103 257 l 103 206 l 51 206 l 51 257 m 103 257 l 154 257 l 154 206 l 103 206 l 103 257 m 154 257 l 206 257 l 206 206 l 154 206 l 154 257 m 154 206 l 206 206 l 206 154 l 154 154 l 154 206 m 103 206 l 154 206 l 154 154 l 103 154 l 103 206 m 206 154 l 257 154 l 257 103 l 206 103 l 206 154 m 206 206 l 257 206 l 257 154 l 206 154 l 206 206 m 154 154 l 206 154 l 206 103 l 154 103 l 154 154 m 257 154 l 309 154 l 309 103 l 257 103 l 257 154 m 309 154 l 360 154 l 360 103 l 309 103 l 309 154 m 360 103 l 412 103 l 412 51 l 360 51 l 360 103 m 309 103 l 360 103 l 360 51 l 309 51 l 309 103 m 257 103 l 309 103 l 309 51 l 257 51 l 257 103 m 206 103 l 257 103 l 257 51 l 206 51 l 206 103 z "},"4":{"ha":566,"x_min":51,"x_max":514,"o":"m 412 772 l 463 772 l 463 720 l 412 720 l 412 772 m 360 772 l 412 772 l 412 720 l 360 720 l 360 772 m 360 720 l 412 720 l 412 669 l 360 669 l 360 720 m 412 720 l 463 720 l 463 669 l 412 669 l 412 720 m 463 720 l 514 720 l 514 669 l 463 669 l 463 720 m 463 669 l 514 669 l 514 617 l 463 617 l 463 669 m 463 617 l 514 617 l 514 566 l 463 566 l 463 617 m 463 566 l 514 566 l 514 514 l 463 514 l 463 566 m 463 772 l 514 772 l 514 720 l 463 720 l 463 772 m 309 720 l 360 720 l 360 669 l 309 669 l 309 720 m 309 669 l 360 669 l 360 617 l 309 617 l 309 669 m 309 617 l 360 617 l 360 566 l 309 566 l 309 617 m 257 669 l 309 669 l 309 617 l 257 617 l 257 669 m 257 617 l 309 617 l 309 566 l 257 566 l 257 617 m 206 617 l 257 617 l 257 566 l 206 566 l 206 617 m 360 617 l 412 617 l 412 566 l 360 566 l 360 617 m 412 617 l 463 617 l 463 566 l 412 566 l 412 617 m 412 669 l 463 669 l 463 617 l 412 617 l 412 669 m 360 669 l 412 669 l 412 617 l 360 617 l 360 669 m 309 566 l 360 566 l 360 514 l 309 514 l 309 566 m 257 566 l 309 566 l 309 514 l 257 514 l 257 566 m 206 566 l 257 566 l 257 514 l 206 514 l 206 566 m 154 566 l 206 566 l 206 514 l 154 514 l 154 566 m 360 566 l 412 566 l 412 514 l 360 514 l 360 566 m 412 566 l 463 566 l 463 514 l 412 514 l 412 566 m 463 514 l 514 514 l 514 463 l 463 463 l 463 514 m 463 463 l 514 463 l 514 412 l 463 412 l 463 463 m 463 412 l 514 412 l 514 360 l 463 360 l 463 412 m 412 412 l 463 412 l 463 360 l 412 360 l 412 412 m 412 360 l 463 360 l 463 309 l 412 309 l 412 360 m 412 463 l 463 463 l 463 412 l 412 412 l 412 463 m 360 463 l 412 463 l 412 412 l 360 412 l 360 463 m 360 514 l 412 514 l 412 463 l 360 463 l 360 514 m 360 412 l 412 412 l 412 360 l 360 360 l 360 412 m 360 360 l 412 360 l 412 309 l 360 309 l 360 360 m 412 309 l 463 309 l 463 257 l 412 257 l 412 309 m 463 360 l 514 360 l 514 309 l 463 309 l 463 360 m 412 514 l 463 514 l 463 463 l 412 463 l 412 514 m 463 309 l 514 309 l 514 257 l 463 257 l 463 309 m 463 257 l 514 257 l 514 206 l 463 206 l 463 257 m 463 206 l 514 206 l 514 154 l 463 154 l 463 206 m 463 154 l 514 154 l 514 103 l 463 103 l 463 154 m 463 103 l 514 103 l 514 51 l 463 51 l 463 103 m 412 103 l 463 103 l 463 51 l 412 51 l 412 103 m 360 103 l 412 103 l 412 51 l 360 51 l 360 103 m 360 51 l 412 51 l 412 0 l 360 0 l 360 51 m 412 51 l 463 51 l 463 0 l 412 0 l 412 51 m 463 51 l 514 51 l 514 0 l 463 0 l 463 51 m 412 154 l 463 154 l 463 103 l 412 103 l 412 154 m 360 154 l 412 154 l 412 103 l 360 103 l 360 154 m 360 206 l 412 206 l 412 154 l 360 154 l 360 206 m 412 206 l 463 206 l 463 154 l 412 154 l 412 206 m 412 257 l 463 257 l 463 206 l 412 206 l 412 257 m 360 309 l 412 309 l 412 257 l 360 257 l 360 309 m 360 257 l 412 257 l 412 206 l 360 206 l 360 257 m 309 257 l 360 257 l 360 206 l 309 206 l 309 257 m 257 257 l 309 257 l 309 206 l 257 206 l 257 257 m 206 257 l 257 257 l 257 206 l 206 206 l 206 257 m 154 257 l 206 257 l 206 206 l 154 206 l 154 257 m 103 257 l 154 257 l 154 206 l 103 206 l 103 257 m 103 206 l 154 206 l 154 154 l 103 154 l 103 206 m 51 206 l 103 206 l 103 154 l 51 154 l 51 206 m 154 206 l 206 206 l 206 154 l 154 154 l 154 206 m 206 206 l 257 206 l 257 154 l 206 154 l 206 206 m 257 206 l 309 206 l 309 154 l 257 154 l 257 206 m 309 206 l 360 206 l 360 154 l 309 154 l 309 206 m 257 309 l 309 309 l 309 257 l 257 257 l 257 309 m 206 309 l 257 309 l 257 257 l 206 257 l 206 309 m 154 309 l 206 309 l 206 257 l 154 257 l 154 309 m 309 309 l 360 309 l 360 257 l 309 257 l 309 309 m 51 257 l 103 257 l 103 206 l 51 206 l 51 257 m 51 309 l 103 309 l 103 257 l 51 257 l 51 309 m 51 360 l 103 360 l 103 309 l 51 309 l 51 360 m 51 412 l 103 412 l 103 360 l 51 360 l 51 412 m 103 412 l 154 412 l 154 360 l 103 360 l 103 412 m 103 360 l 154 360 l 154 309 l 103 309 l 103 360 m 103 309 l 154 309 l 154 257 l 103 257 l 103 309 m 154 360 l 206 360 l 206 309 l 154 309 l 154 360 m 154 412 l 206 412 l 206 360 l 154 360 l 154 412 m 51 463 l 103 463 l 103 412 l 51 412 l 51 463 m 103 463 l 154 463 l 154 412 l 103 412 l 103 463 m 154 463 l 206 463 l 206 412 l 154 412 l 154 463 m 206 463 l 257 463 l 257 412 l 206 412 l 206 463 m 206 514 l 257 514 l 257 463 l 206 463 l 206 514 m 257 514 l 309 514 l 309 463 l 257 463 l 257 514 m 154 514 l 206 514 l 206 463 l 154 463 l 154 514 m 103 514 l 154 514 l 154 463 l 103 463 l 103 514 z "},"5":{"ha":566,"x_min":51,"x_max":514,"o":"m 463 772 l 514 772 l 514 720 l 463 720 l 463 772 m 463 720 l 514 720 l 514 669 l 463 669 l 463 720 m 463 669 l 514 669 l 514 617 l 463 617 l 463 669 m 412 669 l 463 669 l 463 617 l 412 617 l 412 669 m 360 669 l 412 669 l 412 617 l 360 617 l 360 669 m 309 669 l 360 669 l 360 617 l 309 617 l 309 669 m 257 669 l 309 669 l 309 617 l 257 617 l 257 669 m 206 669 l 257 669 l 257 617 l 206 617 l 206 669 m 154 669 l 206 669 l 206 617 l 154 617 l 154 669 m 154 720 l 206 720 l 206 669 l 154 669 l 154 720 m 154 772 l 206 772 l 206 720 l 154 720 l 154 772 m 206 772 l 257 772 l 257 720 l 206 720 l 206 772 m 257 772 l 309 772 l 309 720 l 257 720 l 257 772 m 309 772 l 360 772 l 360 720 l 309 720 l 309 772 m 360 772 l 412 772 l 412 720 l 360 720 l 360 772 m 412 772 l 463 772 l 463 720 l 412 720 l 412 772 m 412 720 l 463 720 l 463 669 l 412 669 l 412 720 m 360 720 l 412 720 l 412 669 l 360 669 l 360 720 m 309 720 l 360 720 l 360 669 l 309 669 l 309 720 m 257 720 l 309 720 l 309 669 l 257 669 l 257 720 m 206 720 l 257 720 l 257 669 l 206 669 l 206 720 m 103 720 l 154 720 l 154 669 l 103 669 l 103 720 m 103 772 l 154 772 l 154 720 l 103 720 l 103 772 m 51 772 l 103 772 l 103 720 l 51 720 l 51 772 m 51 720 l 103 720 l 103 669 l 51 669 l 51 720 m 51 669 l 103 669 l 103 617 l 51 617 l 51 669 m 51 617 l 103 617 l 103 566 l 51 566 l 51 617 m 103 617 l 154 617 l 154 566 l 103 566 l 103 617 m 103 566 l 154 566 l 154 514 l 103 514 l 103 566 m 103 514 l 154 514 l 154 463 l 103 463 l 103 514 m 154 514 l 206 514 l 206 463 l 154 463 l 154 514 m 154 566 l 206 566 l 206 514 l 154 514 l 154 566 m 154 617 l 206 617 l 206 566 l 154 566 l 154 617 m 103 669 l 154 669 l 154 617 l 103 617 l 103 669 m 51 566 l 103 566 l 103 514 l 51 514 l 51 566 m 51 514 l 103 514 l 103 463 l 51 463 l 51 514 m 51 463 l 103 463 l 103 412 l 51 412 l 51 463 m 51 412 l 103 412 l 103 360 l 51 360 l 51 412 m 103 412 l 154 412 l 154 360 l 103 360 l 103 412 m 154 412 l 206 412 l 206 360 l 154 360 l 154 412 m 154 463 l 206 463 l 206 412 l 154 412 l 154 463 m 103 463 l 154 463 l 154 412 l 103 412 l 103 463 m 206 463 l 257 463 l 257 412 l 206 412 l 206 463 m 257 463 l 309 463 l 309 412 l 257 412 l 257 463 m 309 463 l 360 463 l 360 412 l 309 412 l 309 463 m 360 463 l 412 463 l 412 412 l 360 412 l 360 463 m 360 514 l 412 514 l 412 463 l 360 463 l 360 514 m 309 514 l 360 514 l 360 463 l 309 463 l 309 514 m 257 514 l 309 514 l 309 463 l 257 463 l 257 514 m 206 514 l 257 514 l 257 463 l 206 463 l 206 514 m 206 412 l 257 412 l 257 360 l 206 360 l 206 412 m 257 412 l 309 412 l 309 360 l 257 360 l 257 412 m 309 412 l 360 412 l 360 360 l 309 360 l 309 412 m 360 412 l 412 412 l 412 360 l 360 360 l 360 412 m 412 463 l 463 463 l 463 412 l 412 412 l 412 463 m 412 412 l 463 412 l 463 360 l 412 360 l 412 412 m 360 360 l 412 360 l 412 309 l 360 309 l 360 360 m 309 360 l 360 360 l 360 309 l 309 309 l 309 360 m 412 360 l 463 360 l 463 309 l 412 309 l 412 360 m 463 360 l 514 360 l 514 309 l 463 309 l 463 360 m 463 412 l 514 412 l 514 360 l 463 360 l 463 412 m 463 309 l 514 309 l 514 257 l 463 257 l 463 309 m 463 257 l 514 257 l 514 206 l 463 206 l 463 257 m 463 206 l 514 206 l 514 154 l 463 154 l 463 206 m 463 154 l 514 154 l 514 103 l 463 103 l 463 154 m 412 154 l 463 154 l 463 103 l 412 103 l 412 154 m 412 206 l 463 206 l 463 154 l 412 154 l 412 206 m 412 257 l 463 257 l 463 206 l 412 206 l 412 257 m 412 309 l 463 309 l 463 257 l 412 257 l 412 309 m 360 309 l 412 309 l 412 257 l 360 257 l 360 309 m 360 257 l 412 257 l 412 206 l 360 206 l 360 257 m 360 206 l 412 206 l 412 154 l 360 154 l 360 206 m 360 154 l 412 154 l 412 103 l 360 103 l 360 154 m 412 103 l 463 103 l 463 51 l 412 51 l 412 103 m 360 103 l 412 103 l 412 51 l 360 51 l 360 103 m 309 206 l 360 206 l 360 154 l 309 154 l 309 206 m 309 154 l 360 154 l 360 103 l 309 103 l 309 154 m 309 103 l 360 103 l 360 51 l 309 51 l 309 103 m 309 51 l 360 51 l 360 0 l 309 0 l 309 51 m 360 51 l 412 51 l 412 0 l 360 0 l 360 51 m 257 51 l 309 51 l 309 0 l 257 0 l 257 51 m 206 51 l 257 51 l 257 0 l 206 0 l 206 51 m 206 103 l 257 103 l 257 51 l 206 51 l 206 103 m 154 103 l 206 103 l 206 51 l 154 51 l 154 103 m 154 51 l 206 51 l 206 0 l 154 0 l 154 51 m 103 103 l 154 103 l 154 51 l 103 51 l 103 103 m 103 154 l 154 154 l 154 103 l 103 103 l 103 154 m 51 154 l 103 154 l 103 103 l 51 103 l 51 154 m 51 206 l 103 206 l 103 154 l 51 154 l 51 206 m 51 257 l 103 257 l 103 206 l 51 206 l 51 257 m 103 257 l 154 257 l 154 206 l 103 206 l 103 257 m 154 257 l 206 257 l 206 206 l 154 206 l 154 257 m 154 206 l 206 206 l 206 154 l 154 154 l 154 206 m 103 206 l 154 206 l 154 154 l 103 154 l 103 206 m 154 154 l 206 154 l 206 103 l 154 103 l 154 154 m 206 154 l 257 154 l 257 103 l 206 103 l 206 154 m 206 206 l 257 206 l 257 154 l 206 154 l 206 206 m 257 154 l 309 154 l 309 103 l 257 103 l 257 154 m 257 103 l 309 103 l 309 51 l 257 51 l 257 103 z "},"6":{"ha":617,"x_min":51,"x_max":566,"o":"m 514 566 l 566 566 l 566 514 l 514 514 l 514 566 m 463 566 l 514 566 l 514 514 l 463 514 l 463 566 m 412 566 l 463 566 l 463 514 l 412 514 l 412 566 m 412 617 l 463 617 l 463 566 l 412 566 l 412 617 m 360 617 l 412 617 l 412 566 l 360 566 l 360 617 m 463 617 l 514 617 l 514 566 l 463 566 l 463 617 m 514 617 l 566 617 l 566 566 l 514 566 l 514 617 m 514 669 l 566 669 l 566 617 l 514 617 l 514 669 m 463 669 l 514 669 l 514 617 l 463 617 l 463 669 m 412 669 l 463 669 l 463 617 l 412 617 l 412 669 m 412 720 l 463 720 l 463 669 l 412 669 l 412 720 m 463 720 l 514 720 l 514 669 l 463 669 l 463 720 m 412 772 l 463 772 l 463 720 l 412 720 l 412 772 m 360 720 l 412 720 l 412 669 l 360 669 l 360 720 m 360 669 l 412 669 l 412 617 l 360 617 l 360 669 m 309 669 l 360 669 l 360 617 l 309 617 l 309 669 m 257 669 l 309 669 l 309 617 l 257 617 l 257 669 m 206 669 l 257 669 l 257 617 l 206 617 l 206 669 m 257 720 l 309 720 l 309 669 l 257 669 l 257 720 m 309 720 l 360 720 l 360 669 l 309 669 l 309 720 m 309 772 l 360 772 l 360 720 l 309 720 l 309 772 m 360 772 l 412 772 l 412 720 l 360 720 l 360 772 m 257 772 l 309 772 l 309 720 l 257 720 l 257 772 m 206 772 l 257 772 l 257 720 l 206 720 l 206 772 m 154 772 l 206 772 l 206 720 l 154 720 l 154 772 m 154 720 l 206 720 l 206 669 l 154 669 l 154 720 m 154 669 l 206 669 l 206 617 l 154 617 l 154 669 m 103 669 l 154 669 l 154 617 l 103 617 l 103 669 m 103 720 l 154 720 l 154 669 l 103 669 l 103 720 m 206 720 l 257 720 l 257 669 l 206 669 l 206 720 m 154 617 l 206 617 l 206 566 l 154 566 l 154 617 m 103 617 l 154 617 l 154 566 l 103 566 l 103 617 m 51 617 l 103 617 l 103 566 l 51 566 l 51 617 m 51 669 l 103 669 l 103 617 l 51 617 l 51 669 m 206 617 l 257 617 l 257 566 l 206 566 l 206 617 m 154 566 l 206 566 l 206 514 l 154 514 l 154 566 m 154 514 l 206 514 l 206 463 l 154 463 l 154 514 m 103 514 l 154 514 l 154 463 l 103 463 l 103 514 m 103 566 l 154 566 l 154 514 l 103 514 l 103 566 m 51 566 l 103 566 l 103 514 l 51 514 l 51 566 m 51 514 l 103 514 l 103 463 l 51 463 l 51 514 m 51 463 l 103 463 l 103 412 l 51 412 l 51 463 m 103 463 l 154 463 l 154 412 l 103 412 l 103 463 m 154 463 l 206 463 l 206 412 l 154 412 l 154 463 m 206 463 l 257 463 l 257 412 l 206 412 l 206 463 m 257 463 l 309 463 l 309 412 l 257 412 l 257 463 m 257 514 l 309 514 l 309 463 l 257 463 l 257 514 m 309 514 l 360 514 l 360 463 l 309 463 l 309 514 m 360 514 l 412 514 l 412 463 l 360 463 l 360 514 m 360 463 l 412 463 l 412 412 l 360 412 l 360 463 m 412 463 l 463 463 l 463 412 l 412 412 l 412 463 m 463 463 l 514 463 l 514 412 l 463 412 l 463 463 m 463 412 l 514 412 l 514 360 l 463 360 l 463 412 m 514 412 l 566 412 l 566 360 l 514 360 l 514 412 m 514 360 l 566 360 l 566 309 l 514 309 l 514 360 m 514 309 l 566 309 l 566 257 l 514 257 l 514 309 m 514 257 l 566 257 l 566 206 l 514 206 l 514 257 m 514 206 l 566 206 l 566 154 l 514 154 l 514 206 m 514 154 l 566 154 l 566 103 l 514 103 l 514 154 m 463 154 l 514 154 l 514 103 l 463 103 l 463 154 m 463 103 l 514 103 l 514 51 l 463 51 l 463 103 m 412 103 l 463 103 l 463 51 l 412 51 l 412 103 m 360 103 l 412 103 l 412 51 l 360 51 l 360 103 m 360 51 l 412 51 l 412 0 l 360 0 l 360 51 m 412 51 l 463 51 l 463 0 l 412 0 l 412 51 m 309 51 l 360 51 l 360 0 l 309 0 l 309 51 m 257 51 l 309 51 l 309 0 l 257 0 l 257 51 m 206 51 l 257 51 l 257 0 l 206 0 l 206 51 m 154 51 l 206 51 l 206 0 l 154 0 l 154 51 m 154 103 l 206 103 l 206 51 l 154 51 l 154 103 m 103 103 l 154 103 l 154 51 l 103 51 l 103 103 m 103 154 l 154 154 l 154 103 l 103 103 l 103 154 m 51 154 l 103 154 l 103 103 l 51 103 l 51 154 m 51 206 l 103 206 l 103 154 l 51 154 l 51 206 m 51 257 l 103 257 l 103 206 l 51 206 l 51 257 m 51 309 l 103 309 l 103 257 l 51 257 l 51 309 m 51 360 l 103 360 l 103 309 l 51 309 l 51 360 m 51 412 l 103 412 l 103 360 l 51 360 l 51 412 m 103 412 l 154 412 l 154 360 l 103 360 l 103 412 m 154 360 l 206 360 l 206 309 l 154 309 l 154 360 m 154 309 l 206 309 l 206 257 l 154 257 l 154 309 m 154 257 l 206 257 l 206 206 l 154 206 l 154 257 m 103 257 l 154 257 l 154 206 l 103 206 l 103 257 m 103 309 l 154 309 l 154 257 l 103 257 l 103 309 m 103 360 l 154 360 l 154 309 l 103 309 l 103 360 m 103 206 l 154 206 l 154 154 l 103 154 l 103 206 m 154 154 l 206 154 l 206 103 l 154 103 l 154 154 m 206 154 l 257 154 l 257 103 l 206 103 l 206 154 m 206 206 l 257 206 l 257 154 l 206 154 l 206 206 m 154 206 l 206 206 l 206 154 l 154 154 l 154 206 m 206 103 l 257 103 l 257 51 l 206 51 l 206 103 m 257 103 l 309 103 l 309 51 l 257 51 l 257 103 m 309 103 l 360 103 l 360 51 l 309 51 l 309 103 m 257 154 l 309 154 l 309 103 l 257 103 l 257 154 m 309 154 l 360 154 l 360 103 l 309 103 l 309 154 m 360 154 l 412 154 l 412 103 l 360 103 l 360 154 m 412 154 l 463 154 l 463 103 l 412 103 l 412 154 m 412 206 l 463 206 l 463 154 l 412 154 l 412 206 m 360 206 l 412 206 l 412 154 l 360 154 l 360 206 m 463 206 l 514 206 l 514 154 l 463 154 l 463 206 m 463 257 l 514 257 l 514 206 l 463 206 l 463 257 m 463 309 l 514 309 l 514 257 l 463 257 l 463 309 m 463 360 l 514 360 l 514 309 l 463 309 l 463 360 m 412 360 l 463 360 l 463 309 l 412 309 l 412 360 m 412 309 l 463 309 l 463 257 l 412 257 l 412 309 m 412 257 l 463 257 l 463 206 l 412 206 l 412 257 m 412 412 l 463 412 l 463 360 l 412 360 l 412 412 m 360 360 l 412 360 l 412 309 l 360 309 l 360 360 m 360 412 l 412 412 l 412 360 l 360 360 l 360 412 m 309 412 l 360 412 l 360 360 l 309 360 l 309 412 m 257 412 l 309 412 l 309 360 l 257 360 l 257 412 m 206 412 l 257 412 l 257 360 l 206 360 l 206 412 m 206 360 l 257 360 l 257 309 l 206 309 l 206 360 m 154 412 l 206 412 l 206 360 l 154 360 l 154 412 m 309 463 l 360 463 l 360 412 l 309 412 l 309 463 z "},"7":{"ha":566,"x_min":51,"x_max":514,"o":"m 51 772 l 103 772 l 103 720 l 51 720 l 51 772 m 103 772 l 154 772 l 154 720 l 103 720 l 103 772 m 154 772 l 206 772 l 206 720 l 154 720 l 154 772 m 206 772 l 257 772 l 257 720 l 206 720 l 206 772 m 257 772 l 309 772 l 309 720 l 257 720 l 257 772 m 360 772 l 412 772 l 412 720 l 360 720 l 360 772 m 412 772 l 463 772 l 463 720 l 412 720 l 412 772 m 463 772 l 514 772 l 514 720 l 463 720 l 463 772 m 463 720 l 514 720 l 514 669 l 463 669 l 463 720 m 412 720 l 463 720 l 463 669 l 412 669 l 412 720 m 360 720 l 412 720 l 412 669 l 360 669 l 360 720 m 309 720 l 360 720 l 360 669 l 309 669 l 309 720 m 309 772 l 360 772 l 360 720 l 309 720 l 309 772 m 206 720 l 257 720 l 257 669 l 206 669 l 206 720 m 154 720 l 206 720 l 206 669 l 154 669 l 154 720 m 103 720 l 154 720 l 154 669 l 103 669 l 103 720 m 103 669 l 154 669 l 154 617 l 103 617 l 103 669 m 51 669 l 103 669 l 103 617 l 51 617 l 51 669 m 51 720 l 103 720 l 103 669 l 51 669 l 51 720 m 154 669 l 206 669 l 206 617 l 154 617 l 154 669 m 206 669 l 257 669 l 257 617 l 206 617 l 206 669 m 257 669 l 309 669 l 309 617 l 257 617 l 257 669 m 257 720 l 309 720 l 309 669 l 257 669 l 257 720 m 309 669 l 360 669 l 360 617 l 309 617 l 309 669 m 360 669 l 412 669 l 412 617 l 360 617 l 360 669 m 412 669 l 463 669 l 463 617 l 412 617 l 412 669 m 463 669 l 514 669 l 514 617 l 463 617 l 463 669 m 463 617 l 514 617 l 514 566 l 463 566 l 463 617 m 463 566 l 514 566 l 514 514 l 463 514 l 463 566 m 412 566 l 463 566 l 463 514 l 412 514 l 412 566 m 412 514 l 463 514 l 463 463 l 412 463 l 412 514 m 412 617 l 463 617 l 463 566 l 412 566 l 412 617 m 360 617 l 412 617 l 412 566 l 360 566 l 360 617 m 360 566 l 412 566 l 412 514 l 360 514 l 360 566 m 360 514 l 412 514 l 412 463 l 360 463 l 360 514 m 309 514 l 360 514 l 360 463 l 309 463 l 309 514 m 412 463 l 463 463 l 463 412 l 412 412 l 412 463 m 463 463 l 514 463 l 514 412 l 463 412 l 463 463 m 463 514 l 514 514 l 514 463 l 463 463 l 463 514 m 360 463 l 412 463 l 412 412 l 360 412 l 360 463 m 309 463 l 360 463 l 360 412 l 309 412 l 309 463 m 309 412 l 360 412 l 360 360 l 309 360 l 309 412 m 309 360 l 360 360 l 360 309 l 309 309 l 309 360 m 257 412 l 309 412 l 309 360 l 257 360 l 257 412 m 257 360 l 309 360 l 309 309 l 257 309 l 257 360 m 360 360 l 412 360 l 412 309 l 360 309 l 360 360 m 360 412 l 412 412 l 412 360 l 360 360 l 360 412 m 412 412 l 463 412 l 463 360 l 412 360 l 412 412 m 412 360 l 463 360 l 463 309 l 412 309 l 412 360 m 360 309 l 412 309 l 412 257 l 360 257 l 360 309 m 360 257 l 412 257 l 412 206 l 360 206 l 360 257 m 309 257 l 360 257 l 360 206 l 309 206 l 309 257 m 309 309 l 360 309 l 360 257 l 309 257 l 309 309 m 257 309 l 309 309 l 309 257 l 257 257 l 257 309 m 257 257 l 309 257 l 309 206 l 257 206 l 257 257 m 206 257 l 257 257 l 257 206 l 206 206 l 206 257 m 206 309 l 257 309 l 257 257 l 206 257 l 206 309 m 206 206 l 257 206 l 257 154 l 206 154 l 206 206 m 257 206 l 309 206 l 309 154 l 257 154 l 257 206 m 309 154 l 360 154 l 360 103 l 309 103 l 309 154 m 309 103 l 360 103 l 360 51 l 309 51 l 309 103 m 309 51 l 360 51 l 360 0 l 309 0 l 309 51 m 309 206 l 360 206 l 360 154 l 309 154 l 309 206 m 257 154 l 309 154 l 309 103 l 257 103 l 257 154 m 257 103 l 309 103 l 309 51 l 257 51 l 257 103 m 257 51 l 309 51 l 309 0 l 257 0 l 257 51 m 206 51 l 257 51 l 257 0 l 206 0 l 206 51 m 206 103 l 257 103 l 257 51 l 206 51 l 206 103 m 206 154 l 257 154 l 257 103 l 206 103 l 206 154 z "},"8":{"ha":617,"x_min":51,"x_max":566,"o":"m 412 772 l 463 772 l 463 720 l 412 720 l 412 772 m 360 772 l 412 772 l 412 720 l 360 720 l 360 772 m 309 772 l 360 772 l 360 720 l 309 720 l 309 772 m 257 772 l 309 772 l 309 720 l 257 720 l 257 772 m 206 772 l 257 772 l 257 720 l 206 720 l 206 772 m 154 772 l 206 772 l 206 720 l 154 720 l 154 772 m 154 720 l 206 720 l 206 669 l 154 669 l 154 720 m 103 720 l 154 720 l 154 669 l 103 669 l 103 720 m 206 720 l 257 720 l 257 669 l 206 669 l 206 720 m 257 720 l 309 720 l 309 669 l 257 669 l 257 720 m 309 720 l 360 720 l 360 669 l 309 669 l 309 720 m 360 720 l 412 720 l 412 669 l 360 669 l 360 720 m 412 720 l 463 720 l 463 669 l 412 669 l 412 720 m 463 720 l 514 720 l 514 669 l 463 669 l 463 720 m 514 669 l 566 669 l 566 617 l 514 617 l 514 669 m 463 669 l 514 669 l 514 617 l 463 617 l 463 669 m 412 669 l 463 669 l 463 617 l 412 617 l 412 669 m 360 669 l 412 669 l 412 617 l 360 617 l 360 669 m 309 669 l 360 669 l 360 617 l 309 617 l 309 669 m 257 669 l 309 669 l 309 617 l 257 617 l 257 669 m 206 669 l 257 669 l 257 617 l 206 617 l 206 669 m 154 669 l 206 669 l 206 617 l 154 617 l 154 669 m 103 669 l 154 669 l 154 617 l 103 617 l 103 669 m 51 669 l 103 669 l 103 617 l 51 617 l 51 669 m 51 617 l 103 617 l 103 566 l 51 566 l 51 617 m 51 566 l 103 566 l 103 514 l 51 514 l 51 566 m 103 566 l 154 566 l 154 514 l 103 514 l 103 566 m 154 566 l 206 566 l 206 514 l 154 514 l 154 566 m 154 617 l 206 617 l 206 566 l 154 566 l 154 617 m 206 617 l 257 617 l 257 566 l 206 566 l 206 617 m 103 617 l 154 617 l 154 566 l 103 566 l 103 617 m 51 514 l 103 514 l 103 463 l 51 463 l 51 514 m 103 514 l 154 514 l 154 463 l 103 463 l 103 514 m 154 514 l 206 514 l 206 463 l 154 463 l 154 514 m 206 514 l 257 514 l 257 463 l 206 463 l 206 514 m 206 463 l 257 463 l 257 412 l 206 412 l 206 463 m 257 463 l 309 463 l 309 412 l 257 412 l 257 463 m 309 463 l 360 463 l 360 412 l 309 412 l 309 463 m 360 463 l 412 463 l 412 412 l 360 412 l 360 463 m 360 514 l 412 514 l 412 463 l 360 463 l 360 514 m 412 514 l 463 514 l 463 463 l 412 463 l 412 514 m 412 566 l 463 566 l 463 514 l 412 514 l 412 566 m 412 617 l 463 617 l 463 566 l 412 566 l 412 617 m 360 617 l 412 617 l 412 566 l 360 566 l 360 617 m 463 617 l 514 617 l 514 566 l 463 566 l 463 617 m 514 617 l 566 617 l 566 566 l 514 566 l 514 617 m 514 566 l 566 566 l 566 514 l 514 514 l 514 566 m 514 514 l 566 514 l 566 463 l 514 463 l 514 514 m 463 514 l 514 514 l 514 463 l 463 463 l 463 514 m 463 566 l 514 566 l 514 514 l 463 514 l 463 566 m 463 463 l 514 463 l 514 412 l 463 412 l 463 463 m 463 412 l 514 412 l 514 360 l 463 360 l 463 412 m 412 412 l 463 412 l 463 360 l 412 360 l 412 412 m 412 463 l 463 463 l 463 412 l 412 412 l 412 463 m 360 412 l 412 412 l 412 360 l 360 360 l 360 412 m 309 412 l 360 412 l 360 360 l 309 360 l 309 412 m 257 412 l 309 412 l 309 360 l 257 360 l 257 412 m 206 412 l 257 412 l 257 360 l 206 360 l 206 412 m 154 463 l 206 463 l 206 412 l 154 412 l 154 463 m 103 412 l 154 412 l 154 360 l 103 360 l 103 412 m 103 463 l 154 463 l 154 412 l 103 412 l 103 463 m 154 412 l 206 412 l 206 360 l 154 360 l 154 412 m 154 360 l 206 360 l 206 309 l 154 309 l 154 360 m 103 360 l 154 360 l 154 309 l 103 309 l 103 360 m 51 360 l 103 360 l 103 309 l 51 309 l 51 360 m 51 309 l 103 309 l 103 257 l 51 257 l 51 309 m 103 309 l 154 309 l 154 257 l 103 257 l 103 309 m 103 257 l 154 257 l 154 206 l 103 206 l 103 257 m 103 206 l 154 206 l 154 154 l 103 154 l 103 206 m 51 206 l 103 206 l 103 154 l 51 154 l 51 206 m 51 257 l 103 257 l 103 206 l 51 206 l 51 257 m 51 154 l 103 154 l 103 103 l 51 103 l 51 154 m 103 154 l 154 154 l 154 103 l 103 103 l 103 154 m 103 103 l 154 103 l 154 51 l 103 51 l 103 103 m 154 103 l 206 103 l 206 51 l 154 51 l 154 103 m 154 51 l 206 51 l 206 0 l 154 0 l 154 51 m 206 51 l 257 51 l 257 0 l 206 0 l 206 51 m 257 51 l 309 51 l 309 0 l 257 0 l 257 51 m 309 51 l 360 51 l 360 0 l 309 0 l 309 51 m 360 51 l 412 51 l 412 0 l 360 0 l 360 51 m 412 51 l 463 51 l 463 0 l 412 0 l 412 51 m 412 103 l 463 103 l 463 51 l 412 51 l 412 103 m 463 103 l 514 103 l 514 51 l 463 51 l 463 103 m 463 154 l 514 154 l 514 103 l 463 103 l 463 154 m 463 206 l 514 206 l 514 154 l 463 154 l 463 206 m 514 206 l 566 206 l 566 154 l 514 154 l 514 206 m 514 154 l 566 154 l 566 103 l 514 103 l 514 154 m 514 257 l 566 257 l 566 206 l 514 206 l 514 257 m 514 309 l 566 309 l 566 257 l 514 257 l 514 309 m 514 360 l 566 360 l 566 309 l 514 309 l 514 360 m 463 360 l 514 360 l 514 309 l 463 309 l 463 360 m 412 360 l 463 360 l 463 309 l 412 309 l 412 360 m 360 360 l 412 360 l 412 309 l 360 309 l 360 360 m 412 309 l 463 309 l 463 257 l 412 257 l 412 309 m 412 257 l 463 257 l 463 206 l 412 206 l 412 257 m 412 206 l 463 206 l 463 154 l 412 154 l 412 206 m 412 154 l 463 154 l 463 103 l 412 103 l 412 154 m 360 154 l 412 154 l 412 103 l 360 103 l 360 154 m 360 206 l 412 206 l 412 154 l 360 154 l 360 206 m 309 154 l 360 154 l 360 103 l 309 103 l 309 154 m 309 103 l 360 103 l 360 51 l 309 51 l 309 103 m 257 154 l 309 154 l 309 103 l 257 103 l 257 154 m 206 154 l 257 154 l 257 103 l 206 103 l 206 154 m 206 206 l 257 206 l 257 154 l 206 154 l 206 206 m 154 206 l 206 206 l 206 154 l 154 154 l 154 206 m 154 154 l 206 154 l 206 103 l 154 103 l 154 154 m 154 309 l 206 309 l 206 257 l 154 257 l 154 309 m 154 257 l 206 257 l 206 206 l 154 206 l 154 257 m 206 360 l 257 360 l 257 309 l 206 309 l 206 360 m 206 103 l 257 103 l 257 51 l 206 51 l 206 103 m 257 103 l 309 103 l 309 51 l 257 51 l 257 103 m 360 103 l 412 103 l 412 51 l 360 51 l 360 103 m 463 257 l 514 257 l 514 206 l 463 206 l 463 257 m 463 309 l 514 309 l 514 257 l 463 257 l 463 309 z "},"9":{"ha":617,"x_min":51,"x_max":566,"o":"m 412 772 l 463 772 l 463 720 l 412 720 l 412 772 m 360 772 l 412 772 l 412 720 l 360 720 l 360 772 m 309 772 l 360 772 l 360 720 l 309 720 l 309 772 m 257 772 l 309 772 l 309 720 l 257 720 l 257 772 m 206 772 l 257 772 l 257 720 l 206 720 l 206 772 m 154 772 l 206 772 l 206 720 l 154 720 l 154 772 m 154 720 l 206 720 l 206 669 l 154 669 l 154 720 m 103 720 l 154 720 l 154 669 l 103 669 l 103 720 m 206 720 l 257 720 l 257 669 l 206 669 l 206 720 m 257 720 l 309 720 l 309 669 l 257 669 l 257 720 m 309 720 l 360 720 l 360 669 l 309 669 l 309 720 m 360 720 l 412 720 l 412 669 l 360 669 l 360 720 m 412 720 l 463 720 l 463 669 l 412 669 l 412 720 m 463 720 l 514 720 l 514 669 l 463 669 l 463 720 m 463 669 l 514 669 l 514 617 l 463 617 l 463 669 m 514 669 l 566 669 l 566 617 l 514 617 l 514 669 m 412 669 l 463 669 l 463 617 l 412 617 l 412 669 m 360 669 l 412 669 l 412 617 l 360 617 l 360 669 m 309 669 l 360 669 l 360 617 l 309 617 l 309 669 m 257 669 l 309 669 l 309 617 l 257 617 l 257 669 m 206 669 l 257 669 l 257 617 l 206 617 l 206 669 m 154 669 l 206 669 l 206 617 l 154 617 l 154 669 m 103 669 l 154 669 l 154 617 l 103 617 l 103 669 m 51 669 l 103 669 l 103 617 l 51 617 l 51 669 m 51 617 l 103 617 l 103 566 l 51 566 l 51 617 m 103 617 l 154 617 l 154 566 l 103 566 l 103 617 m 154 617 l 206 617 l 206 566 l 154 566 l 154 617 m 206 617 l 257 617 l 257 566 l 206 566 l 206 617 m 360 617 l 412 617 l 412 566 l 360 566 l 360 617 m 412 617 l 463 617 l 463 566 l 412 566 l 412 617 m 463 617 l 514 617 l 514 566 l 463 566 l 463 617 m 514 617 l 566 617 l 566 566 l 514 566 l 514 617 m 514 566 l 566 566 l 566 514 l 514 514 l 514 566 m 514 514 l 566 514 l 566 463 l 514 463 l 514 514 m 514 463 l 566 463 l 566 412 l 514 412 l 514 463 m 514 412 l 566 412 l 566 360 l 514 360 l 514 412 m 514 360 l 566 360 l 566 309 l 514 309 l 514 360 m 514 309 l 566 309 l 566 257 l 514 257 l 514 309 m 514 257 l 566 257 l 566 206 l 514 206 l 514 257 m 514 206 l 566 206 l 566 154 l 514 154 l 514 206 m 514 154 l 566 154 l 566 103 l 514 103 l 514 154 m 463 154 l 514 154 l 514 103 l 463 103 l 463 154 m 463 103 l 514 103 l 514 51 l 463 51 l 463 103 m 412 103 l 463 103 l 463 51 l 412 51 l 412 103 m 360 103 l 412 103 l 412 51 l 360 51 l 360 103 m 412 51 l 463 51 l 463 0 l 412 0 l 412 51 m 360 51 l 412 51 l 412 0 l 360 0 l 360 51 m 309 51 l 360 51 l 360 0 l 309 0 l 309 51 m 257 51 l 309 51 l 309 0 l 257 0 l 257 51 m 206 51 l 257 51 l 257 0 l 206 0 l 206 51 m 154 51 l 206 51 l 206 0 l 154 0 l 154 51 m 154 103 l 206 103 l 206 51 l 154 51 l 154 103 m 103 103 l 154 103 l 154 51 l 103 51 l 103 103 m 103 154 l 154 154 l 154 103 l 103 103 l 103 154 m 51 154 l 103 154 l 103 103 l 51 103 l 51 154 m 51 206 l 103 206 l 103 154 l 51 154 l 51 206 m 51 257 l 103 257 l 103 206 l 51 206 l 51 257 m 103 257 l 154 257 l 154 206 l 103 206 l 103 257 m 154 257 l 206 257 l 206 206 l 154 206 l 154 257 m 154 206 l 206 206 l 206 154 l 154 154 l 154 206 m 103 206 l 154 206 l 154 154 l 103 154 l 103 206 m 206 206 l 257 206 l 257 154 l 206 154 l 206 206 m 206 154 l 257 154 l 257 103 l 206 103 l 206 154 m 154 154 l 206 154 l 206 103 l 154 103 l 154 154 m 257 154 l 309 154 l 309 103 l 257 103 l 257 154 m 257 103 l 309 103 l 309 51 l 257 51 l 257 103 m 309 103 l 360 103 l 360 51 l 309 51 l 309 103 m 206 103 l 257 103 l 257 51 l 206 51 l 206 103 m 309 154 l 360 154 l 360 103 l 309 103 l 309 154 m 360 154 l 412 154 l 412 103 l 360 103 l 360 154 m 412 154 l 463 154 l 463 103 l 412 103 l 412 154 m 412 206 l 463 206 l 463 154 l 412 154 l 412 206 m 360 206 l 412 206 l 412 154 l 360 154 l 360 206 m 463 206 l 514 206 l 514 154 l 463 154 l 463 206 m 463 257 l 514 257 l 514 206 l 463 206 l 463 257 m 412 257 l 463 257 l 463 206 l 412 206 l 412 257 m 412 309 l 463 309 l 463 257 l 412 257 l 412 309 m 463 309 l 514 309 l 514 257 l 463 257 l 463 309 m 463 360 l 514 360 l 514 309 l 463 309 l 463 360 m 412 360 l 463 360 l 463 309 l 412 309 l 412 360 m 360 360 l 412 360 l 412 309 l 360 309 l 360 360 m 309 360 l 360 360 l 360 309 l 309 309 l 309 360 m 309 309 l 360 309 l 360 257 l 309 257 l 309 309 m 257 309 l 309 309 l 309 257 l 257 257 l 257 309 m 206 309 l 257 309 l 257 257 l 206 257 l 206 309 m 206 360 l 257 360 l 257 309 l 206 309 l 206 360 m 154 360 l 206 360 l 206 309 l 154 309 l 154 360 m 103 360 l 154 360 l 154 309 l 103 309 l 103 360 m 103 412 l 154 412 l 154 360 l 103 360 l 103 412 m 51 412 l 103 412 l 103 360 l 51 360 l 51 412 m 51 463 l 103 463 l 103 412 l 51 412 l 51 463 m 51 514 l 103 514 l 103 463 l 51 463 l 51 514 m 51 566 l 103 566 l 103 514 l 51 514 l 51 566 m 103 566 l 154 566 l 154 514 l 103 514 l 103 566 m 103 514 l 154 514 l 154 463 l 103 463 l 103 514 m 103 463 l 154 463 l 154 412 l 103 412 l 103 463 m 154 566 l 206 566 l 206 514 l 154 514 l 154 566 m 154 514 l 206 514 l 206 463 l 154 463 l 154 514 m 154 463 l 206 463 l 206 412 l 154 412 l 154 463 m 154 412 l 206 412 l 206 360 l 154 360 l 154 412 m 206 412 l 257 412 l 257 360 l 206 360 l 206 412 m 206 463 l 257 463 l 257 412 l 206 412 l 206 463 m 257 412 l 309 412 l 309 360 l 257 360 l 257 412 m 257 360 l 309 360 l 309 309 l 257 309 l 257 360 m 309 412 l 360 412 l 360 360 l 309 360 l 309 412 m 360 412 l 412 412 l 412 360 l 360 360 l 360 412 m 412 412 l 463 412 l 463 360 l 412 360 l 412 412 m 412 463 l 463 463 l 463 412 l 412 412 l 412 463 m 360 463 l 412 463 l 412 412 l 360 412 l 360 463 m 463 463 l 514 463 l 514 412 l 463 412 l 463 463 m 463 514 l 514 514 l 514 463 l 463 463 l 463 514 m 463 566 l 514 566 l 514 514 l 463 514 l 463 566 m 412 566 l 463 566 l 463 514 l 412 514 l 412 566 m 412 514 l 463 514 l 463 463 l 412 463 l 412 514 m 463 412 l 514 412 l 514 360 l 463 360 l 463 412 z "},"A":{"ha":617,"x_min":51,"x_max":566,"o":"m 257 772 l 309 772 l 309 720 l 257 720 l 257 772 m 309 772 l 360 772 l 360 720 l 309 720 l 309 772 m 309 720 l 360 720 l 360 669 l 309 669 l 309 720 m 360 720 l 412 720 l 412 669 l 360 669 l 360 720 m 257 720 l 309 720 l 309 669 l 257 669 l 257 720 m 206 720 l 257 720 l 257 669 l 206 669 l 206 720 m 206 669 l 257 669 l 257 617 l 206 617 l 206 669 m 154 669 l 206 669 l 206 617 l 154 617 l 154 669 m 257 669 l 309 669 l 309 617 l 257 617 l 257 669 m 309 669 l 360 669 l 360 617 l 309 617 l 309 669 m 360 669 l 412 669 l 412 617 l 360 617 l 360 669 m 412 669 l 463 669 l 463 617 l 412 617 l 412 669 m 412 617 l 463 617 l 463 566 l 412 566 l 412 617 m 463 617 l 514 617 l 514 566 l 463 566 l 463 617 m 360 617 l 412 617 l 412 566 l 360 566 l 360 617 m 309 617 l 360 617 l 360 566 l 309 566 l 309 617 m 257 617 l 309 617 l 309 566 l 257 566 l 257 617 m 206 617 l 257 617 l 257 566 l 206 566 l 206 617 m 154 617 l 206 617 l 206 566 l 154 566 l 154 617 m 103 617 l 154 617 l 154 566 l 103 566 l 103 617 m 206 566 l 257 566 l 257 514 l 206 514 l 206 566 m 154 566 l 206 566 l 206 514 l 154 514 l 154 566 m 103 566 l 154 566 l 154 514 l 103 514 l 103 566 m 51 566 l 103 566 l 103 514 l 51 514 l 51 566 m 51 514 l 103 514 l 103 463 l 51 463 l 51 514 m 51 463 l 103 463 l 103 412 l 51 412 l 51 463 m 103 463 l 154 463 l 154 412 l 103 412 l 103 463 m 103 514 l 154 514 l 154 463 l 103 463 l 103 514 m 154 514 l 206 514 l 206 463 l 154 463 l 154 514 m 154 463 l 206 463 l 206 412 l 154 412 l 154 463 m 154 412 l 206 412 l 206 360 l 154 360 l 154 412 m 103 412 l 154 412 l 154 360 l 103 360 l 103 412 m 51 412 l 103 412 l 103 360 l 51 360 l 51 412 m 51 360 l 103 360 l 103 309 l 51 309 l 51 360 m 103 360 l 154 360 l 154 309 l 103 309 l 103 360 m 154 360 l 206 360 l 206 309 l 154 309 l 154 360 m 206 360 l 257 360 l 257 309 l 206 309 l 206 360 m 257 360 l 309 360 l 309 309 l 257 309 l 257 360 m 309 360 l 360 360 l 360 309 l 309 309 l 309 360 m 360 360 l 412 360 l 412 309 l 360 309 l 360 360 m 412 412 l 463 412 l 463 360 l 412 360 l 412 412 m 463 412 l 514 412 l 514 360 l 463 360 l 463 412 m 463 360 l 514 360 l 514 309 l 463 309 l 463 360 m 412 360 l 463 360 l 463 309 l 412 309 l 412 360 m 514 360 l 566 360 l 566 309 l 514 309 l 514 360 m 514 412 l 566 412 l 566 360 l 514 360 l 514 412 m 514 463 l 566 463 l 566 412 l 514 412 l 514 463 m 514 514 l 566 514 l 566 463 l 514 463 l 514 514 m 514 566 l 566 566 l 566 514 l 514 514 l 514 566 m 463 566 l 514 566 l 514 514 l 463 514 l 463 566 m 412 566 l 463 566 l 463 514 l 412 514 l 412 566 m 360 566 l 412 566 l 412 514 l 360 514 l 360 566 m 463 514 l 514 514 l 514 463 l 463 463 l 463 514 m 463 463 l 514 463 l 514 412 l 463 412 l 463 463 m 412 463 l 463 463 l 463 412 l 412 412 l 412 463 m 412 514 l 463 514 l 463 463 l 412 463 l 412 514 m 51 309 l 103 309 l 103 257 l 51 257 l 51 309 m 103 309 l 154 309 l 154 257 l 103 257 l 103 309 m 154 309 l 206 309 l 206 257 l 154 257 l 154 309 m 206 309 l 257 309 l 257 257 l 206 257 l 206 309 m 257 309 l 309 309 l 309 257 l 257 257 l 257 309 m 309 309 l 360 309 l 360 257 l 309 257 l 309 309 m 360 309 l 412 309 l 412 257 l 360 257 l 360 309 m 412 309 l 463 309 l 463 257 l 412 257 l 412 309 m 463 309 l 514 309 l 514 257 l 463 257 l 463 309 m 514 309 l 566 309 l 566 257 l 514 257 l 514 309 m 514 257 l 566 257 l 566 206 l 514 206 l 514 257 m 463 257 l 514 257 l 514 206 l 463 206 l 463 257 m 412 257 l 463 257 l 463 206 l 412 206 l 412 257 m 360 257 l 412 257 l 412 206 l 360 206 l 360 257 m 309 257 l 360 257 l 360 206 l 309 206 l 309 257 m 257 257 l 309 257 l 309 206 l 257 206 l 257 257 m 206 257 l 257 257 l 257 206 l 206 206 l 206 257 m 103 257 l 154 257 l 154 206 l 103 206 l 103 257 m 51 257 l 103 257 l 103 206 l 51 206 l 51 257 m 154 257 l 206 257 l 206 206 l 154 206 l 154 257 m 154 206 l 206 206 l 206 154 l 154 154 l 154 206 m 154 154 l 206 154 l 206 103 l 154 103 l 154 154 m 154 103 l 206 103 l 206 51 l 154 51 l 154 103 m 154 51 l 206 51 l 206 0 l 154 0 l 154 51 m 103 51 l 154 51 l 154 0 l 103 0 l 103 51 m 51 51 l 103 51 l 103 0 l 51 0 l 51 51 m 51 103 l 103 103 l 103 51 l 51 51 l 51 103 m 51 154 l 103 154 l 103 103 l 51 103 l 51 154 m 51 206 l 103 206 l 103 154 l 51 154 l 51 206 m 103 206 l 154 206 l 154 154 l 103 154 l 103 206 m 103 154 l 154 154 l 154 103 l 103 103 l 103 154 m 103 103 l 154 103 l 154 51 l 103 51 l 103 103 m 412 206 l 463 206 l 463 154 l 412 154 l 412 206 m 412 154 l 463 154 l 463 103 l 412 103 l 412 154 m 412 103 l 463 103 l 463 51 l 412 51 l 412 103 m 412 51 l 463 51 l 463 0 l 412 0 l 412 51 m 463 51 l 514 51 l 514 0 l 463 0 l 463 51 m 514 51 l 566 51 l 566 0 l 514 0 l 514 51 m 514 103 l 566 103 l 566 51 l 514 51 l 514 103 m 514 154 l 566 154 l 566 103 l 514 103 l 514 154 m 514 206 l 566 206 l 566 154 l 514 154 l 514 206 m 463 206 l 514 206 l 514 154 l 463 154 l 463 206 m 463 154 l 514 154 l 514 103 l 463 103 l 463 154 m 463 103 l 514 103 l 514 51 l 463 51 l 463 103 z "},"":{"ha":617,"x_min":51,"x_max":566,"o":"m 257 772 l 309 772 l 309 720 l 257 720 l 257 772 m 309 772 l 360 772 l 360 720 l 309 720 l 309 772 m 309 720 l 360 720 l 360 669 l 309 669 l 309 720 m 360 720 l 412 720 l 412 669 l 360 669 l 360 720 m 257 720 l 309 720 l 309 669 l 257 669 l 257 720 m 206 720 l 257 720 l 257 669 l 206 669 l 206 720 m 206 669 l 257 669 l 257 617 l 206 617 l 206 669 m 154 669 l 206 669 l 206 617 l 154 617 l 154 669 m 257 669 l 309 669 l 309 617 l 257 617 l 257 669 m 309 669 l 360 669 l 360 617 l 309 617 l 309 669 m 360 669 l 412 669 l 412 617 l 360 617 l 360 669 m 412 669 l 463 669 l 463 617 l 412 617 l 412 669 m 412 617 l 463 617 l 463 566 l 412 566 l 412 617 m 463 617 l 514 617 l 514 566 l 463 566 l 463 617 m 360 617 l 412 617 l 412 566 l 360 566 l 360 617 m 309 617 l 360 617 l 360 566 l 309 566 l 309 617 m 257 617 l 309 617 l 309 566 l 257 566 l 257 617 m 206 617 l 257 617 l 257 566 l 206 566 l 206 617 m 154 617 l 206 617 l 206 566 l 154 566 l 154 617 m 103 617 l 154 617 l 154 566 l 103 566 l 103 617 m 206 566 l 257 566 l 257 514 l 206 514 l 206 566 m 154 566 l 206 566 l 206 514 l 154 514 l 154 566 m 103 566 l 154 566 l 154 514 l 103 514 l 103 566 m 51 566 l 103 566 l 103 514 l 51 514 l 51 566 m 51 514 l 103 514 l 103 463 l 51 463 l 51 514 m 51 463 l 103 463 l 103 412 l 51 412 l 51 463 m 103 463 l 154 463 l 154 412 l 103 412 l 103 463 m 103 514 l 154 514 l 154 463 l 103 463 l 103 514 m 154 514 l 206 514 l 206 463 l 154 463 l 154 514 m 154 463 l 206 463 l 206 412 l 154 412 l 154 463 m 154 412 l 206 412 l 206 360 l 154 360 l 154 412 m 103 412 l 154 412 l 154 360 l 103 360 l 103 412 m 51 412 l 103 412 l 103 360 l 51 360 l 51 412 m 51 360 l 103 360 l 103 309 l 51 309 l 51 360 m 103 360 l 154 360 l 154 309 l 103 309 l 103 360 m 154 360 l 206 360 l 206 309 l 154 309 l 154 360 m 206 360 l 257 360 l 257 309 l 206 309 l 206 360 m 257 360 l 309 360 l 309 309 l 257 309 l 257 360 m 309 360 l 360 360 l 360 309 l 309 309 l 309 360 m 360 360 l 412 360 l 412 309 l 360 309 l 360 360 m 412 412 l 463 412 l 463 360 l 412 360 l 412 412 m 463 412 l 514 412 l 514 360 l 463 360 l 463 412 m 463 360 l 514 360 l 514 309 l 463 309 l 463 360 m 412 360 l 463 360 l 463 309 l 412 309 l 412 360 m 514 360 l 566 360 l 566 309 l 514 309 l 514 360 m 514 412 l 566 412 l 566 360 l 514 360 l 514 412 m 514 463 l 566 463 l 566 412 l 514 412 l 514 463 m 514 514 l 566 514 l 566 463 l 514 463 l 514 514 m 514 566 l 566 566 l 566 514 l 514 514 l 514 566 m 463 566 l 514 566 l 514 514 l 463 514 l 463 566 m 412 566 l 463 566 l 463 514 l 412 514 l 412 566 m 360 566 l 412 566 l 412 514 l 360 514 l 360 566 m 463 514 l 514 514 l 514 463 l 463 463 l 463 514 m 463 463 l 514 463 l 514 412 l 463 412 l 463 463 m 412 463 l 463 463 l 463 412 l 412 412 l 412 463 m 412 514 l 463 514 l 463 463 l 412 463 l 412 514 m 51 309 l 103 309 l 103 257 l 51 257 l 51 309 m 103 309 l 154 309 l 154 257 l 103 257 l 103 309 m 154 309 l 206 309 l 206 257 l 154 257 l 154 309 m 206 309 l 257 309 l 257 257 l 206 257 l 206 309 m 257 309 l 309 309 l 309 257 l 257 257 l 257 309 m 309 309 l 360 309 l 360 257 l 309 257 l 309 309 m 360 309 l 412 309 l 412 257 l 360 257 l 360 309 m 412 309 l 463 309 l 463 257 l 412 257 l 412 309 m 463 309 l 514 309 l 514 257 l 463 257 l 463 309 m 514 309 l 566 309 l 566 257 l 514 257 l 514 309 m 514 257 l 566 257 l 566 206 l 514 206 l 514 257 m 463 257 l 514 257 l 514 206 l 463 206 l 463 257 m 412 257 l 463 257 l 463 206 l 412 206 l 412 257 m 360 257 l 412 257 l 412 206 l 360 206 l 360 257 m 309 257 l 360 257 l 360 206 l 309 206 l 309 257 m 257 257 l 309 257 l 309 206 l 257 206 l 257 257 m 206 257 l 257 257 l 257 206 l 206 206 l 206 257 m 103 257 l 154 257 l 154 206 l 103 206 l 103 257 m 51 257 l 103 257 l 103 206 l 51 206 l 51 257 m 154 257 l 206 257 l 206 206 l 154 206 l 154 257 m 154 206 l 206 206 l 206 154 l 154 154 l 154 206 m 154 154 l 206 154 l 206 103 l 154 103 l 154 154 m 154 103 l 206 103 l 206 51 l 154 51 l 154 103 m 154 51 l 206 51 l 206 0 l 154 0 l 154 51 m 103 51 l 154 51 l 154 0 l 103 0 l 103 51 m 51 51 l 103 51 l 103 0 l 51 0 l 51 51 m 51 103 l 103 103 l 103 51 l 51 51 l 51 103 m 51 154 l 103 154 l 103 103 l 51 103 l 51 154 m 51 206 l 103 206 l 103 154 l 51 154 l 51 206 m 103 206 l 154 206 l 154 154 l 103 154 l 103 206 m 103 154 l 154 154 l 154 103 l 103 103 l 103 154 m 103 103 l 154 103 l 154 51 l 103 51 l 103 103 m 412 206 l 463 206 l 463 154 l 412 154 l 412 206 m 412 154 l 463 154 l 463 103 l 412 103 l 412 154 m 412 103 l 463 103 l 463 51 l 412 51 l 412 103 m 412 51 l 463 51 l 463 0 l 412 0 l 412 51 m 463 51 l 514 51 l 514 0 l 463 0 l 463 51 m 514 51 l 566 51 l 566 0 l 514 0 l 514 51 m 514 103 l 566 103 l 566 51 l 514 51 l 514 103 m 514 154 l 566 154 l 566 103 l 514 103 l 514 154 m 514 206 l 566 206 l 566 154 l 514 154 l 514 206 m 463 206 l 514 206 l 514 154 l 463 154 l 463 206 m 463 154 l 514 154 l 514 103 l 463 103 l 463 154 m 463 103 l 514 103 l 514 51 l 463 51 l 463 103 m 360 1029 l 360 977 l 309 977 l 309 1029 l 360 1029 m 309 977 l 309 926 l 257 926 l 257 977 l 309 977 m 360 977 l 360 926 l 309 926 l 309 977 l 360 977 m 257 926 l 257 874 l 206 874 l 206 926 l 257 926 m 309 926 l 309 874 l 257 874 l 257 926 l 309 926 m 412 1029 l 412 977 l 360 977 l 360 1029 l 412 1029 m 257 874 l 309 874 l 309 823 l 257 823 l 257 874 m 206 874 l 257 874 l 257 823 l 206 823 l 206 874 m 309 926 l 360 926 l 360 874 l 309 874 l 309 926 m 360 977 l 412 977 l 412 926 l 360 926 l 360 977 z "},"":{"ha":617,"x_min":51,"x_max":566,"o":"m 257 772 l 309 772 l 309 720 l 257 720 l 257 772 m 309 772 l 360 772 l 360 720 l 309 720 l 309 772 m 309 720 l 360 720 l 360 669 l 309 669 l 309 720 m 360 720 l 412 720 l 412 669 l 360 669 l 360 720 m 257 720 l 309 720 l 309 669 l 257 669 l 257 720 m 206 720 l 257 720 l 257 669 l 206 669 l 206 720 m 206 669 l 257 669 l 257 617 l 206 617 l 206 669 m 154 669 l 206 669 l 206 617 l 154 617 l 154 669 m 257 669 l 309 669 l 309 617 l 257 617 l 257 669 m 309 669 l 360 669 l 360 617 l 309 617 l 309 669 m 360 669 l 412 669 l 412 617 l 360 617 l 360 669 m 412 669 l 463 669 l 463 617 l 412 617 l 412 669 m 412 617 l 463 617 l 463 566 l 412 566 l 412 617 m 463 617 l 514 617 l 514 566 l 463 566 l 463 617 m 360 617 l 412 617 l 412 566 l 360 566 l 360 617 m 309 617 l 360 617 l 360 566 l 309 566 l 309 617 m 257 617 l 309 617 l 309 566 l 257 566 l 257 617 m 206 617 l 257 617 l 257 566 l 206 566 l 206 617 m 154 617 l 206 617 l 206 566 l 154 566 l 154 617 m 103 617 l 154 617 l 154 566 l 103 566 l 103 617 m 206 566 l 257 566 l 257 514 l 206 514 l 206 566 m 154 566 l 206 566 l 206 514 l 154 514 l 154 566 m 103 566 l 154 566 l 154 514 l 103 514 l 103 566 m 51 566 l 103 566 l 103 514 l 51 514 l 51 566 m 51 514 l 103 514 l 103 463 l 51 463 l 51 514 m 51 463 l 103 463 l 103 412 l 51 412 l 51 463 m 103 463 l 154 463 l 154 412 l 103 412 l 103 463 m 103 514 l 154 514 l 154 463 l 103 463 l 103 514 m 154 514 l 206 514 l 206 463 l 154 463 l 154 514 m 154 463 l 206 463 l 206 412 l 154 412 l 154 463 m 154 412 l 206 412 l 206 360 l 154 360 l 154 412 m 103 412 l 154 412 l 154 360 l 103 360 l 103 412 m 51 412 l 103 412 l 103 360 l 51 360 l 51 412 m 51 360 l 103 360 l 103 309 l 51 309 l 51 360 m 103 360 l 154 360 l 154 309 l 103 309 l 103 360 m 154 360 l 206 360 l 206 309 l 154 309 l 154 360 m 206 360 l 257 360 l 257 309 l 206 309 l 206 360 m 257 360 l 309 360 l 309 309 l 257 309 l 257 360 m 309 360 l 360 360 l 360 309 l 309 309 l 309 360 m 360 360 l 412 360 l 412 309 l 360 309 l 360 360 m 412 412 l 463 412 l 463 360 l 412 360 l 412 412 m 463 412 l 514 412 l 514 360 l 463 360 l 463 412 m 463 360 l 514 360 l 514 309 l 463 309 l 463 360 m 412 360 l 463 360 l 463 309 l 412 309 l 412 360 m 514 360 l 566 360 l 566 309 l 514 309 l 514 360 m 514 412 l 566 412 l 566 360 l 514 360 l 514 412 m 514 463 l 566 463 l 566 412 l 514 412 l 514 463 m 514 514 l 566 514 l 566 463 l 514 463 l 514 514 m 514 566 l 566 566 l 566 514 l 514 514 l 514 566 m 463 566 l 514 566 l 514 514 l 463 514 l 463 566 m 412 566 l 463 566 l 463 514 l 412 514 l 412 566 m 360 566 l 412 566 l 412 514 l 360 514 l 360 566 m 463 514 l 514 514 l 514 463 l 463 463 l 463 514 m 463 463 l 514 463 l 514 412 l 463 412 l 463 463 m 412 463 l 463 463 l 463 412 l 412 412 l 412 463 m 412 514 l 463 514 l 463 463 l 412 463 l 412 514 m 51 309 l 103 309 l 103 257 l 51 257 l 51 309 m 103 309 l 154 309 l 154 257 l 103 257 l 103 309 m 154 309 l 206 309 l 206 257 l 154 257 l 154 309 m 206 309 l 257 309 l 257 257 l 206 257 l 206 309 m 257 309 l 309 309 l 309 257 l 257 257 l 257 309 m 309 309 l 360 309 l 360 257 l 309 257 l 309 309 m 360 309 l 412 309 l 412 257 l 360 257 l 360 309 m 412 309 l 463 309 l 463 257 l 412 257 l 412 309 m 463 309 l 514 309 l 514 257 l 463 257 l 463 309 m 514 309 l 566 309 l 566 257 l 514 257 l 514 309 m 514 257 l 566 257 l 566 206 l 514 206 l 514 257 m 463 257 l 514 257 l 514 206 l 463 206 l 463 257 m 412 257 l 463 257 l 463 206 l 412 206 l 412 257 m 360 257 l 412 257 l 412 206 l 360 206 l 360 257 m 309 257 l 360 257 l 360 206 l 309 206 l 309 257 m 257 257 l 309 257 l 309 206 l 257 206 l 257 257 m 206 257 l 257 257 l 257 206 l 206 206 l 206 257 m 103 257 l 154 257 l 154 206 l 103 206 l 103 257 m 51 257 l 103 257 l 103 206 l 51 206 l 51 257 m 154 257 l 206 257 l 206 206 l 154 206 l 154 257 m 154 206 l 206 206 l 206 154 l 154 154 l 154 206 m 154 154 l 206 154 l 206 103 l 154 103 l 154 154 m 154 103 l 206 103 l 206 51 l 154 51 l 154 103 m 154 51 l 206 51 l 206 0 l 154 0 l 154 51 m 103 51 l 154 51 l 154 0 l 103 0 l 103 51 m 51 51 l 103 51 l 103 0 l 51 0 l 51 51 m 51 103 l 103 103 l 103 51 l 51 51 l 51 103 m 51 154 l 103 154 l 103 103 l 51 103 l 51 154 m 51 206 l 103 206 l 103 154 l 51 154 l 51 206 m 103 206 l 154 206 l 154 154 l 103 154 l 103 206 m 103 154 l 154 154 l 154 103 l 103 103 l 103 154 m 103 103 l 154 103 l 154 51 l 103 51 l 103 103 m 412 206 l 463 206 l 463 154 l 412 154 l 412 206 m 412 154 l 463 154 l 463 103 l 412 103 l 412 154 m 412 103 l 463 103 l 463 51 l 412 51 l 412 103 m 412 51 l 463 51 l 463 0 l 412 0 l 412 51 m 463 51 l 514 51 l 514 0 l 463 0 l 463 51 m 514 51 l 566 51 l 566 0 l 514 0 l 514 51 m 514 103 l 566 103 l 566 51 l 514 51 l 514 103 m 514 154 l 566 154 l 566 103 l 514 103 l 514 154 m 514 206 l 566 206 l 566 154 l 514 154 l 514 206 m 463 206 l 514 206 l 514 154 l 463 154 l 463 206 m 463 154 l 514 154 l 514 103 l 463 103 l 463 154 m 463 103 l 514 103 l 514 51 l 463 51 l 463 103 m 360 926 l 360 977 l 412 977 l 412 926 l 360 926 m 360 977 l 360 1029 l 412 1029 l 412 977 l 360 977 m 257 874 l 257 926 l 309 926 l 309 874 l 257 874 m 206 926 l 206 977 l 257 977 l 257 926 l 206 926 m 206 977 l 206 1029 l 257 1029 l 257 977 l 206 977 m 154 1029 l 206 1029 l 206 977 l 154 977 l 154 1029 m 154 977 l 206 977 l 206 926 l 154 926 l 154 977 m 412 1029 l 463 1029 l 463 977 l 412 977 l 412 1029 m 412 977 l 463 977 l 463 926 l 412 926 l 412 977 m 309 926 l 360 926 l 360 874 l 309 874 l 309 926 m 360 926 l 412 926 l 412 874 l 360 874 l 360 926 m 206 926 l 257 926 l 257 874 l 206 874 l 206 926 m 257 874 l 309 874 l 309 823 l 257 823 l 257 874 m 309 874 l 360 874 l 360 823 l 309 823 l 309 874 m 206 874 l 257 874 l 257 823 l 206 823 l 206 874 m 154 926 l 206 926 l 206 874 l 154 874 l 154 926 m 360 874 l 412 874 l 412 823 l 360 823 l 360 874 m 412 926 l 463 926 l 463 874 l 412 874 l 412 926 z "},"":{"ha":617,"x_min":51,"x_max":566,"o":"m 257 772 l 309 772 l 309 720 l 257 720 l 257 772 m 309 772 l 360 772 l 360 720 l 309 720 l 309 772 m 309 720 l 360 720 l 360 669 l 309 669 l 309 720 m 360 720 l 412 720 l 412 669 l 360 669 l 360 720 m 257 720 l 309 720 l 309 669 l 257 669 l 257 720 m 206 720 l 257 720 l 257 669 l 206 669 l 206 720 m 206 669 l 257 669 l 257 617 l 206 617 l 206 669 m 154 669 l 206 669 l 206 617 l 154 617 l 154 669 m 257 669 l 309 669 l 309 617 l 257 617 l 257 669 m 309 669 l 360 669 l 360 617 l 309 617 l 309 669 m 360 669 l 412 669 l 412 617 l 360 617 l 360 669 m 412 669 l 463 669 l 463 617 l 412 617 l 412 669 m 412 617 l 463 617 l 463 566 l 412 566 l 412 617 m 463 617 l 514 617 l 514 566 l 463 566 l 463 617 m 360 617 l 412 617 l 412 566 l 360 566 l 360 617 m 309 617 l 360 617 l 360 566 l 309 566 l 309 617 m 257 617 l 309 617 l 309 566 l 257 566 l 257 617 m 206 617 l 257 617 l 257 566 l 206 566 l 206 617 m 154 617 l 206 617 l 206 566 l 154 566 l 154 617 m 103 617 l 154 617 l 154 566 l 103 566 l 103 617 m 206 566 l 257 566 l 257 514 l 206 514 l 206 566 m 154 566 l 206 566 l 206 514 l 154 514 l 154 566 m 103 566 l 154 566 l 154 514 l 103 514 l 103 566 m 51 566 l 103 566 l 103 514 l 51 514 l 51 566 m 51 514 l 103 514 l 103 463 l 51 463 l 51 514 m 51 463 l 103 463 l 103 412 l 51 412 l 51 463 m 103 463 l 154 463 l 154 412 l 103 412 l 103 463 m 103 514 l 154 514 l 154 463 l 103 463 l 103 514 m 154 514 l 206 514 l 206 463 l 154 463 l 154 514 m 154 463 l 206 463 l 206 412 l 154 412 l 154 463 m 154 412 l 206 412 l 206 360 l 154 360 l 154 412 m 103 412 l 154 412 l 154 360 l 103 360 l 103 412 m 51 412 l 103 412 l 103 360 l 51 360 l 51 412 m 51 360 l 103 360 l 103 309 l 51 309 l 51 360 m 103 360 l 154 360 l 154 309 l 103 309 l 103 360 m 154 360 l 206 360 l 206 309 l 154 309 l 154 360 m 206 360 l 257 360 l 257 309 l 206 309 l 206 360 m 257 360 l 309 360 l 309 309 l 257 309 l 257 360 m 309 360 l 360 360 l 360 309 l 309 309 l 309 360 m 360 360 l 412 360 l 412 309 l 360 309 l 360 360 m 412 412 l 463 412 l 463 360 l 412 360 l 412 412 m 463 412 l 514 412 l 514 360 l 463 360 l 463 412 m 463 360 l 514 360 l 514 309 l 463 309 l 463 360 m 412 360 l 463 360 l 463 309 l 412 309 l 412 360 m 514 360 l 566 360 l 566 309 l 514 309 l 514 360 m 514 412 l 566 412 l 566 360 l 514 360 l 514 412 m 514 463 l 566 463 l 566 412 l 514 412 l 514 463 m 514 514 l 566 514 l 566 463 l 514 463 l 514 514 m 514 566 l 566 566 l 566 514 l 514 514 l 514 566 m 463 566 l 514 566 l 514 514 l 463 514 l 463 566 m 412 566 l 463 566 l 463 514 l 412 514 l 412 566 m 360 566 l 412 566 l 412 514 l 360 514 l 360 566 m 463 514 l 514 514 l 514 463 l 463 463 l 463 514 m 463 463 l 514 463 l 514 412 l 463 412 l 463 463 m 412 463 l 463 463 l 463 412 l 412 412 l 412 463 m 412 514 l 463 514 l 463 463 l 412 463 l 412 514 m 51 309 l 103 309 l 103 257 l 51 257 l 51 309 m 103 309 l 154 309 l 154 257 l 103 257 l 103 309 m 154 309 l 206 309 l 206 257 l 154 257 l 154 309 m 206 309 l 257 309 l 257 257 l 206 257 l 206 309 m 257 309 l 309 309 l 309 257 l 257 257 l 257 309 m 309 309 l 360 309 l 360 257 l 309 257 l 309 309 m 360 309 l 412 309 l 412 257 l 360 257 l 360 309 m 412 309 l 463 309 l 463 257 l 412 257 l 412 309 m 463 309 l 514 309 l 514 257 l 463 257 l 463 309 m 514 309 l 566 309 l 566 257 l 514 257 l 514 309 m 514 257 l 566 257 l 566 206 l 514 206 l 514 257 m 463 257 l 514 257 l 514 206 l 463 206 l 463 257 m 412 257 l 463 257 l 463 206 l 412 206 l 412 257 m 360 257 l 412 257 l 412 206 l 360 206 l 360 257 m 309 257 l 360 257 l 360 206 l 309 206 l 309 257 m 257 257 l 309 257 l 309 206 l 257 206 l 257 257 m 206 257 l 257 257 l 257 206 l 206 206 l 206 257 m 103 257 l 154 257 l 154 206 l 103 206 l 103 257 m 51 257 l 103 257 l 103 206 l 51 206 l 51 257 m 154 257 l 206 257 l 206 206 l 154 206 l 154 257 m 154 206 l 206 206 l 206 154 l 154 154 l 154 206 m 154 154 l 206 154 l 206 103 l 154 103 l 154 154 m 154 103 l 206 103 l 206 51 l 154 51 l 154 103 m 154 51 l 206 51 l 206 0 l 154 0 l 154 51 m 103 51 l 154 51 l 154 0 l 103 0 l 103 51 m 51 51 l 103 51 l 103 0 l 51 0 l 51 51 m 51 103 l 103 103 l 103 51 l 51 51 l 51 103 m 51 154 l 103 154 l 103 103 l 51 103 l 51 154 m 51 206 l 103 206 l 103 154 l 51 154 l 51 206 m 103 206 l 154 206 l 154 154 l 103 154 l 103 206 m 103 154 l 154 154 l 154 103 l 103 103 l 103 154 m 103 103 l 154 103 l 154 51 l 103 51 l 103 103 m 412 206 l 463 206 l 463 154 l 412 154 l 412 206 m 412 154 l 463 154 l 463 103 l 412 103 l 412 154 m 412 103 l 463 103 l 463 51 l 412 51 l 412 103 m 412 51 l 463 51 l 463 0 l 412 0 l 412 51 m 463 51 l 514 51 l 514 0 l 463 0 l 463 51 m 514 51 l 566 51 l 566 0 l 514 0 l 514 51 m 514 103 l 566 103 l 566 51 l 514 51 l 514 103 m 514 154 l 566 154 l 566 103 l 514 103 l 514 154 m 514 206 l 566 206 l 566 154 l 514 154 l 514 206 m 463 206 l 514 206 l 514 154 l 463 154 l 463 206 m 463 154 l 514 154 l 514 103 l 463 103 l 463 154 m 463 103 l 514 103 l 514 51 l 463 51 l 463 103 m 360 926 l 412 926 l 412 874 l 360 874 l 360 926 m 309 977 l 360 977 l 360 926 l 309 926 l 309 977 m 360 874 l 412 874 l 412 823 l 360 823 l 360 874 m 309 926 l 360 926 l 360 874 l 309 874 l 309 926 m 257 926 l 309 926 l 309 874 l 257 874 l 257 926 m 257 977 l 309 977 l 309 926 l 257 926 l 257 977 m 206 926 l 257 926 l 257 874 l 206 874 l 206 926 m 206 874 l 257 874 l 257 823 l 206 823 l 206 874 m 154 874 l 206 874 l 206 823 l 154 823 l 154 874 m 154 926 l 206 926 l 206 874 l 154 874 l 154 926 m 206 977 l 257 977 l 257 926 l 206 926 l 206 977 m 257 1029 l 309 1029 l 309 977 l 257 977 l 257 1029 m 309 1029 l 360 1029 l 360 977 l 309 977 l 309 1029 m 360 977 l 412 977 l 412 926 l 360 926 l 360 977 m 412 926 l 463 926 l 463 874 l 412 874 l 412 926 m 412 874 l 463 874 l 463 823 l 412 823 l 412 874 z "},"":{"ha":617,"x_min":51,"x_max":566,"o":"m 257 772 l 309 772 l 309 720 l 257 720 l 257 772 m 309 772 l 360 772 l 360 720 l 309 720 l 309 772 m 309 720 l 360 720 l 360 669 l 309 669 l 309 720 m 360 720 l 412 720 l 412 669 l 360 669 l 360 720 m 257 720 l 309 720 l 309 669 l 257 669 l 257 720 m 206 720 l 257 720 l 257 669 l 206 669 l 206 720 m 206 669 l 257 669 l 257 617 l 206 617 l 206 669 m 154 669 l 206 669 l 206 617 l 154 617 l 154 669 m 257 669 l 309 669 l 309 617 l 257 617 l 257 669 m 309 669 l 360 669 l 360 617 l 309 617 l 309 669 m 360 669 l 412 669 l 412 617 l 360 617 l 360 669 m 412 669 l 463 669 l 463 617 l 412 617 l 412 669 m 412 617 l 463 617 l 463 566 l 412 566 l 412 617 m 463 617 l 514 617 l 514 566 l 463 566 l 463 617 m 360 617 l 412 617 l 412 566 l 360 566 l 360 617 m 309 617 l 360 617 l 360 566 l 309 566 l 309 617 m 257 617 l 309 617 l 309 566 l 257 566 l 257 617 m 206 617 l 257 617 l 257 566 l 206 566 l 206 617 m 154 617 l 206 617 l 206 566 l 154 566 l 154 617 m 103 617 l 154 617 l 154 566 l 103 566 l 103 617 m 206 566 l 257 566 l 257 514 l 206 514 l 206 566 m 154 566 l 206 566 l 206 514 l 154 514 l 154 566 m 103 566 l 154 566 l 154 514 l 103 514 l 103 566 m 51 566 l 103 566 l 103 514 l 51 514 l 51 566 m 51 514 l 103 514 l 103 463 l 51 463 l 51 514 m 51 463 l 103 463 l 103 412 l 51 412 l 51 463 m 103 463 l 154 463 l 154 412 l 103 412 l 103 463 m 103 514 l 154 514 l 154 463 l 103 463 l 103 514 m 154 514 l 206 514 l 206 463 l 154 463 l 154 514 m 154 463 l 206 463 l 206 412 l 154 412 l 154 463 m 154 412 l 206 412 l 206 360 l 154 360 l 154 412 m 103 412 l 154 412 l 154 360 l 103 360 l 103 412 m 51 412 l 103 412 l 103 360 l 51 360 l 51 412 m 51 360 l 103 360 l 103 309 l 51 309 l 51 360 m 103 360 l 154 360 l 154 309 l 103 309 l 103 360 m 154 360 l 206 360 l 206 309 l 154 309 l 154 360 m 206 360 l 257 360 l 257 309 l 206 309 l 206 360 m 257 360 l 309 360 l 309 309 l 257 309 l 257 360 m 309 360 l 360 360 l 360 309 l 309 309 l 309 360 m 360 360 l 412 360 l 412 309 l 360 309 l 360 360 m 412 412 l 463 412 l 463 360 l 412 360 l 412 412 m 463 412 l 514 412 l 514 360 l 463 360 l 463 412 m 463 360 l 514 360 l 514 309 l 463 309 l 463 360 m 412 360 l 463 360 l 463 309 l 412 309 l 412 360 m 514 360 l 566 360 l 566 309 l 514 309 l 514 360 m 514 412 l 566 412 l 566 360 l 514 360 l 514 412 m 514 463 l 566 463 l 566 412 l 514 412 l 514 463 m 514 514 l 566 514 l 566 463 l 514 463 l 514 514 m 514 566 l 566 566 l 566 514 l 514 514 l 514 566 m 463 566 l 514 566 l 514 514 l 463 514 l 463 566 m 412 566 l 463 566 l 463 514 l 412 514 l 412 566 m 360 566 l 412 566 l 412 514 l 360 514 l 360 566 m 463 514 l 514 514 l 514 463 l 463 463 l 463 514 m 463 463 l 514 463 l 514 412 l 463 412 l 463 463 m 412 463 l 463 463 l 463 412 l 412 412 l 412 463 m 412 514 l 463 514 l 463 463 l 412 463 l 412 514 m 51 309 l 103 309 l 103 257 l 51 257 l 51 309 m 103 309 l 154 309 l 154 257 l 103 257 l 103 309 m 154 309 l 206 309 l 206 257 l 154 257 l 154 309 m 206 309 l 257 309 l 257 257 l 206 257 l 206 309 m 257 309 l 309 309 l 309 257 l 257 257 l 257 309 m 309 309 l 360 309 l 360 257 l 309 257 l 309 309 m 360 309 l 412 309 l 412 257 l 360 257 l 360 309 m 412 309 l 463 309 l 463 257 l 412 257 l 412 309 m 463 309 l 514 309 l 514 257 l 463 257 l 463 309 m 514 309 l 566 309 l 566 257 l 514 257 l 514 309 m 514 257 l 566 257 l 566 206 l 514 206 l 514 257 m 463 257 l 514 257 l 514 206 l 463 206 l 463 257 m 412 257 l 463 257 l 463 206 l 412 206 l 412 257 m 360 257 l 412 257 l 412 206 l 360 206 l 360 257 m 309 257 l 360 257 l 360 206 l 309 206 l 309 257 m 257 257 l 309 257 l 309 206 l 257 206 l 257 257 m 206 257 l 257 257 l 257 206 l 206 206 l 206 257 m 103 257 l 154 257 l 154 206 l 103 206 l 103 257 m 51 257 l 103 257 l 103 206 l 51 206 l 51 257 m 154 257 l 206 257 l 206 206 l 154 206 l 154 257 m 154 206 l 206 206 l 206 154 l 154 154 l 154 206 m 154 154 l 206 154 l 206 103 l 154 103 l 154 154 m 154 103 l 206 103 l 206 51 l 154 51 l 154 103 m 154 51 l 206 51 l 206 0 l 154 0 l 154 51 m 103 51 l 154 51 l 154 0 l 103 0 l 103 51 m 51 51 l 103 51 l 103 0 l 51 0 l 51 51 m 51 103 l 103 103 l 103 51 l 51 51 l 51 103 m 51 154 l 103 154 l 103 103 l 51 103 l 51 154 m 51 206 l 103 206 l 103 154 l 51 154 l 51 206 m 103 206 l 154 206 l 154 154 l 103 154 l 103 206 m 103 154 l 154 154 l 154 103 l 103 103 l 103 154 m 103 103 l 154 103 l 154 51 l 103 51 l 103 103 m 412 206 l 463 206 l 463 154 l 412 154 l 412 206 m 412 154 l 463 154 l 463 103 l 412 103 l 412 154 m 412 103 l 463 103 l 463 51 l 412 51 l 412 103 m 412 51 l 463 51 l 463 0 l 412 0 l 412 51 m 463 51 l 514 51 l 514 0 l 463 0 l 463 51 m 514 51 l 566 51 l 566 0 l 514 0 l 514 51 m 514 103 l 566 103 l 566 51 l 514 51 l 514 103 m 514 154 l 566 154 l 566 103 l 514 103 l 514 154 m 514 206 l 566 206 l 566 154 l 514 154 l 514 206 m 463 206 l 514 206 l 514 154 l 463 154 l 463 206 m 463 154 l 514 154 l 514 103 l 463 103 l 463 154 m 463 103 l 514 103 l 514 51 l 463 51 l 463 103 m 360 1029 l 412 1029 l 412 977 l 360 977 l 360 1029 m 412 1029 l 463 1029 l 463 977 l 412 977 l 412 1029 m 412 977 l 463 977 l 463 926 l 412 926 l 412 977 m 360 977 l 412 977 l 412 926 l 360 926 l 360 977 m 154 1029 l 206 1029 l 206 977 l 154 977 l 154 1029 m 206 1029 l 257 1029 l 257 977 l 206 977 l 206 1029 m 206 977 l 257 977 l 257 926 l 206 926 l 206 977 m 154 977 l 206 977 l 206 926 l 154 926 l 154 977 m 206 926 l 257 926 l 257 874 l 206 874 l 206 926 m 154 926 l 206 926 l 206 874 l 154 874 l 154 926 m 103 926 l 154 926 l 154 874 l 103 874 l 103 926 m 103 977 l 154 977 l 154 926 l 103 926 l 103 977 m 103 1029 l 154 1029 l 154 977 l 103 977 l 103 1029 m 360 926 l 412 926 l 412 874 l 360 874 l 360 926 m 412 926 l 463 926 l 463 874 l 412 874 l 412 926 m 463 926 l 514 926 l 514 874 l 463 874 l 463 926 m 463 977 l 514 977 l 514 926 l 463 926 l 463 977 m 463 1029 l 514 1029 l 514 977 l 463 977 l 463 1029 z "},"":{"ha":617,"x_min":51,"x_max":566,"o":"m 257 772 l 309 772 l 309 720 l 257 720 l 257 772 m 309 772 l 360 772 l 360 720 l 309 720 l 309 772 m 309 720 l 360 720 l 360 669 l 309 669 l 309 720 m 360 720 l 412 720 l 412 669 l 360 669 l 360 720 m 257 720 l 309 720 l 309 669 l 257 669 l 257 720 m 206 720 l 257 720 l 257 669 l 206 669 l 206 720 m 206 669 l 257 669 l 257 617 l 206 617 l 206 669 m 154 669 l 206 669 l 206 617 l 154 617 l 154 669 m 257 669 l 309 669 l 309 617 l 257 617 l 257 669 m 309 669 l 360 669 l 360 617 l 309 617 l 309 669 m 360 669 l 412 669 l 412 617 l 360 617 l 360 669 m 412 669 l 463 669 l 463 617 l 412 617 l 412 669 m 412 617 l 463 617 l 463 566 l 412 566 l 412 617 m 463 617 l 514 617 l 514 566 l 463 566 l 463 617 m 360 617 l 412 617 l 412 566 l 360 566 l 360 617 m 309 617 l 360 617 l 360 566 l 309 566 l 309 617 m 257 617 l 309 617 l 309 566 l 257 566 l 257 617 m 206 617 l 257 617 l 257 566 l 206 566 l 206 617 m 154 617 l 206 617 l 206 566 l 154 566 l 154 617 m 103 617 l 154 617 l 154 566 l 103 566 l 103 617 m 206 566 l 257 566 l 257 514 l 206 514 l 206 566 m 154 566 l 206 566 l 206 514 l 154 514 l 154 566 m 103 566 l 154 566 l 154 514 l 103 514 l 103 566 m 51 566 l 103 566 l 103 514 l 51 514 l 51 566 m 51 514 l 103 514 l 103 463 l 51 463 l 51 514 m 51 463 l 103 463 l 103 412 l 51 412 l 51 463 m 103 463 l 154 463 l 154 412 l 103 412 l 103 463 m 103 514 l 154 514 l 154 463 l 103 463 l 103 514 m 154 514 l 206 514 l 206 463 l 154 463 l 154 514 m 154 463 l 206 463 l 206 412 l 154 412 l 154 463 m 154 412 l 206 412 l 206 360 l 154 360 l 154 412 m 103 412 l 154 412 l 154 360 l 103 360 l 103 412 m 51 412 l 103 412 l 103 360 l 51 360 l 51 412 m 51 360 l 103 360 l 103 309 l 51 309 l 51 360 m 103 360 l 154 360 l 154 309 l 103 309 l 103 360 m 154 360 l 206 360 l 206 309 l 154 309 l 154 360 m 206 360 l 257 360 l 257 309 l 206 309 l 206 360 m 257 360 l 309 360 l 309 309 l 257 309 l 257 360 m 309 360 l 360 360 l 360 309 l 309 309 l 309 360 m 360 360 l 412 360 l 412 309 l 360 309 l 360 360 m 412 412 l 463 412 l 463 360 l 412 360 l 412 412 m 463 412 l 514 412 l 514 360 l 463 360 l 463 412 m 463 360 l 514 360 l 514 309 l 463 309 l 463 360 m 412 360 l 463 360 l 463 309 l 412 309 l 412 360 m 514 360 l 566 360 l 566 309 l 514 309 l 514 360 m 514 412 l 566 412 l 566 360 l 514 360 l 514 412 m 514 463 l 566 463 l 566 412 l 514 412 l 514 463 m 514 514 l 566 514 l 566 463 l 514 463 l 514 514 m 514 566 l 566 566 l 566 514 l 514 514 l 514 566 m 463 566 l 514 566 l 514 514 l 463 514 l 463 566 m 412 566 l 463 566 l 463 514 l 412 514 l 412 566 m 360 566 l 412 566 l 412 514 l 360 514 l 360 566 m 463 514 l 514 514 l 514 463 l 463 463 l 463 514 m 463 463 l 514 463 l 514 412 l 463 412 l 463 463 m 412 463 l 463 463 l 463 412 l 412 412 l 412 463 m 412 514 l 463 514 l 463 463 l 412 463 l 412 514 m 51 309 l 103 309 l 103 257 l 51 257 l 51 309 m 103 309 l 154 309 l 154 257 l 103 257 l 103 309 m 154 309 l 206 309 l 206 257 l 154 257 l 154 309 m 206 309 l 257 309 l 257 257 l 206 257 l 206 309 m 257 309 l 309 309 l 309 257 l 257 257 l 257 309 m 309 309 l 360 309 l 360 257 l 309 257 l 309 309 m 360 309 l 412 309 l 412 257 l 360 257 l 360 309 m 412 309 l 463 309 l 463 257 l 412 257 l 412 309 m 463 309 l 514 309 l 514 257 l 463 257 l 463 309 m 514 309 l 566 309 l 566 257 l 514 257 l 514 309 m 514 257 l 566 257 l 566 206 l 514 206 l 514 257 m 463 257 l 514 257 l 514 206 l 463 206 l 463 257 m 412 257 l 463 257 l 463 206 l 412 206 l 412 257 m 360 257 l 412 257 l 412 206 l 360 206 l 360 257 m 309 257 l 360 257 l 360 206 l 309 206 l 309 257 m 257 257 l 309 257 l 309 206 l 257 206 l 257 257 m 206 257 l 257 257 l 257 206 l 206 206 l 206 257 m 103 257 l 154 257 l 154 206 l 103 206 l 103 257 m 51 257 l 103 257 l 103 206 l 51 206 l 51 257 m 154 257 l 206 257 l 206 206 l 154 206 l 154 257 m 154 206 l 206 206 l 206 154 l 154 154 l 154 206 m 154 154 l 206 154 l 206 103 l 154 103 l 154 154 m 154 103 l 206 103 l 206 51 l 154 51 l 154 103 m 154 51 l 206 51 l 206 0 l 154 0 l 154 51 m 103 51 l 154 51 l 154 0 l 103 0 l 103 51 m 51 51 l 103 51 l 103 0 l 51 0 l 51 51 m 51 103 l 103 103 l 103 51 l 51 51 l 51 103 m 51 154 l 103 154 l 103 103 l 51 103 l 51 154 m 51 206 l 103 206 l 103 154 l 51 154 l 51 206 m 103 206 l 154 206 l 154 154 l 103 154 l 103 206 m 103 154 l 154 154 l 154 103 l 103 103 l 103 154 m 103 103 l 154 103 l 154 51 l 103 51 l 103 103 m 412 206 l 463 206 l 463 154 l 412 154 l 412 206 m 412 154 l 463 154 l 463 103 l 412 103 l 412 154 m 412 103 l 463 103 l 463 51 l 412 51 l 412 103 m 412 51 l 463 51 l 463 0 l 412 0 l 412 51 m 463 51 l 514 51 l 514 0 l 463 0 l 463 51 m 514 51 l 566 51 l 566 0 l 514 0 l 514 51 m 514 103 l 566 103 l 566 51 l 514 51 l 514 103 m 514 154 l 566 154 l 566 103 l 514 103 l 514 154 m 514 206 l 566 206 l 566 154 l 514 154 l 514 206 m 463 206 l 514 206 l 514 154 l 463 154 l 463 206 m 463 154 l 514 154 l 514 103 l 463 103 l 463 154 m 463 103 l 514 103 l 514 51 l 463 51 l 463 103 m 257 1029 l 309 1029 l 309 977 l 257 977 l 257 1029 m 309 977 l 360 977 l 360 926 l 309 926 l 309 977 m 257 977 l 309 977 l 309 926 l 257 926 l 257 977 m 206 1029 l 257 1029 l 257 977 l 206 977 l 206 1029 m 309 926 l 360 926 l 360 874 l 309 874 l 309 926 m 360 926 l 412 926 l 412 874 l 360 874 l 360 926 m 360 874 l 412 874 l 412 823 l 360 823 l 360 874 m 309 874 l 360 874 l 360 823 l 309 823 l 309 874 m 257 926 l 309 926 l 309 874 l 257 874 l 257 926 m 206 977 l 257 977 l 257 926 l 206 926 l 206 977 z "},"":{"ha":617,"x_min":51,"x_max":566,"o":"m 257 772 l 309 772 l 309 720 l 257 720 l 257 772 m 309 772 l 360 772 l 360 720 l 309 720 l 309 772 m 309 720 l 360 720 l 360 669 l 309 669 l 309 720 m 360 720 l 412 720 l 412 669 l 360 669 l 360 720 m 257 720 l 309 720 l 309 669 l 257 669 l 257 720 m 206 720 l 257 720 l 257 669 l 206 669 l 206 720 m 206 669 l 257 669 l 257 617 l 206 617 l 206 669 m 154 669 l 206 669 l 206 617 l 154 617 l 154 669 m 257 669 l 309 669 l 309 617 l 257 617 l 257 669 m 309 669 l 360 669 l 360 617 l 309 617 l 309 669 m 360 669 l 412 669 l 412 617 l 360 617 l 360 669 m 412 669 l 463 669 l 463 617 l 412 617 l 412 669 m 412 617 l 463 617 l 463 566 l 412 566 l 412 617 m 463 617 l 514 617 l 514 566 l 463 566 l 463 617 m 360 617 l 412 617 l 412 566 l 360 566 l 360 617 m 309 617 l 360 617 l 360 566 l 309 566 l 309 617 m 257 617 l 309 617 l 309 566 l 257 566 l 257 617 m 206 617 l 257 617 l 257 566 l 206 566 l 206 617 m 154 617 l 206 617 l 206 566 l 154 566 l 154 617 m 103 617 l 154 617 l 154 566 l 103 566 l 103 617 m 206 566 l 257 566 l 257 514 l 206 514 l 206 566 m 154 566 l 206 566 l 206 514 l 154 514 l 154 566 m 103 566 l 154 566 l 154 514 l 103 514 l 103 566 m 51 566 l 103 566 l 103 514 l 51 514 l 51 566 m 51 514 l 103 514 l 103 463 l 51 463 l 51 514 m 51 463 l 103 463 l 103 412 l 51 412 l 51 463 m 103 463 l 154 463 l 154 412 l 103 412 l 103 463 m 103 514 l 154 514 l 154 463 l 103 463 l 103 514 m 154 514 l 206 514 l 206 463 l 154 463 l 154 514 m 154 463 l 206 463 l 206 412 l 154 412 l 154 463 m 154 412 l 206 412 l 206 360 l 154 360 l 154 412 m 103 412 l 154 412 l 154 360 l 103 360 l 103 412 m 51 412 l 103 412 l 103 360 l 51 360 l 51 412 m 51 360 l 103 360 l 103 309 l 51 309 l 51 360 m 103 360 l 154 360 l 154 309 l 103 309 l 103 360 m 154 360 l 206 360 l 206 309 l 154 309 l 154 360 m 206 360 l 257 360 l 257 309 l 206 309 l 206 360 m 257 360 l 309 360 l 309 309 l 257 309 l 257 360 m 309 360 l 360 360 l 360 309 l 309 309 l 309 360 m 360 360 l 412 360 l 412 309 l 360 309 l 360 360 m 412 412 l 463 412 l 463 360 l 412 360 l 412 412 m 463 412 l 514 412 l 514 360 l 463 360 l 463 412 m 463 360 l 514 360 l 514 309 l 463 309 l 463 360 m 412 360 l 463 360 l 463 309 l 412 309 l 412 360 m 514 360 l 566 360 l 566 309 l 514 309 l 514 360 m 514 412 l 566 412 l 566 360 l 514 360 l 514 412 m 514 463 l 566 463 l 566 412 l 514 412 l 514 463 m 514 514 l 566 514 l 566 463 l 514 463 l 514 514 m 514 566 l 566 566 l 566 514 l 514 514 l 514 566 m 463 566 l 514 566 l 514 514 l 463 514 l 463 566 m 412 566 l 463 566 l 463 514 l 412 514 l 412 566 m 360 566 l 412 566 l 412 514 l 360 514 l 360 566 m 463 514 l 514 514 l 514 463 l 463 463 l 463 514 m 463 463 l 514 463 l 514 412 l 463 412 l 463 463 m 412 463 l 463 463 l 463 412 l 412 412 l 412 463 m 412 514 l 463 514 l 463 463 l 412 463 l 412 514 m 51 309 l 103 309 l 103 257 l 51 257 l 51 309 m 103 309 l 154 309 l 154 257 l 103 257 l 103 309 m 154 309 l 206 309 l 206 257 l 154 257 l 154 309 m 206 309 l 257 309 l 257 257 l 206 257 l 206 309 m 257 309 l 309 309 l 309 257 l 257 257 l 257 309 m 309 309 l 360 309 l 360 257 l 309 257 l 309 309 m 360 309 l 412 309 l 412 257 l 360 257 l 360 309 m 412 309 l 463 309 l 463 257 l 412 257 l 412 309 m 463 309 l 514 309 l 514 257 l 463 257 l 463 309 m 514 309 l 566 309 l 566 257 l 514 257 l 514 309 m 514 257 l 566 257 l 566 206 l 514 206 l 514 257 m 463 257 l 514 257 l 514 206 l 463 206 l 463 257 m 412 257 l 463 257 l 463 206 l 412 206 l 412 257 m 360 257 l 412 257 l 412 206 l 360 206 l 360 257 m 309 257 l 360 257 l 360 206 l 309 206 l 309 257 m 257 257 l 309 257 l 309 206 l 257 206 l 257 257 m 206 257 l 257 257 l 257 206 l 206 206 l 206 257 m 103 257 l 154 257 l 154 206 l 103 206 l 103 257 m 51 257 l 103 257 l 103 206 l 51 206 l 51 257 m 154 257 l 206 257 l 206 206 l 154 206 l 154 257 m 154 206 l 206 206 l 206 154 l 154 154 l 154 206 m 154 154 l 206 154 l 206 103 l 154 103 l 154 154 m 154 103 l 206 103 l 206 51 l 154 51 l 154 103 m 154 51 l 206 51 l 206 0 l 154 0 l 154 51 m 103 51 l 154 51 l 154 0 l 103 0 l 103 51 m 51 51 l 103 51 l 103 0 l 51 0 l 51 51 m 51 103 l 103 103 l 103 51 l 51 51 l 51 103 m 51 154 l 103 154 l 103 103 l 51 103 l 51 154 m 51 206 l 103 206 l 103 154 l 51 154 l 51 206 m 103 206 l 154 206 l 154 154 l 103 154 l 103 206 m 103 154 l 154 154 l 154 103 l 103 103 l 103 154 m 103 103 l 154 103 l 154 51 l 103 51 l 103 103 m 412 206 l 463 206 l 463 154 l 412 154 l 412 206 m 412 154 l 463 154 l 463 103 l 412 103 l 412 154 m 412 103 l 463 103 l 463 51 l 412 51 l 412 103 m 412 51 l 463 51 l 463 0 l 412 0 l 412 51 m 463 51 l 514 51 l 514 0 l 463 0 l 463 51 m 514 51 l 566 51 l 566 0 l 514 0 l 514 51 m 514 103 l 566 103 l 566 51 l 514 51 l 514 103 m 514 154 l 566 154 l 566 103 l 514 103 l 514 154 m 514 206 l 566 206 l 566 154 l 514 154 l 514 206 m 463 206 l 514 206 l 514 154 l 463 154 l 463 206 m 463 154 l 514 154 l 514 103 l 463 103 l 463 154 m 463 103 l 514 103 l 514 51 l 463 51 l 463 103 m 154 926 l 206 926 l 206 874 l 154 874 l 154 926 m 206 926 l 257 926 l 257 874 l 206 874 l 206 926 m 257 926 l 309 926 l 309 874 l 257 874 l 257 926 m 309 926 l 360 926 l 360 874 l 309 874 l 309 926 m 360 926 l 412 926 l 412 874 l 360 874 l 360 926 m 412 926 l 463 926 l 463 874 l 412 874 l 412 926 m 154 977 l 206 977 l 206 926 l 154 926 l 154 977 m 206 977 l 257 977 l 257 926 l 206 926 l 206 977 m 257 977 l 309 977 l 309 926 l 257 926 l 257 977 m 309 977 l 360 977 l 360 926 l 309 926 l 309 977 m 360 977 l 412 977 l 412 926 l 360 926 l 360 977 m 412 977 l 463 977 l 463 926 l 412 926 l 412 977 z "},"":{"ha":617,"x_min":51,"x_max":566,"o":"m 257 772 l 309 772 l 309 720 l 257 720 l 257 772 m 309 772 l 360 772 l 360 720 l 309 720 l 309 772 m 309 720 l 360 720 l 360 669 l 309 669 l 309 720 m 360 720 l 412 720 l 412 669 l 360 669 l 360 720 m 257 720 l 309 720 l 309 669 l 257 669 l 257 720 m 206 720 l 257 720 l 257 669 l 206 669 l 206 720 m 206 669 l 257 669 l 257 617 l 206 617 l 206 669 m 154 669 l 206 669 l 206 617 l 154 617 l 154 669 m 257 669 l 309 669 l 309 617 l 257 617 l 257 669 m 309 669 l 360 669 l 360 617 l 309 617 l 309 669 m 360 669 l 412 669 l 412 617 l 360 617 l 360 669 m 412 669 l 463 669 l 463 617 l 412 617 l 412 669 m 412 617 l 463 617 l 463 566 l 412 566 l 412 617 m 463 617 l 514 617 l 514 566 l 463 566 l 463 617 m 360 617 l 412 617 l 412 566 l 360 566 l 360 617 m 309 617 l 360 617 l 360 566 l 309 566 l 309 617 m 257 617 l 309 617 l 309 566 l 257 566 l 257 617 m 206 617 l 257 617 l 257 566 l 206 566 l 206 617 m 154 617 l 206 617 l 206 566 l 154 566 l 154 617 m 103 617 l 154 617 l 154 566 l 103 566 l 103 617 m 206 566 l 257 566 l 257 514 l 206 514 l 206 566 m 154 566 l 206 566 l 206 514 l 154 514 l 154 566 m 103 566 l 154 566 l 154 514 l 103 514 l 103 566 m 51 566 l 103 566 l 103 514 l 51 514 l 51 566 m 51 514 l 103 514 l 103 463 l 51 463 l 51 514 m 51 463 l 103 463 l 103 412 l 51 412 l 51 463 m 103 463 l 154 463 l 154 412 l 103 412 l 103 463 m 103 514 l 154 514 l 154 463 l 103 463 l 103 514 m 154 514 l 206 514 l 206 463 l 154 463 l 154 514 m 154 463 l 206 463 l 206 412 l 154 412 l 154 463 m 154 412 l 206 412 l 206 360 l 154 360 l 154 412 m 103 412 l 154 412 l 154 360 l 103 360 l 103 412 m 51 412 l 103 412 l 103 360 l 51 360 l 51 412 m 51 360 l 103 360 l 103 309 l 51 309 l 51 360 m 103 360 l 154 360 l 154 309 l 103 309 l 103 360 m 154 360 l 206 360 l 206 309 l 154 309 l 154 360 m 206 360 l 257 360 l 257 309 l 206 309 l 206 360 m 257 360 l 309 360 l 309 309 l 257 309 l 257 360 m 309 360 l 360 360 l 360 309 l 309 309 l 309 360 m 360 360 l 412 360 l 412 309 l 360 309 l 360 360 m 412 412 l 463 412 l 463 360 l 412 360 l 412 412 m 463 412 l 514 412 l 514 360 l 463 360 l 463 412 m 463 360 l 514 360 l 514 309 l 463 309 l 463 360 m 412 360 l 463 360 l 463 309 l 412 309 l 412 360 m 514 360 l 566 360 l 566 309 l 514 309 l 514 360 m 514 412 l 566 412 l 566 360 l 514 360 l 514 412 m 514 463 l 566 463 l 566 412 l 514 412 l 514 463 m 514 514 l 566 514 l 566 463 l 514 463 l 514 514 m 514 566 l 566 566 l 566 514 l 514 514 l 514 566 m 463 566 l 514 566 l 514 514 l 463 514 l 463 566 m 412 566 l 463 566 l 463 514 l 412 514 l 412 566 m 360 566 l 412 566 l 412 514 l 360 514 l 360 566 m 463 514 l 514 514 l 514 463 l 463 463 l 463 514 m 463 463 l 514 463 l 514 412 l 463 412 l 463 463 m 412 463 l 463 463 l 463 412 l 412 412 l 412 463 m 412 514 l 463 514 l 463 463 l 412 463 l 412 514 m 51 309 l 103 309 l 103 257 l 51 257 l 51 309 m 103 309 l 154 309 l 154 257 l 103 257 l 103 309 m 154 309 l 206 309 l 206 257 l 154 257 l 154 309 m 206 309 l 257 309 l 257 257 l 206 257 l 206 309 m 257 309 l 309 309 l 309 257 l 257 257 l 257 309 m 309 309 l 360 309 l 360 257 l 309 257 l 309 309 m 360 309 l 412 309 l 412 257 l 360 257 l 360 309 m 412 309 l 463 309 l 463 257 l 412 257 l 412 309 m 463 309 l 514 309 l 514 257 l 463 257 l 463 309 m 514 309 l 566 309 l 566 257 l 514 257 l 514 309 m 514 257 l 566 257 l 566 206 l 514 206 l 514 257 m 463 257 l 514 257 l 514 206 l 463 206 l 463 257 m 412 257 l 463 257 l 463 206 l 412 206 l 412 257 m 360 257 l 412 257 l 412 206 l 360 206 l 360 257 m 309 257 l 360 257 l 360 206 l 309 206 l 309 257 m 257 257 l 309 257 l 309 206 l 257 206 l 257 257 m 206 257 l 257 257 l 257 206 l 206 206 l 206 257 m 103 257 l 154 257 l 154 206 l 103 206 l 103 257 m 51 257 l 103 257 l 103 206 l 51 206 l 51 257 m 154 257 l 206 257 l 206 206 l 154 206 l 154 257 m 154 206 l 206 206 l 206 154 l 154 154 l 154 206 m 154 154 l 206 154 l 206 103 l 154 103 l 154 154 m 154 103 l 206 103 l 206 51 l 154 51 l 154 103 m 154 51 l 206 51 l 206 0 l 154 0 l 154 51 m 103 51 l 154 51 l 154 0 l 103 0 l 103 51 m 51 51 l 103 51 l 103 0 l 51 0 l 51 51 m 51 103 l 103 103 l 103 51 l 51 51 l 51 103 m 51 154 l 103 154 l 103 103 l 51 103 l 51 154 m 51 206 l 103 206 l 103 154 l 51 154 l 51 206 m 103 206 l 154 206 l 154 154 l 103 154 l 103 206 m 103 154 l 154 154 l 154 103 l 103 103 l 103 154 m 103 103 l 154 103 l 154 51 l 103 51 l 103 103 m 412 206 l 463 206 l 463 154 l 412 154 l 412 206 m 412 154 l 463 154 l 463 103 l 412 103 l 412 154 m 412 103 l 463 103 l 463 51 l 412 51 l 412 103 m 412 51 l 463 51 l 463 0 l 412 0 l 412 51 m 463 51 l 514 51 l 514 0 l 463 0 l 463 51 m 514 51 l 566 51 l 566 0 l 514 0 l 514 51 m 514 103 l 566 103 l 566 51 l 514 51 l 514 103 m 514 154 l 566 154 l 566 103 l 514 103 l 514 154 m 514 206 l 566 206 l 566 154 l 514 154 l 514 206 m 463 206 l 514 206 l 514 154 l 463 154 l 463 206 m 463 154 l 514 154 l 514 103 l 463 103 l 463 154 m 463 103 l 514 103 l 514 51 l 463 51 l 463 103 m 514 0 l 514 -51 l 463 -51 l 463 0 l 514 0 m 463 -51 l 463 -103 l 412 -103 l 412 -51 l 463 -51 m 463 0 l 463 -51 l 412 -51 l 412 0 l 463 0 m 412 -51 l 412 -103 l 360 -103 l 360 -51 l 412 -51 m 412 -103 l 412 -154 l 360 -154 l 360 -103 l 412 -103 m 412 -154 l 412 -206 l 360 -206 l 360 -154 l 412 -154 m 463 -154 l 463 -206 l 412 -206 l 412 -154 l 463 -154 m 514 -206 l 514 -257 l 463 -257 l 463 -206 l 514 -206 m 463 -206 l 463 -257 l 412 -257 l 412 -206 l 463 -206 m 412 -206 l 412 -257 l 360 -257 l 360 -206 l 412 -206 m 566 -206 l 566 -257 l 514 -257 l 514 -206 l 566 -206 m 514 -154 l 514 -206 l 463 -206 l 463 -154 l 514 -154 m 566 -154 l 566 -206 l 514 -206 l 514 -154 l 566 -154 m 360 -154 l 360 -206 l 309 -206 l 309 -154 l 360 -154 m 360 -103 l 360 -154 l 309 -154 l 309 -103 l 360 -103 z "},"":{"ha":617,"x_min":51,"x_max":566,"o":"m 257 772 l 309 772 l 309 720 l 257 720 l 257 772 m 309 772 l 360 772 l 360 720 l 309 720 l 309 772 m 309 720 l 360 720 l 360 669 l 309 669 l 309 720 m 360 720 l 412 720 l 412 669 l 360 669 l 360 720 m 257 720 l 309 720 l 309 669 l 257 669 l 257 720 m 206 720 l 257 720 l 257 669 l 206 669 l 206 720 m 206 669 l 257 669 l 257 617 l 206 617 l 206 669 m 154 669 l 206 669 l 206 617 l 154 617 l 154 669 m 257 669 l 309 669 l 309 617 l 257 617 l 257 669 m 309 669 l 360 669 l 360 617 l 309 617 l 309 669 m 360 669 l 412 669 l 412 617 l 360 617 l 360 669 m 412 669 l 463 669 l 463 617 l 412 617 l 412 669 m 412 617 l 463 617 l 463 566 l 412 566 l 412 617 m 463 617 l 514 617 l 514 566 l 463 566 l 463 617 m 360 617 l 412 617 l 412 566 l 360 566 l 360 617 m 309 617 l 360 617 l 360 566 l 309 566 l 309 617 m 257 617 l 309 617 l 309 566 l 257 566 l 257 617 m 206 617 l 257 617 l 257 566 l 206 566 l 206 617 m 154 617 l 206 617 l 206 566 l 154 566 l 154 617 m 103 617 l 154 617 l 154 566 l 103 566 l 103 617 m 206 566 l 257 566 l 257 514 l 206 514 l 206 566 m 154 566 l 206 566 l 206 514 l 154 514 l 154 566 m 103 566 l 154 566 l 154 514 l 103 514 l 103 566 m 51 566 l 103 566 l 103 514 l 51 514 l 51 566 m 51 514 l 103 514 l 103 463 l 51 463 l 51 514 m 51 463 l 103 463 l 103 412 l 51 412 l 51 463 m 103 463 l 154 463 l 154 412 l 103 412 l 103 463 m 103 514 l 154 514 l 154 463 l 103 463 l 103 514 m 154 514 l 206 514 l 206 463 l 154 463 l 154 514 m 154 463 l 206 463 l 206 412 l 154 412 l 154 463 m 154 412 l 206 412 l 206 360 l 154 360 l 154 412 m 103 412 l 154 412 l 154 360 l 103 360 l 103 412 m 51 412 l 103 412 l 103 360 l 51 360 l 51 412 m 51 360 l 103 360 l 103 309 l 51 309 l 51 360 m 103 360 l 154 360 l 154 309 l 103 309 l 103 360 m 154 360 l 206 360 l 206 309 l 154 309 l 154 360 m 206 360 l 257 360 l 257 309 l 206 309 l 206 360 m 257 360 l 309 360 l 309 309 l 257 309 l 257 360 m 309 360 l 360 360 l 360 309 l 309 309 l 309 360 m 360 360 l 412 360 l 412 309 l 360 309 l 360 360 m 412 412 l 463 412 l 463 360 l 412 360 l 412 412 m 463 412 l 514 412 l 514 360 l 463 360 l 463 412 m 463 360 l 514 360 l 514 309 l 463 309 l 463 360 m 412 360 l 463 360 l 463 309 l 412 309 l 412 360 m 514 360 l 566 360 l 566 309 l 514 309 l 514 360 m 514 412 l 566 412 l 566 360 l 514 360 l 514 412 m 514 463 l 566 463 l 566 412 l 514 412 l 514 463 m 514 514 l 566 514 l 566 463 l 514 463 l 514 514 m 514 566 l 566 566 l 566 514 l 514 514 l 514 566 m 463 566 l 514 566 l 514 514 l 463 514 l 463 566 m 412 566 l 463 566 l 463 514 l 412 514 l 412 566 m 360 566 l 412 566 l 412 514 l 360 514 l 360 566 m 463 514 l 514 514 l 514 463 l 463 463 l 463 514 m 463 463 l 514 463 l 514 412 l 463 412 l 463 463 m 412 463 l 463 463 l 463 412 l 412 412 l 412 463 m 412 514 l 463 514 l 463 463 l 412 463 l 412 514 m 51 309 l 103 309 l 103 257 l 51 257 l 51 309 m 103 309 l 154 309 l 154 257 l 103 257 l 103 309 m 154 309 l 206 309 l 206 257 l 154 257 l 154 309 m 206 309 l 257 309 l 257 257 l 206 257 l 206 309 m 257 309 l 309 309 l 309 257 l 257 257 l 257 309 m 309 309 l 360 309 l 360 257 l 309 257 l 309 309 m 360 309 l 412 309 l 412 257 l 360 257 l 360 309 m 412 309 l 463 309 l 463 257 l 412 257 l 412 309 m 463 309 l 514 309 l 514 257 l 463 257 l 463 309 m 514 309 l 566 309 l 566 257 l 514 257 l 514 309 m 514 257 l 566 257 l 566 206 l 514 206 l 514 257 m 463 257 l 514 257 l 514 206 l 463 206 l 463 257 m 412 257 l 463 257 l 463 206 l 412 206 l 412 257 m 360 257 l 412 257 l 412 206 l 360 206 l 360 257 m 309 257 l 360 257 l 360 206 l 309 206 l 309 257 m 257 257 l 309 257 l 309 206 l 257 206 l 257 257 m 206 257 l 257 257 l 257 206 l 206 206 l 206 257 m 103 257 l 154 257 l 154 206 l 103 206 l 103 257 m 51 257 l 103 257 l 103 206 l 51 206 l 51 257 m 154 257 l 206 257 l 206 206 l 154 206 l 154 257 m 154 206 l 206 206 l 206 154 l 154 154 l 154 206 m 154 154 l 206 154 l 206 103 l 154 103 l 154 154 m 154 103 l 206 103 l 206 51 l 154 51 l 154 103 m 154 51 l 206 51 l 206 0 l 154 0 l 154 51 m 103 51 l 154 51 l 154 0 l 103 0 l 103 51 m 51 51 l 103 51 l 103 0 l 51 0 l 51 51 m 51 103 l 103 103 l 103 51 l 51 51 l 51 103 m 51 154 l 103 154 l 103 103 l 51 103 l 51 154 m 51 206 l 103 206 l 103 154 l 51 154 l 51 206 m 103 206 l 154 206 l 154 154 l 103 154 l 103 206 m 103 154 l 154 154 l 154 103 l 103 103 l 103 154 m 103 103 l 154 103 l 154 51 l 103 51 l 103 103 m 412 206 l 463 206 l 463 154 l 412 154 l 412 206 m 412 154 l 463 154 l 463 103 l 412 103 l 412 154 m 412 103 l 463 103 l 463 51 l 412 51 l 412 103 m 412 51 l 463 51 l 463 0 l 412 0 l 412 51 m 463 51 l 514 51 l 514 0 l 463 0 l 463 51 m 514 51 l 566 51 l 566 0 l 514 0 l 514 51 m 514 103 l 566 103 l 566 51 l 514 51 l 514 103 m 514 154 l 566 154 l 566 103 l 514 103 l 514 154 m 514 206 l 566 206 l 566 154 l 514 154 l 514 206 m 463 206 l 514 206 l 514 154 l 463 154 l 463 206 m 463 154 l 514 154 l 514 103 l 463 103 l 463 154 m 463 103 l 514 103 l 514 51 l 463 51 l 463 103 m 257 874 l 309 874 l 309 823 l 257 823 l 257 874 m 309 874 l 360 874 l 360 823 l 309 823 l 309 874 m 360 926 l 412 926 l 412 874 l 360 874 l 360 926 m 360 977 l 412 977 l 412 926 l 360 926 l 360 977 m 206 926 l 257 926 l 257 874 l 206 874 l 206 926 m 206 977 l 257 977 l 257 926 l 206 926 l 206 977 m 257 1029 l 309 1029 l 309 977 l 257 977 l 257 1029 m 309 1029 l 360 1029 l 360 977 l 309 977 l 309 1029 m 154 977 l 206 977 l 206 926 l 154 926 l 154 977 m 154 926 l 206 926 l 206 874 l 154 874 l 154 926 m 206 874 l 257 874 l 257 823 l 206 823 l 206 874 m 206 1029 l 257 1029 l 257 977 l 206 977 l 206 1029 m 257 1080 l 309 1080 l 309 1029 l 257 1029 l 257 1080 m 309 1080 l 360 1080 l 360 1029 l 309 1029 l 309 1080 m 412 977 l 463 977 l 463 926 l 412 926 l 412 977 m 412 926 l 463 926 l 463 874 l 412 874 l 412 926 m 360 1029 l 412 1029 l 412 977 l 360 977 l 360 1029 m 360 874 l 412 874 l 412 823 l 360 823 l 360 874 z "},"":{"ha":617,"x_min":51,"x_max":566,"o":"m 257 772 l 309 772 l 309 720 l 257 720 l 257 772 m 309 772 l 360 772 l 360 720 l 309 720 l 309 772 m 309 720 l 360 720 l 360 669 l 309 669 l 309 720 m 360 720 l 412 720 l 412 669 l 360 669 l 360 720 m 257 720 l 309 720 l 309 669 l 257 669 l 257 720 m 206 720 l 257 720 l 257 669 l 206 669 l 206 720 m 206 669 l 257 669 l 257 617 l 206 617 l 206 669 m 154 669 l 206 669 l 206 617 l 154 617 l 154 669 m 257 669 l 309 669 l 309 617 l 257 617 l 257 669 m 309 669 l 360 669 l 360 617 l 309 617 l 309 669 m 360 669 l 412 669 l 412 617 l 360 617 l 360 669 m 412 669 l 463 669 l 463 617 l 412 617 l 412 669 m 412 617 l 463 617 l 463 566 l 412 566 l 412 617 m 463 617 l 514 617 l 514 566 l 463 566 l 463 617 m 360 617 l 412 617 l 412 566 l 360 566 l 360 617 m 309 617 l 360 617 l 360 566 l 309 566 l 309 617 m 257 617 l 309 617 l 309 566 l 257 566 l 257 617 m 206 617 l 257 617 l 257 566 l 206 566 l 206 617 m 154 617 l 206 617 l 206 566 l 154 566 l 154 617 m 103 617 l 154 617 l 154 566 l 103 566 l 103 617 m 206 566 l 257 566 l 257 514 l 206 514 l 206 566 m 154 566 l 206 566 l 206 514 l 154 514 l 154 566 m 103 566 l 154 566 l 154 514 l 103 514 l 103 566 m 51 566 l 103 566 l 103 514 l 51 514 l 51 566 m 51 514 l 103 514 l 103 463 l 51 463 l 51 514 m 51 463 l 103 463 l 103 412 l 51 412 l 51 463 m 103 463 l 154 463 l 154 412 l 103 412 l 103 463 m 103 514 l 154 514 l 154 463 l 103 463 l 103 514 m 154 514 l 206 514 l 206 463 l 154 463 l 154 514 m 154 463 l 206 463 l 206 412 l 154 412 l 154 463 m 154 412 l 206 412 l 206 360 l 154 360 l 154 412 m 103 412 l 154 412 l 154 360 l 103 360 l 103 412 m 51 412 l 103 412 l 103 360 l 51 360 l 51 412 m 51 360 l 103 360 l 103 309 l 51 309 l 51 360 m 103 360 l 154 360 l 154 309 l 103 309 l 103 360 m 154 360 l 206 360 l 206 309 l 154 309 l 154 360 m 206 360 l 257 360 l 257 309 l 206 309 l 206 360 m 257 360 l 309 360 l 309 309 l 257 309 l 257 360 m 309 360 l 360 360 l 360 309 l 309 309 l 309 360 m 360 360 l 412 360 l 412 309 l 360 309 l 360 360 m 412 412 l 463 412 l 463 360 l 412 360 l 412 412 m 463 412 l 514 412 l 514 360 l 463 360 l 463 412 m 463 360 l 514 360 l 514 309 l 463 309 l 463 360 m 412 360 l 463 360 l 463 309 l 412 309 l 412 360 m 514 360 l 566 360 l 566 309 l 514 309 l 514 360 m 514 412 l 566 412 l 566 360 l 514 360 l 514 412 m 514 463 l 566 463 l 566 412 l 514 412 l 514 463 m 514 514 l 566 514 l 566 463 l 514 463 l 514 514 m 514 566 l 566 566 l 566 514 l 514 514 l 514 566 m 463 566 l 514 566 l 514 514 l 463 514 l 463 566 m 412 566 l 463 566 l 463 514 l 412 514 l 412 566 m 360 566 l 412 566 l 412 514 l 360 514 l 360 566 m 463 514 l 514 514 l 514 463 l 463 463 l 463 514 m 463 463 l 514 463 l 514 412 l 463 412 l 463 463 m 412 463 l 463 463 l 463 412 l 412 412 l 412 463 m 412 514 l 463 514 l 463 463 l 412 463 l 412 514 m 51 309 l 103 309 l 103 257 l 51 257 l 51 309 m 103 309 l 154 309 l 154 257 l 103 257 l 103 309 m 154 309 l 206 309 l 206 257 l 154 257 l 154 309 m 206 309 l 257 309 l 257 257 l 206 257 l 206 309 m 257 309 l 309 309 l 309 257 l 257 257 l 257 309 m 309 309 l 360 309 l 360 257 l 309 257 l 309 309 m 360 309 l 412 309 l 412 257 l 360 257 l 360 309 m 412 309 l 463 309 l 463 257 l 412 257 l 412 309 m 463 309 l 514 309 l 514 257 l 463 257 l 463 309 m 514 309 l 566 309 l 566 257 l 514 257 l 514 309 m 514 257 l 566 257 l 566 206 l 514 206 l 514 257 m 463 257 l 514 257 l 514 206 l 463 206 l 463 257 m 412 257 l 463 257 l 463 206 l 412 206 l 412 257 m 360 257 l 412 257 l 412 206 l 360 206 l 360 257 m 309 257 l 360 257 l 360 206 l 309 206 l 309 257 m 257 257 l 309 257 l 309 206 l 257 206 l 257 257 m 206 257 l 257 257 l 257 206 l 206 206 l 206 257 m 103 257 l 154 257 l 154 206 l 103 206 l 103 257 m 51 257 l 103 257 l 103 206 l 51 206 l 51 257 m 154 257 l 206 257 l 206 206 l 154 206 l 154 257 m 154 206 l 206 206 l 206 154 l 154 154 l 154 206 m 154 154 l 206 154 l 206 103 l 154 103 l 154 154 m 154 103 l 206 103 l 206 51 l 154 51 l 154 103 m 154 51 l 206 51 l 206 0 l 154 0 l 154 51 m 103 51 l 154 51 l 154 0 l 103 0 l 103 51 m 51 51 l 103 51 l 103 0 l 51 0 l 51 51 m 51 103 l 103 103 l 103 51 l 51 51 l 51 103 m 51 154 l 103 154 l 103 103 l 51 103 l 51 154 m 51 206 l 103 206 l 103 154 l 51 154 l 51 206 m 103 206 l 154 206 l 154 154 l 103 154 l 103 206 m 103 154 l 154 154 l 154 103 l 103 103 l 103 154 m 103 103 l 154 103 l 154 51 l 103 51 l 103 103 m 412 206 l 463 206 l 463 154 l 412 154 l 412 206 m 412 154 l 463 154 l 463 103 l 412 103 l 412 154 m 412 103 l 463 103 l 463 51 l 412 51 l 412 103 m 412 51 l 463 51 l 463 0 l 412 0 l 412 51 m 463 51 l 514 51 l 514 0 l 463 0 l 463 51 m 514 51 l 566 51 l 566 0 l 514 0 l 514 51 m 514 103 l 566 103 l 566 51 l 514 51 l 514 103 m 514 154 l 566 154 l 566 103 l 514 103 l 514 154 m 514 206 l 566 206 l 566 154 l 514 154 l 514 206 m 463 206 l 514 206 l 514 154 l 463 154 l 463 206 m 463 154 l 514 154 l 514 103 l 463 103 l 463 154 m 463 103 l 514 103 l 514 51 l 463 51 l 463 103 m 154 926 l 206 926 l 206 874 l 154 874 l 154 926 m 309 926 l 360 926 l 360 874 l 309 874 l 309 926 m 360 926 l 412 926 l 412 874 l 360 874 l 360 926 m 412 926 l 463 926 l 463 874 l 412 874 l 412 926 m 154 977 l 206 977 l 206 926 l 154 926 l 154 977 m 206 977 l 257 977 l 257 926 l 206 926 l 206 977 m 257 977 l 309 977 l 309 926 l 257 926 l 257 977 m 412 977 l 463 977 l 463 926 l 412 926 l 412 977 m 360 874 l 412 874 l 412 823 l 360 823 l 360 874 m 206 1029 l 257 1029 l 257 977 l 206 977 l 206 1029 m 257 926 l 309 926 l 309 874 l 257 874 l 257 926 m 206 926 l 257 926 l 257 874 l 206 874 l 206 926 m 154 874 l 206 874 l 206 823 l 154 823 l 154 874 m 360 977 l 412 977 l 412 926 l 360 926 l 360 977 m 309 977 l 360 977 l 360 926 l 309 926 l 309 977 m 412 1029 l 463 1029 l 463 977 l 412 977 l 412 1029 z "},"":{"ha":874,"x_min":51,"x_max":823,"o":"m 257 772 l 309 772 l 309 720 l 257 720 l 257 772 m 309 772 l 360 772 l 360 720 l 309 720 l 309 772 m 309 720 l 360 720 l 360 669 l 309 669 l 309 720 m 360 720 l 412 720 l 412 669 l 360 669 l 360 720 m 257 720 l 309 720 l 309 669 l 257 669 l 257 720 m 206 720 l 257 720 l 257 669 l 206 669 l 206 720 m 206 669 l 257 669 l 257 617 l 206 617 l 206 669 m 154 669 l 206 669 l 206 617 l 154 617 l 154 669 m 257 669 l 309 669 l 309 617 l 257 617 l 257 669 m 309 669 l 360 669 l 360 617 l 309 617 l 309 669 m 360 669 l 412 669 l 412 617 l 360 617 l 360 669 m 360 617 l 412 617 l 412 566 l 360 566 l 360 617 m 309 617 l 360 617 l 360 566 l 309 566 l 309 617 m 257 617 l 309 617 l 309 566 l 257 566 l 257 617 m 206 617 l 257 617 l 257 566 l 206 566 l 206 617 m 154 617 l 206 617 l 206 566 l 154 566 l 154 617 m 103 617 l 154 617 l 154 566 l 103 566 l 103 617 m 206 566 l 257 566 l 257 514 l 206 514 l 206 566 m 154 566 l 206 566 l 206 514 l 154 514 l 154 566 m 103 566 l 154 566 l 154 514 l 103 514 l 103 566 m 51 566 l 103 566 l 103 514 l 51 514 l 51 566 m 51 514 l 103 514 l 103 463 l 51 463 l 51 514 m 51 463 l 103 463 l 103 412 l 51 412 l 51 463 m 103 463 l 154 463 l 154 412 l 103 412 l 103 463 m 103 514 l 154 514 l 154 463 l 103 463 l 103 514 m 154 514 l 206 514 l 206 463 l 154 463 l 154 514 m 154 463 l 206 463 l 206 412 l 154 412 l 154 463 m 154 412 l 206 412 l 206 360 l 154 360 l 154 412 m 103 412 l 154 412 l 154 360 l 103 360 l 103 412 m 51 412 l 103 412 l 103 360 l 51 360 l 51 412 m 51 360 l 103 360 l 103 309 l 51 309 l 51 360 m 103 360 l 154 360 l 154 309 l 103 309 l 103 360 m 154 360 l 206 360 l 206 309 l 154 309 l 154 360 m 206 360 l 257 360 l 257 309 l 206 309 l 206 360 m 257 360 l 309 360 l 309 309 l 257 309 l 257 360 m 309 360 l 360 360 l 360 309 l 309 309 l 309 360 m 360 360 l 412 360 l 412 309 l 360 309 l 360 360 m 360 566 l 412 566 l 412 514 l 360 514 l 360 566 m 51 309 l 103 309 l 103 257 l 51 257 l 51 309 m 103 309 l 154 309 l 154 257 l 103 257 l 103 309 m 154 309 l 206 309 l 206 257 l 154 257 l 154 309 m 206 309 l 257 309 l 257 257 l 206 257 l 206 309 m 257 309 l 309 309 l 309 257 l 257 257 l 257 309 m 309 309 l 360 309 l 360 257 l 309 257 l 309 309 m 360 309 l 412 309 l 412 257 l 360 257 l 360 309 m 360 257 l 412 257 l 412 206 l 360 206 l 360 257 m 309 257 l 360 257 l 360 206 l 309 206 l 309 257 m 257 257 l 309 257 l 309 206 l 257 206 l 257 257 m 206 257 l 257 257 l 257 206 l 206 206 l 206 257 m 103 257 l 154 257 l 154 206 l 103 206 l 103 257 m 51 257 l 103 257 l 103 206 l 51 206 l 51 257 m 154 257 l 206 257 l 206 206 l 154 206 l 154 257 m 154 206 l 206 206 l 206 154 l 154 154 l 154 206 m 154 154 l 206 154 l 206 103 l 154 103 l 154 154 m 154 103 l 206 103 l 206 51 l 154 51 l 154 103 m 154 51 l 206 51 l 206 0 l 154 0 l 154 51 m 103 51 l 154 51 l 154 0 l 103 0 l 103 51 m 51 51 l 103 51 l 103 0 l 51 0 l 51 51 m 51 103 l 103 103 l 103 51 l 51 51 l 51 103 m 51 154 l 103 154 l 103 103 l 51 103 l 51 154 m 51 206 l 103 206 l 103 154 l 51 154 l 51 206 m 103 206 l 154 206 l 154 154 l 103 154 l 103 206 m 103 154 l 154 154 l 154 103 l 103 103 l 103 154 m 103 103 l 154 103 l 154 51 l 103 51 l 103 103 m 463 772 l 514 772 l 514 720 l 463 720 l 463 772 m 463 720 l 514 720 l 514 669 l 463 669 l 463 720 m 463 669 l 514 669 l 514 617 l 463 617 l 463 669 m 463 617 l 514 617 l 514 566 l 463 566 l 463 617 m 463 566 l 514 566 l 514 514 l 463 514 l 463 566 m 463 514 l 514 514 l 514 463 l 463 463 l 463 514 m 463 463 l 514 463 l 514 412 l 463 412 l 463 463 m 463 360 l 514 360 l 514 309 l 463 309 l 463 360 m 463 309 l 514 309 l 514 257 l 463 257 l 463 309 m 463 257 l 514 257 l 514 206 l 463 206 l 463 257 m 463 206 l 514 206 l 514 154 l 463 154 l 463 206 m 463 103 l 514 103 l 514 51 l 463 51 l 463 103 m 463 51 l 514 51 l 514 0 l 463 0 l 463 51 m 412 51 l 463 51 l 463 0 l 412 0 l 412 51 m 412 103 l 463 103 l 463 51 l 412 51 l 412 103 m 412 154 l 463 154 l 463 103 l 412 103 l 412 154 m 412 669 l 463 669 l 463 617 l 412 617 l 412 669 m 412 617 l 463 617 l 463 566 l 412 566 l 412 617 m 412 566 l 463 566 l 463 514 l 412 514 l 412 566 m 412 514 l 463 514 l 463 463 l 412 463 l 412 514 m 412 463 l 463 463 l 463 412 l 412 412 l 412 463 m 412 412 l 463 412 l 463 360 l 412 360 l 412 412 m 412 360 l 463 360 l 463 309 l 412 309 l 412 360 m 412 309 l 463 309 l 463 257 l 412 257 l 412 309 m 412 257 l 463 257 l 463 206 l 412 206 l 412 257 m 412 206 l 463 206 l 463 154 l 412 154 l 412 206 m 514 51 l 566 51 l 566 0 l 514 0 l 514 51 m 514 103 l 566 103 l 566 51 l 514 51 l 514 103 m 514 154 l 566 154 l 566 103 l 514 103 l 514 154 m 514 206 l 566 206 l 566 154 l 514 154 l 514 206 m 514 309 l 566 309 l 566 257 l 514 257 l 514 309 m 514 360 l 566 360 l 566 309 l 514 309 l 514 360 m 514 412 l 566 412 l 566 360 l 514 360 l 514 412 m 514 463 l 566 463 l 566 412 l 514 412 l 514 463 m 514 772 l 566 772 l 566 720 l 514 720 l 514 772 m 514 720 l 566 720 l 566 669 l 514 669 l 514 720 m 514 669 l 566 669 l 566 617 l 514 617 l 514 669 m 514 617 l 566 617 l 566 566 l 514 566 l 514 617 m 514 257 l 566 257 l 566 206 l 514 206 l 514 257 m 566 51 l 617 51 l 617 0 l 566 0 l 566 51 m 617 51 l 669 51 l 669 0 l 617 0 l 617 51 m 669 51 l 720 51 l 720 0 l 669 0 l 669 51 m 669 103 l 720 103 l 720 51 l 669 51 l 669 103 m 669 154 l 720 154 l 720 103 l 669 103 l 669 154 m 617 154 l 669 154 l 669 103 l 617 103 l 617 154 m 617 103 l 669 103 l 669 51 l 617 51 l 617 103 m 566 103 l 617 103 l 617 51 l 566 51 l 566 103 m 566 154 l 617 154 l 617 103 l 566 103 l 566 154 m 720 154 l 772 154 l 772 103 l 720 103 l 720 154 m 720 103 l 772 103 l 772 51 l 720 51 l 720 103 m 720 51 l 772 51 l 772 0 l 720 0 l 720 51 m 772 51 l 823 51 l 823 0 l 772 0 l 772 51 m 772 103 l 823 103 l 823 51 l 772 51 l 772 103 m 772 154 l 823 154 l 823 103 l 772 103 l 772 154 m 566 772 l 617 772 l 617 720 l 566 720 l 566 772 m 617 772 l 669 772 l 669 720 l 617 720 l 617 772 m 669 772 l 720 772 l 720 720 l 669 720 l 669 772 m 720 772 l 772 772 l 772 720 l 720 720 l 720 772 m 772 772 l 823 772 l 823 720 l 772 720 l 772 772 m 772 669 l 823 669 l 823 617 l 772 617 l 772 669 m 720 669 l 772 669 l 772 617 l 720 617 l 720 669 m 669 669 l 720 669 l 720 617 l 669 617 l 669 669 m 617 669 l 669 669 l 669 617 l 617 617 l 617 669 m 617 720 l 669 720 l 669 669 l 617 669 l 617 720 m 566 720 l 617 720 l 617 669 l 566 669 l 566 720 m 566 669 l 617 669 l 617 617 l 566 617 l 566 669 m 669 720 l 720 720 l 720 669 l 669 669 l 669 720 m 720 720 l 772 720 l 772 669 l 720 669 l 720 720 m 772 720 l 823 720 l 823 669 l 772 669 l 772 720 m 566 463 l 617 463 l 617 412 l 566 412 l 566 463 m 566 412 l 617 412 l 617 360 l 566 360 l 566 412 m 566 360 l 617 360 l 617 309 l 566 309 l 566 360 m 617 360 l 669 360 l 669 309 l 617 309 l 617 360 m 617 412 l 669 412 l 669 360 l 617 360 l 617 412 m 617 463 l 669 463 l 669 412 l 617 412 l 617 463 m 669 463 l 720 463 l 720 412 l 669 412 l 669 463 m 669 412 l 720 412 l 720 360 l 669 360 l 669 412 m 720 412 l 772 412 l 772 360 l 720 360 l 720 412 m 720 463 l 772 463 l 772 412 l 720 412 l 720 463 m 720 360 l 772 360 l 772 309 l 720 309 l 720 360 m 669 360 l 720 360 l 720 309 l 669 309 l 669 360 m 514 566 l 566 566 l 566 514 l 514 514 l 514 566 m 514 514 l 566 514 l 566 463 l 514 463 l 514 514 m 463 154 l 514 154 l 514 103 l 463 103 l 463 154 m 463 412 l 514 412 l 514 360 l 463 360 l 463 412 z "},"B":{"ha":617,"x_min":51,"x_max":566,"o":"m 51 772 l 103 772 l 103 720 l 51 720 l 51 772 m 103 772 l 154 772 l 154 720 l 103 720 l 103 772 m 154 772 l 206 772 l 206 720 l 154 720 l 154 772 m 206 772 l 257 772 l 257 720 l 206 720 l 206 772 m 257 772 l 309 772 l 309 720 l 257 720 l 257 772 m 309 772 l 360 772 l 360 720 l 309 720 l 309 772 m 360 772 l 412 772 l 412 720 l 360 720 l 360 772 m 412 772 l 463 772 l 463 720 l 412 720 l 412 772 m 412 720 l 463 720 l 463 669 l 412 669 l 412 720 m 463 720 l 514 720 l 514 669 l 463 669 l 463 720 m 360 720 l 412 720 l 412 669 l 360 669 l 360 720 m 309 720 l 360 720 l 360 669 l 309 669 l 309 720 m 257 720 l 309 720 l 309 669 l 257 669 l 257 720 m 206 720 l 257 720 l 257 669 l 206 669 l 206 720 m 154 720 l 206 720 l 206 669 l 154 669 l 154 720 m 103 720 l 154 720 l 154 669 l 103 669 l 103 720 m 51 720 l 103 720 l 103 669 l 51 669 l 51 720 m 51 669 l 103 669 l 103 617 l 51 617 l 51 669 m 103 669 l 154 669 l 154 617 l 103 617 l 103 669 m 154 669 l 206 669 l 206 617 l 154 617 l 154 669 m 206 669 l 257 669 l 257 617 l 206 617 l 206 669 m 309 669 l 360 669 l 360 617 l 309 617 l 309 669 m 360 669 l 412 669 l 412 617 l 360 617 l 360 669 m 412 669 l 463 669 l 463 617 l 412 617 l 412 669 m 463 669 l 514 669 l 514 617 l 463 617 l 463 669 m 514 669 l 566 669 l 566 617 l 514 617 l 514 669 m 257 669 l 309 669 l 309 617 l 257 617 l 257 669 m 360 617 l 412 617 l 412 566 l 360 566 l 360 617 m 412 617 l 463 617 l 463 566 l 412 566 l 412 617 m 514 617 l 566 617 l 566 566 l 514 566 l 514 617 m 463 617 l 514 617 l 514 566 l 463 566 l 463 617 m 463 566 l 514 566 l 514 514 l 463 514 l 463 566 m 463 514 l 514 514 l 514 463 l 463 463 l 463 514 m 514 514 l 566 514 l 566 463 l 514 463 l 514 514 m 514 463 l 566 463 l 566 412 l 514 412 l 514 463 m 514 566 l 566 566 l 566 514 l 514 514 l 514 566 m 412 514 l 463 514 l 463 463 l 412 463 l 412 514 m 412 566 l 463 566 l 463 514 l 412 514 l 412 566 m 360 514 l 412 514 l 412 463 l 360 463 l 360 514 m 412 463 l 463 463 l 463 412 l 412 412 l 412 463 m 463 463 l 514 463 l 514 412 l 463 412 l 463 463 m 463 412 l 514 412 l 514 360 l 463 360 l 463 412 m 463 360 l 514 360 l 514 309 l 463 309 l 463 360 m 514 360 l 566 360 l 566 309 l 514 309 l 514 360 m 514 309 l 566 309 l 566 257 l 514 257 l 514 309 m 514 257 l 566 257 l 566 206 l 514 206 l 514 257 m 514 206 l 566 206 l 566 154 l 514 154 l 514 206 m 514 154 l 566 154 l 566 103 l 514 103 l 514 154 m 463 154 l 514 154 l 514 103 l 463 103 l 463 154 m 463 103 l 514 103 l 514 51 l 463 51 l 463 103 m 412 103 l 463 103 l 463 51 l 412 51 l 412 103 m 412 154 l 463 154 l 463 103 l 412 103 l 412 154 m 360 154 l 412 154 l 412 103 l 360 103 l 360 154 m 360 206 l 412 206 l 412 154 l 360 154 l 360 206 m 412 206 l 463 206 l 463 154 l 412 154 l 412 206 m 463 206 l 514 206 l 514 154 l 463 154 l 463 206 m 463 257 l 514 257 l 514 206 l 463 206 l 463 257 m 463 309 l 514 309 l 514 257 l 463 257 l 463 309 m 412 309 l 463 309 l 463 257 l 412 257 l 412 309 m 412 257 l 463 257 l 463 206 l 412 206 l 412 257 m 360 309 l 412 309 l 412 257 l 360 257 l 360 309 m 360 360 l 412 360 l 412 309 l 360 309 l 360 360 m 412 360 l 463 360 l 463 309 l 412 309 l 412 360 m 412 412 l 463 412 l 463 360 l 412 360 l 412 412 m 360 412 l 412 412 l 412 360 l 360 360 l 360 412 m 360 463 l 412 463 l 412 412 l 360 412 l 360 463 m 309 360 l 360 360 l 360 309 l 309 309 l 309 360 m 257 360 l 309 360 l 309 309 l 257 309 l 257 360 m 206 360 l 257 360 l 257 309 l 206 309 l 206 360 m 206 412 l 257 412 l 257 360 l 206 360 l 206 412 m 257 412 l 309 412 l 309 360 l 257 360 l 257 412 m 257 463 l 309 463 l 309 412 l 257 412 l 257 463 m 309 463 l 360 463 l 360 412 l 309 412 l 309 463 m 206 463 l 257 463 l 257 412 l 206 412 l 206 463 m 309 412 l 360 412 l 360 360 l 309 360 l 309 412 m 103 617 l 154 617 l 154 566 l 103 566 l 103 617 m 154 617 l 206 617 l 206 566 l 154 566 l 154 617 m 154 566 l 206 566 l 206 514 l 154 514 l 154 566 m 154 514 l 206 514 l 206 463 l 154 463 l 154 514 m 154 463 l 206 463 l 206 412 l 154 412 l 154 463 m 103 463 l 154 463 l 154 412 l 103 412 l 103 463 m 51 463 l 103 463 l 103 412 l 51 412 l 51 463 m 51 514 l 103 514 l 103 463 l 51 463 l 51 514 m 51 566 l 103 566 l 103 514 l 51 514 l 51 566 m 51 617 l 103 617 l 103 566 l 51 566 l 51 617 m 103 514 l 154 514 l 154 463 l 103 463 l 103 514 m 103 412 l 154 412 l 154 360 l 103 360 l 103 412 m 103 566 l 154 566 l 154 514 l 103 514 l 103 566 m 51 412 l 103 412 l 103 360 l 51 360 l 51 412 m 51 360 l 103 360 l 103 309 l 51 309 l 51 360 m 103 360 l 154 360 l 154 309 l 103 309 l 103 360 m 154 412 l 206 412 l 206 360 l 154 360 l 154 412 m 154 360 l 206 360 l 206 309 l 154 309 l 154 360 m 154 309 l 206 309 l 206 257 l 154 257 l 154 309 m 154 257 l 206 257 l 206 206 l 154 206 l 154 257 m 154 206 l 206 206 l 206 154 l 154 154 l 154 206 m 154 154 l 206 154 l 206 103 l 154 103 l 154 154 m 206 154 l 257 154 l 257 103 l 206 103 l 206 154 m 257 154 l 309 154 l 309 103 l 257 103 l 257 154 m 309 154 l 360 154 l 360 103 l 309 103 l 309 154 m 360 103 l 412 103 l 412 51 l 360 51 l 360 103 m 412 51 l 463 51 l 463 0 l 412 0 l 412 51 m 360 51 l 412 51 l 412 0 l 360 0 l 360 51 m 309 51 l 360 51 l 360 0 l 309 0 l 309 51 m 257 51 l 309 51 l 309 0 l 257 0 l 257 51 m 206 51 l 257 51 l 257 0 l 206 0 l 206 51 m 154 51 l 206 51 l 206 0 l 154 0 l 154 51 m 103 51 l 154 51 l 154 0 l 103 0 l 103 51 m 51 51 l 103 51 l 103 0 l 51 0 l 51 51 m 51 103 l 103 103 l 103 51 l 51 51 l 51 103 m 51 154 l 103 154 l 103 103 l 51 103 l 51 154 m 51 206 l 103 206 l 103 154 l 51 154 l 51 206 m 51 257 l 103 257 l 103 206 l 51 206 l 51 257 m 51 309 l 103 309 l 103 257 l 51 257 l 51 309 m 103 309 l 154 309 l 154 257 l 103 257 l 103 309 m 103 257 l 154 257 l 154 206 l 103 206 l 103 257 m 103 206 l 154 206 l 154 154 l 103 154 l 103 206 m 103 154 l 154 154 l 154 103 l 103 103 l 103 154 m 103 103 l 154 103 l 154 51 l 103 51 l 103 103 m 154 103 l 206 103 l 206 51 l 154 51 l 154 103 m 206 103 l 257 103 l 257 51 l 206 51 l 206 103 m 257 103 l 309 103 l 309 51 l 257 51 l 257 103 m 309 103 l 360 103 l 360 51 l 309 51 l 309 103 z "},"C":{"ha":617,"x_min":51,"x_max":566,"o":"m 154 772 l 206 772 l 206 720 l 154 720 l 154 772 m 206 772 l 257 772 l 257 720 l 206 720 l 206 772 m 257 772 l 309 772 l 309 720 l 257 720 l 257 772 m 309 772 l 360 772 l 360 720 l 309 720 l 309 772 m 360 772 l 412 772 l 412 720 l 360 720 l 360 772 m 412 772 l 463 772 l 463 720 l 412 720 l 412 772 m 412 720 l 463 720 l 463 669 l 412 669 l 412 720 m 463 720 l 514 720 l 514 669 l 463 669 l 463 720 m 360 720 l 412 720 l 412 669 l 360 669 l 360 720 m 309 720 l 360 720 l 360 669 l 309 669 l 309 720 m 257 720 l 309 720 l 309 669 l 257 669 l 257 720 m 206 720 l 257 720 l 257 669 l 206 669 l 206 720 m 154 720 l 206 720 l 206 669 l 154 669 l 154 720 m 103 669 l 154 669 l 154 617 l 103 617 l 103 669 m 103 720 l 154 720 l 154 669 l 103 669 l 103 720 m 51 669 l 103 669 l 103 617 l 51 617 l 51 669 m 154 669 l 206 669 l 206 617 l 154 617 l 154 669 m 206 669 l 257 669 l 257 617 l 206 617 l 206 669 m 257 669 l 309 669 l 309 617 l 257 617 l 257 669 m 309 669 l 360 669 l 360 617 l 309 617 l 309 669 m 360 669 l 412 669 l 412 617 l 360 617 l 360 669 m 412 669 l 463 669 l 463 617 l 412 617 l 412 669 m 463 669 l 514 669 l 514 617 l 463 617 l 463 669 m 514 669 l 566 669 l 566 617 l 514 617 l 514 669 m 514 617 l 566 617 l 566 566 l 514 566 l 514 617 m 463 617 l 514 617 l 514 566 l 463 566 l 463 617 m 412 617 l 463 617 l 463 566 l 412 566 l 412 617 m 360 617 l 412 617 l 412 566 l 360 566 l 360 617 m 412 566 l 463 566 l 463 514 l 412 514 l 412 566 m 514 566 l 566 566 l 566 514 l 514 514 l 514 566 m 463 566 l 514 566 l 514 514 l 463 514 l 463 566 m 514 257 l 566 257 l 566 206 l 514 206 l 514 257 m 514 206 l 566 206 l 566 154 l 514 154 l 514 206 m 514 154 l 566 154 l 566 103 l 514 103 l 514 154 m 463 154 l 514 154 l 514 103 l 463 103 l 463 154 m 463 206 l 514 206 l 514 154 l 463 154 l 463 206 m 463 257 l 514 257 l 514 206 l 463 206 l 463 257 m 412 257 l 463 257 l 463 206 l 412 206 l 412 257 m 412 206 l 463 206 l 463 154 l 412 154 l 412 206 m 360 206 l 412 206 l 412 154 l 360 154 l 360 206 m 412 154 l 463 154 l 463 103 l 412 103 l 412 154 m 463 103 l 514 103 l 514 51 l 463 51 l 463 103 m 412 103 l 463 103 l 463 51 l 412 51 l 412 103 m 360 154 l 412 154 l 412 103 l 360 103 l 360 154 m 360 103 l 412 103 l 412 51 l 360 51 l 360 103 m 412 51 l 463 51 l 463 0 l 412 0 l 412 51 m 360 51 l 412 51 l 412 0 l 360 0 l 360 51 m 309 51 l 360 51 l 360 0 l 309 0 l 309 51 m 257 51 l 309 51 l 309 0 l 257 0 l 257 51 m 206 51 l 257 51 l 257 0 l 206 0 l 206 51 m 154 51 l 206 51 l 206 0 l 154 0 l 154 51 m 154 103 l 206 103 l 206 51 l 154 51 l 154 103 m 206 103 l 257 103 l 257 51 l 206 51 l 206 103 m 206 154 l 257 154 l 257 103 l 206 103 l 206 154 m 257 154 l 309 154 l 309 103 l 257 103 l 257 154 m 309 154 l 360 154 l 360 103 l 309 103 l 309 154 m 309 103 l 360 103 l 360 51 l 309 51 l 309 103 m 257 103 l 309 103 l 309 51 l 257 51 l 257 103 m 103 103 l 154 103 l 154 51 l 103 51 l 103 103 m 154 154 l 206 154 l 206 103 l 154 103 l 154 154 m 206 206 l 257 206 l 257 154 l 206 154 l 206 206 m 154 206 l 206 206 l 206 154 l 154 154 l 154 206 m 103 206 l 154 206 l 154 154 l 103 154 l 103 206 m 103 154 l 154 154 l 154 103 l 103 103 l 103 154 m 51 154 l 103 154 l 103 103 l 51 103 l 51 154 m 51 206 l 103 206 l 103 154 l 51 154 l 51 206 m 51 257 l 103 257 l 103 206 l 51 206 l 51 257 m 51 309 l 103 309 l 103 257 l 51 257 l 51 309 m 51 360 l 103 360 l 103 309 l 51 309 l 51 360 m 51 412 l 103 412 l 103 360 l 51 360 l 51 412 m 51 463 l 103 463 l 103 412 l 51 412 l 51 463 m 51 514 l 103 514 l 103 463 l 51 463 l 51 514 m 51 566 l 103 566 l 103 514 l 51 514 l 51 566 m 51 617 l 103 617 l 103 566 l 51 566 l 51 617 m 103 617 l 154 617 l 154 566 l 103 566 l 103 617 m 154 617 l 206 617 l 206 566 l 154 566 l 154 617 m 206 617 l 257 617 l 257 566 l 206 566 l 206 617 m 154 566 l 206 566 l 206 514 l 154 514 l 154 566 m 154 514 l 206 514 l 206 463 l 154 463 l 154 514 m 154 463 l 206 463 l 206 412 l 154 412 l 154 463 m 154 412 l 206 412 l 206 360 l 154 360 l 154 412 m 154 360 l 206 360 l 206 309 l 154 309 l 154 360 m 154 309 l 206 309 l 206 257 l 154 257 l 154 309 m 154 257 l 206 257 l 206 206 l 154 206 l 154 257 m 103 257 l 154 257 l 154 206 l 103 206 l 103 257 m 103 309 l 154 309 l 154 257 l 103 257 l 103 309 m 103 360 l 154 360 l 154 309 l 103 309 l 103 360 m 103 412 l 154 412 l 154 360 l 103 360 l 103 412 m 103 463 l 154 463 l 154 412 l 103 412 l 103 463 m 103 514 l 154 514 l 154 463 l 103 463 l 103 514 m 103 566 l 154 566 l 154 514 l 103 514 l 103 566 z "},"":{"ha":617,"x_min":51,"x_max":566,"o":"m 154 772 l 206 772 l 206 720 l 154 720 l 154 772 m 206 772 l 257 772 l 257 720 l 206 720 l 206 772 m 257 772 l 309 772 l 309 720 l 257 720 l 257 772 m 309 772 l 360 772 l 360 720 l 309 720 l 309 772 m 360 772 l 412 772 l 412 720 l 360 720 l 360 772 m 412 772 l 463 772 l 463 720 l 412 720 l 412 772 m 412 720 l 463 720 l 463 669 l 412 669 l 412 720 m 463 720 l 514 720 l 514 669 l 463 669 l 463 720 m 360 720 l 412 720 l 412 669 l 360 669 l 360 720 m 309 720 l 360 720 l 360 669 l 309 669 l 309 720 m 257 720 l 309 720 l 309 669 l 257 669 l 257 720 m 206 720 l 257 720 l 257 669 l 206 669 l 206 720 m 154 720 l 206 720 l 206 669 l 154 669 l 154 720 m 103 669 l 154 669 l 154 617 l 103 617 l 103 669 m 103 720 l 154 720 l 154 669 l 103 669 l 103 720 m 51 669 l 103 669 l 103 617 l 51 617 l 51 669 m 154 669 l 206 669 l 206 617 l 154 617 l 154 669 m 206 669 l 257 669 l 257 617 l 206 617 l 206 669 m 257 669 l 309 669 l 309 617 l 257 617 l 257 669 m 309 669 l 360 669 l 360 617 l 309 617 l 309 669 m 360 669 l 412 669 l 412 617 l 360 617 l 360 669 m 412 669 l 463 669 l 463 617 l 412 617 l 412 669 m 463 669 l 514 669 l 514 617 l 463 617 l 463 669 m 514 669 l 566 669 l 566 617 l 514 617 l 514 669 m 514 617 l 566 617 l 566 566 l 514 566 l 514 617 m 463 617 l 514 617 l 514 566 l 463 566 l 463 617 m 412 617 l 463 617 l 463 566 l 412 566 l 412 617 m 360 617 l 412 617 l 412 566 l 360 566 l 360 617 m 412 566 l 463 566 l 463 514 l 412 514 l 412 566 m 514 566 l 566 566 l 566 514 l 514 514 l 514 566 m 463 566 l 514 566 l 514 514 l 463 514 l 463 566 m 514 257 l 566 257 l 566 206 l 514 206 l 514 257 m 514 206 l 566 206 l 566 154 l 514 154 l 514 206 m 514 154 l 566 154 l 566 103 l 514 103 l 514 154 m 463 154 l 514 154 l 514 103 l 463 103 l 463 154 m 463 206 l 514 206 l 514 154 l 463 154 l 463 206 m 463 257 l 514 257 l 514 206 l 463 206 l 463 257 m 412 257 l 463 257 l 463 206 l 412 206 l 412 257 m 412 206 l 463 206 l 463 154 l 412 154 l 412 206 m 360 206 l 412 206 l 412 154 l 360 154 l 360 206 m 412 154 l 463 154 l 463 103 l 412 103 l 412 154 m 463 103 l 514 103 l 514 51 l 463 51 l 463 103 m 412 103 l 463 103 l 463 51 l 412 51 l 412 103 m 360 154 l 412 154 l 412 103 l 360 103 l 360 154 m 360 103 l 412 103 l 412 51 l 360 51 l 360 103 m 412 51 l 463 51 l 463 0 l 412 0 l 412 51 m 360 51 l 412 51 l 412 0 l 360 0 l 360 51 m 309 51 l 360 51 l 360 0 l 309 0 l 309 51 m 257 51 l 309 51 l 309 0 l 257 0 l 257 51 m 206 51 l 257 51 l 257 0 l 206 0 l 206 51 m 154 51 l 206 51 l 206 0 l 154 0 l 154 51 m 154 103 l 206 103 l 206 51 l 154 51 l 154 103 m 206 103 l 257 103 l 257 51 l 206 51 l 206 103 m 206 154 l 257 154 l 257 103 l 206 103 l 206 154 m 257 154 l 309 154 l 309 103 l 257 103 l 257 154 m 309 154 l 360 154 l 360 103 l 309 103 l 309 154 m 309 103 l 360 103 l 360 51 l 309 51 l 309 103 m 257 103 l 309 103 l 309 51 l 257 51 l 257 103 m 103 103 l 154 103 l 154 51 l 103 51 l 103 103 m 154 154 l 206 154 l 206 103 l 154 103 l 154 154 m 206 206 l 257 206 l 257 154 l 206 154 l 206 206 m 154 206 l 206 206 l 206 154 l 154 154 l 154 206 m 103 206 l 154 206 l 154 154 l 103 154 l 103 206 m 103 154 l 154 154 l 154 103 l 103 103 l 103 154 m 51 154 l 103 154 l 103 103 l 51 103 l 51 154 m 51 206 l 103 206 l 103 154 l 51 154 l 51 206 m 51 257 l 103 257 l 103 206 l 51 206 l 51 257 m 51 309 l 103 309 l 103 257 l 51 257 l 51 309 m 51 360 l 103 360 l 103 309 l 51 309 l 51 360 m 51 412 l 103 412 l 103 360 l 51 360 l 51 412 m 51 463 l 103 463 l 103 412 l 51 412 l 51 463 m 51 514 l 103 514 l 103 463 l 51 463 l 51 514 m 51 566 l 103 566 l 103 514 l 51 514 l 51 566 m 51 617 l 103 617 l 103 566 l 51 566 l 51 617 m 103 617 l 154 617 l 154 566 l 103 566 l 103 617 m 154 617 l 206 617 l 206 566 l 154 566 l 154 617 m 206 617 l 257 617 l 257 566 l 206 566 l 206 617 m 154 566 l 206 566 l 206 514 l 154 514 l 154 566 m 154 514 l 206 514 l 206 463 l 154 463 l 154 514 m 154 463 l 206 463 l 206 412 l 154 412 l 154 463 m 154 412 l 206 412 l 206 360 l 154 360 l 154 412 m 154 360 l 206 360 l 206 309 l 154 309 l 154 360 m 154 309 l 206 309 l 206 257 l 154 257 l 154 309 m 154 257 l 206 257 l 206 206 l 154 206 l 154 257 m 103 257 l 154 257 l 154 206 l 103 206 l 103 257 m 103 309 l 154 309 l 154 257 l 103 257 l 103 309 m 103 360 l 154 360 l 154 309 l 103 309 l 103 360 m 103 412 l 154 412 l 154 360 l 103 360 l 103 412 m 103 463 l 154 463 l 154 412 l 103 412 l 103 463 m 103 514 l 154 514 l 154 463 l 103 463 l 103 514 m 103 566 l 154 566 l 154 514 l 103 514 l 103 566 m 360 1029 l 360 977 l 309 977 l 309 1029 l 360 1029 m 309 977 l 309 926 l 257 926 l 257 977 l 309 977 m 360 977 l 360 926 l 309 926 l 309 977 l 360 977 m 257 926 l 257 874 l 206 874 l 206 926 l 257 926 m 309 926 l 309 874 l 257 874 l 257 926 l 309 926 m 412 1029 l 412 977 l 360 977 l 360 1029 l 412 1029 m 257 874 l 309 874 l 309 823 l 257 823 l 257 874 m 206 874 l 257 874 l 257 823 l 206 823 l 206 874 m 309 926 l 360 926 l 360 874 l 309 874 l 309 926 m 360 977 l 412 977 l 412 926 l 360 926 l 360 977 z "},"":{"ha":617,"x_min":51,"x_max":566,"o":"m 154 772 l 206 772 l 206 720 l 154 720 l 154 772 m 206 772 l 257 772 l 257 720 l 206 720 l 206 772 m 257 772 l 309 772 l 309 720 l 257 720 l 257 772 m 309 772 l 360 772 l 360 720 l 309 720 l 309 772 m 360 772 l 412 772 l 412 720 l 360 720 l 360 772 m 412 772 l 463 772 l 463 720 l 412 720 l 412 772 m 412 720 l 463 720 l 463 669 l 412 669 l 412 720 m 463 720 l 514 720 l 514 669 l 463 669 l 463 720 m 360 720 l 412 720 l 412 669 l 360 669 l 360 720 m 309 720 l 360 720 l 360 669 l 309 669 l 309 720 m 257 720 l 309 720 l 309 669 l 257 669 l 257 720 m 206 720 l 257 720 l 257 669 l 206 669 l 206 720 m 154 720 l 206 720 l 206 669 l 154 669 l 154 720 m 103 669 l 154 669 l 154 617 l 103 617 l 103 669 m 103 720 l 154 720 l 154 669 l 103 669 l 103 720 m 51 669 l 103 669 l 103 617 l 51 617 l 51 669 m 154 669 l 206 669 l 206 617 l 154 617 l 154 669 m 206 669 l 257 669 l 257 617 l 206 617 l 206 669 m 257 669 l 309 669 l 309 617 l 257 617 l 257 669 m 309 669 l 360 669 l 360 617 l 309 617 l 309 669 m 360 669 l 412 669 l 412 617 l 360 617 l 360 669 m 412 669 l 463 669 l 463 617 l 412 617 l 412 669 m 463 669 l 514 669 l 514 617 l 463 617 l 463 669 m 514 669 l 566 669 l 566 617 l 514 617 l 514 669 m 514 617 l 566 617 l 566 566 l 514 566 l 514 617 m 463 617 l 514 617 l 514 566 l 463 566 l 463 617 m 412 617 l 463 617 l 463 566 l 412 566 l 412 617 m 360 617 l 412 617 l 412 566 l 360 566 l 360 617 m 412 566 l 463 566 l 463 514 l 412 514 l 412 566 m 514 566 l 566 566 l 566 514 l 514 514 l 514 566 m 463 566 l 514 566 l 514 514 l 463 514 l 463 566 m 514 257 l 566 257 l 566 206 l 514 206 l 514 257 m 514 206 l 566 206 l 566 154 l 514 154 l 514 206 m 514 154 l 566 154 l 566 103 l 514 103 l 514 154 m 463 154 l 514 154 l 514 103 l 463 103 l 463 154 m 463 206 l 514 206 l 514 154 l 463 154 l 463 206 m 463 257 l 514 257 l 514 206 l 463 206 l 463 257 m 412 257 l 463 257 l 463 206 l 412 206 l 412 257 m 412 206 l 463 206 l 463 154 l 412 154 l 412 206 m 360 206 l 412 206 l 412 154 l 360 154 l 360 206 m 412 154 l 463 154 l 463 103 l 412 103 l 412 154 m 463 103 l 514 103 l 514 51 l 463 51 l 463 103 m 412 103 l 463 103 l 463 51 l 412 51 l 412 103 m 360 154 l 412 154 l 412 103 l 360 103 l 360 154 m 360 103 l 412 103 l 412 51 l 360 51 l 360 103 m 412 51 l 463 51 l 463 0 l 412 0 l 412 51 m 360 51 l 412 51 l 412 0 l 360 0 l 360 51 m 309 51 l 360 51 l 360 0 l 309 0 l 309 51 m 257 51 l 309 51 l 309 0 l 257 0 l 257 51 m 206 51 l 257 51 l 257 0 l 206 0 l 206 51 m 154 51 l 206 51 l 206 0 l 154 0 l 154 51 m 154 103 l 206 103 l 206 51 l 154 51 l 154 103 m 206 103 l 257 103 l 257 51 l 206 51 l 206 103 m 206 154 l 257 154 l 257 103 l 206 103 l 206 154 m 257 154 l 309 154 l 309 103 l 257 103 l 257 154 m 309 154 l 360 154 l 360 103 l 309 103 l 309 154 m 309 103 l 360 103 l 360 51 l 309 51 l 309 103 m 257 103 l 309 103 l 309 51 l 257 51 l 257 103 m 103 103 l 154 103 l 154 51 l 103 51 l 103 103 m 154 154 l 206 154 l 206 103 l 154 103 l 154 154 m 206 206 l 257 206 l 257 154 l 206 154 l 206 206 m 154 206 l 206 206 l 206 154 l 154 154 l 154 206 m 103 206 l 154 206 l 154 154 l 103 154 l 103 206 m 103 154 l 154 154 l 154 103 l 103 103 l 103 154 m 51 154 l 103 154 l 103 103 l 51 103 l 51 154 m 51 206 l 103 206 l 103 154 l 51 154 l 51 206 m 51 257 l 103 257 l 103 206 l 51 206 l 51 257 m 51 309 l 103 309 l 103 257 l 51 257 l 51 309 m 51 360 l 103 360 l 103 309 l 51 309 l 51 360 m 51 412 l 103 412 l 103 360 l 51 360 l 51 412 m 51 463 l 103 463 l 103 412 l 51 412 l 51 463 m 51 514 l 103 514 l 103 463 l 51 463 l 51 514 m 51 566 l 103 566 l 103 514 l 51 514 l 51 566 m 51 617 l 103 617 l 103 566 l 51 566 l 51 617 m 103 617 l 154 617 l 154 566 l 103 566 l 103 617 m 154 617 l 206 617 l 206 566 l 154 566 l 154 617 m 206 617 l 257 617 l 257 566 l 206 566 l 206 617 m 154 566 l 206 566 l 206 514 l 154 514 l 154 566 m 154 514 l 206 514 l 206 463 l 154 463 l 154 514 m 154 463 l 206 463 l 206 412 l 154 412 l 154 463 m 154 412 l 206 412 l 206 360 l 154 360 l 154 412 m 154 360 l 206 360 l 206 309 l 154 309 l 154 360 m 154 309 l 206 309 l 206 257 l 154 257 l 154 309 m 154 257 l 206 257 l 206 206 l 154 206 l 154 257 m 103 257 l 154 257 l 154 206 l 103 206 l 103 257 m 103 309 l 154 309 l 154 257 l 103 257 l 103 309 m 103 360 l 154 360 l 154 309 l 103 309 l 103 360 m 103 412 l 154 412 l 154 360 l 103 360 l 103 412 m 103 463 l 154 463 l 154 412 l 103 412 l 103 463 m 103 514 l 154 514 l 154 463 l 103 463 l 103 514 m 103 566 l 154 566 l 154 514 l 103 514 l 103 566 m 360 926 l 360 977 l 412 977 l 412 926 l 360 926 m 360 977 l 360 1029 l 412 1029 l 412 977 l 360 977 m 309 926 l 309 977 l 360 977 l 360 926 l 309 926 m 257 926 l 257 977 l 309 977 l 309 926 l 257 926 m 257 874 l 257 926 l 309 926 l 309 874 l 257 874 m 206 926 l 206 977 l 257 977 l 257 926 l 206 926 m 206 977 l 206 1029 l 257 1029 l 257 977 l 206 977 m 154 1029 l 206 1029 l 206 977 l 154 977 l 154 1029 m 154 977 l 206 977 l 206 926 l 154 926 l 154 977 m 412 1029 l 463 1029 l 463 977 l 412 977 l 412 1029 m 412 977 l 463 977 l 463 926 l 412 926 l 412 977 m 309 926 l 360 926 l 360 874 l 309 874 l 309 926 m 360 926 l 412 926 l 412 874 l 360 874 l 360 926 m 206 926 l 257 926 l 257 874 l 206 874 l 206 926 m 257 874 l 309 874 l 309 823 l 257 823 l 257 874 m 309 874 l 360 874 l 360 823 l 309 823 l 309 874 z "},"":{"ha":617,"x_min":51,"x_max":566,"o":"m 154 772 l 206 772 l 206 720 l 154 720 l 154 772 m 206 772 l 257 772 l 257 720 l 206 720 l 206 772 m 257 772 l 309 772 l 309 720 l 257 720 l 257 772 m 309 772 l 360 772 l 360 720 l 309 720 l 309 772 m 360 772 l 412 772 l 412 720 l 360 720 l 360 772 m 412 772 l 463 772 l 463 720 l 412 720 l 412 772 m 412 720 l 463 720 l 463 669 l 412 669 l 412 720 m 463 720 l 514 720 l 514 669 l 463 669 l 463 720 m 360 720 l 412 720 l 412 669 l 360 669 l 360 720 m 309 720 l 360 720 l 360 669 l 309 669 l 309 720 m 257 720 l 309 720 l 309 669 l 257 669 l 257 720 m 206 720 l 257 720 l 257 669 l 206 669 l 206 720 m 154 720 l 206 720 l 206 669 l 154 669 l 154 720 m 103 669 l 154 669 l 154 617 l 103 617 l 103 669 m 103 720 l 154 720 l 154 669 l 103 669 l 103 720 m 51 669 l 103 669 l 103 617 l 51 617 l 51 669 m 154 669 l 206 669 l 206 617 l 154 617 l 154 669 m 206 669 l 257 669 l 257 617 l 206 617 l 206 669 m 257 669 l 309 669 l 309 617 l 257 617 l 257 669 m 309 669 l 360 669 l 360 617 l 309 617 l 309 669 m 360 669 l 412 669 l 412 617 l 360 617 l 360 669 m 412 669 l 463 669 l 463 617 l 412 617 l 412 669 m 463 669 l 514 669 l 514 617 l 463 617 l 463 669 m 514 669 l 566 669 l 566 617 l 514 617 l 514 669 m 514 617 l 566 617 l 566 566 l 514 566 l 514 617 m 463 617 l 514 617 l 514 566 l 463 566 l 463 617 m 412 617 l 463 617 l 463 566 l 412 566 l 412 617 m 360 617 l 412 617 l 412 566 l 360 566 l 360 617 m 412 566 l 463 566 l 463 514 l 412 514 l 412 566 m 514 566 l 566 566 l 566 514 l 514 514 l 514 566 m 463 566 l 514 566 l 514 514 l 463 514 l 463 566 m 514 257 l 566 257 l 566 206 l 514 206 l 514 257 m 514 206 l 566 206 l 566 154 l 514 154 l 514 206 m 514 154 l 566 154 l 566 103 l 514 103 l 514 154 m 463 154 l 514 154 l 514 103 l 463 103 l 463 154 m 463 206 l 514 206 l 514 154 l 463 154 l 463 206 m 463 257 l 514 257 l 514 206 l 463 206 l 463 257 m 412 257 l 463 257 l 463 206 l 412 206 l 412 257 m 412 206 l 463 206 l 463 154 l 412 154 l 412 206 m 360 206 l 412 206 l 412 154 l 360 154 l 360 206 m 412 154 l 463 154 l 463 103 l 412 103 l 412 154 m 463 103 l 514 103 l 514 51 l 463 51 l 463 103 m 412 103 l 463 103 l 463 51 l 412 51 l 412 103 m 360 154 l 412 154 l 412 103 l 360 103 l 360 154 m 360 103 l 412 103 l 412 51 l 360 51 l 360 103 m 412 51 l 463 51 l 463 0 l 412 0 l 412 51 m 360 51 l 412 51 l 412 0 l 360 0 l 360 51 m 309 51 l 360 51 l 360 0 l 309 0 l 309 51 m 257 51 l 309 51 l 309 0 l 257 0 l 257 51 m 206 51 l 257 51 l 257 0 l 206 0 l 206 51 m 154 51 l 206 51 l 206 0 l 154 0 l 154 51 m 154 103 l 206 103 l 206 51 l 154 51 l 154 103 m 206 103 l 257 103 l 257 51 l 206 51 l 206 103 m 206 154 l 257 154 l 257 103 l 206 103 l 206 154 m 257 154 l 309 154 l 309 103 l 257 103 l 257 154 m 309 154 l 360 154 l 360 103 l 309 103 l 309 154 m 309 103 l 360 103 l 360 51 l 309 51 l 309 103 m 257 103 l 309 103 l 309 51 l 257 51 l 257 103 m 103 103 l 154 103 l 154 51 l 103 51 l 103 103 m 154 154 l 206 154 l 206 103 l 154 103 l 154 154 m 206 206 l 257 206 l 257 154 l 206 154 l 206 206 m 154 206 l 206 206 l 206 154 l 154 154 l 154 206 m 103 206 l 154 206 l 154 154 l 103 154 l 103 206 m 103 154 l 154 154 l 154 103 l 103 103 l 103 154 m 51 154 l 103 154 l 103 103 l 51 103 l 51 154 m 51 206 l 103 206 l 103 154 l 51 154 l 51 206 m 51 257 l 103 257 l 103 206 l 51 206 l 51 257 m 51 309 l 103 309 l 103 257 l 51 257 l 51 309 m 51 360 l 103 360 l 103 309 l 51 309 l 51 360 m 51 412 l 103 412 l 103 360 l 51 360 l 51 412 m 51 463 l 103 463 l 103 412 l 51 412 l 51 463 m 51 514 l 103 514 l 103 463 l 51 463 l 51 514 m 51 566 l 103 566 l 103 514 l 51 514 l 51 566 m 51 617 l 103 617 l 103 566 l 51 566 l 51 617 m 103 617 l 154 617 l 154 566 l 103 566 l 103 617 m 154 617 l 206 617 l 206 566 l 154 566 l 154 617 m 206 617 l 257 617 l 257 566 l 206 566 l 206 617 m 154 566 l 206 566 l 206 514 l 154 514 l 154 566 m 154 514 l 206 514 l 206 463 l 154 463 l 154 514 m 154 463 l 206 463 l 206 412 l 154 412 l 154 463 m 154 412 l 206 412 l 206 360 l 154 360 l 154 412 m 154 360 l 206 360 l 206 309 l 154 309 l 154 360 m 154 309 l 206 309 l 206 257 l 154 257 l 154 309 m 154 257 l 206 257 l 206 206 l 154 206 l 154 257 m 103 257 l 154 257 l 154 206 l 103 206 l 103 257 m 103 309 l 154 309 l 154 257 l 103 257 l 103 309 m 103 360 l 154 360 l 154 309 l 103 309 l 103 360 m 103 412 l 154 412 l 154 360 l 103 360 l 103 412 m 103 463 l 154 463 l 154 412 l 103 412 l 103 463 m 103 514 l 154 514 l 154 463 l 103 463 l 103 514 m 103 566 l 154 566 l 154 514 l 103 514 l 103 566 m 257 0 l 309 0 l 309 -51 l 257 -51 l 257 0 m 257 -51 l 309 -51 l 309 -103 l 257 -103 l 257 -51 m 309 -51 l 360 -51 l 360 -103 l 309 -103 l 309 -51 m 309 0 l 360 0 l 360 -51 l 309 -51 l 309 0 m 360 -51 l 412 -51 l 412 -103 l 360 -103 l 360 -51 m 360 -103 l 412 -103 l 412 -154 l 360 -154 l 360 -103 m 360 -154 l 412 -154 l 412 -206 l 360 -206 l 360 -154 m 309 -154 l 360 -154 l 360 -206 l 309 -206 l 309 -154 m 257 -206 l 309 -206 l 309 -257 l 257 -257 l 257 -206 m 309 -206 l 360 -206 l 360 -257 l 309 -257 l 309 -206 m 360 -206 l 412 -206 l 412 -257 l 360 -257 l 360 -206 m 206 -206 l 257 -206 l 257 -257 l 206 -257 l 206 -206 m 257 -154 l 309 -154 l 309 -206 l 257 -206 l 257 -154 m 206 -154 l 257 -154 l 257 -206 l 206 -206 l 206 -154 m 412 -154 l 463 -154 l 463 -206 l 412 -206 l 412 -154 m 412 -103 l 463 -103 l 463 -154 l 412 -154 l 412 -103 z "},"":{"ha":617,"x_min":51,"x_max":566,"o":"m 154 772 l 206 772 l 206 720 l 154 720 l 154 772 m 206 772 l 257 772 l 257 720 l 206 720 l 206 772 m 257 772 l 309 772 l 309 720 l 257 720 l 257 772 m 309 772 l 360 772 l 360 720 l 309 720 l 309 772 m 360 772 l 412 772 l 412 720 l 360 720 l 360 772 m 412 772 l 463 772 l 463 720 l 412 720 l 412 772 m 412 720 l 463 720 l 463 669 l 412 669 l 412 720 m 463 720 l 514 720 l 514 669 l 463 669 l 463 720 m 360 720 l 412 720 l 412 669 l 360 669 l 360 720 m 309 720 l 360 720 l 360 669 l 309 669 l 309 720 m 257 720 l 309 720 l 309 669 l 257 669 l 257 720 m 206 720 l 257 720 l 257 669 l 206 669 l 206 720 m 154 720 l 206 720 l 206 669 l 154 669 l 154 720 m 103 669 l 154 669 l 154 617 l 103 617 l 103 669 m 103 720 l 154 720 l 154 669 l 103 669 l 103 720 m 51 669 l 103 669 l 103 617 l 51 617 l 51 669 m 154 669 l 206 669 l 206 617 l 154 617 l 154 669 m 206 669 l 257 669 l 257 617 l 206 617 l 206 669 m 257 669 l 309 669 l 309 617 l 257 617 l 257 669 m 309 669 l 360 669 l 360 617 l 309 617 l 309 669 m 360 669 l 412 669 l 412 617 l 360 617 l 360 669 m 412 669 l 463 669 l 463 617 l 412 617 l 412 669 m 463 669 l 514 669 l 514 617 l 463 617 l 463 669 m 514 669 l 566 669 l 566 617 l 514 617 l 514 669 m 514 617 l 566 617 l 566 566 l 514 566 l 514 617 m 463 617 l 514 617 l 514 566 l 463 566 l 463 617 m 412 617 l 463 617 l 463 566 l 412 566 l 412 617 m 360 617 l 412 617 l 412 566 l 360 566 l 360 617 m 412 566 l 463 566 l 463 514 l 412 514 l 412 566 m 514 566 l 566 566 l 566 514 l 514 514 l 514 566 m 463 566 l 514 566 l 514 514 l 463 514 l 463 566 m 514 257 l 566 257 l 566 206 l 514 206 l 514 257 m 514 206 l 566 206 l 566 154 l 514 154 l 514 206 m 514 154 l 566 154 l 566 103 l 514 103 l 514 154 m 463 154 l 514 154 l 514 103 l 463 103 l 463 154 m 463 206 l 514 206 l 514 154 l 463 154 l 463 206 m 463 257 l 514 257 l 514 206 l 463 206 l 463 257 m 412 257 l 463 257 l 463 206 l 412 206 l 412 257 m 412 206 l 463 206 l 463 154 l 412 154 l 412 206 m 360 206 l 412 206 l 412 154 l 360 154 l 360 206 m 412 154 l 463 154 l 463 103 l 412 103 l 412 154 m 463 103 l 514 103 l 514 51 l 463 51 l 463 103 m 412 103 l 463 103 l 463 51 l 412 51 l 412 103 m 360 154 l 412 154 l 412 103 l 360 103 l 360 154 m 360 103 l 412 103 l 412 51 l 360 51 l 360 103 m 412 51 l 463 51 l 463 0 l 412 0 l 412 51 m 360 51 l 412 51 l 412 0 l 360 0 l 360 51 m 309 51 l 360 51 l 360 0 l 309 0 l 309 51 m 257 51 l 309 51 l 309 0 l 257 0 l 257 51 m 206 51 l 257 51 l 257 0 l 206 0 l 206 51 m 154 51 l 206 51 l 206 0 l 154 0 l 154 51 m 154 103 l 206 103 l 206 51 l 154 51 l 154 103 m 206 103 l 257 103 l 257 51 l 206 51 l 206 103 m 206 154 l 257 154 l 257 103 l 206 103 l 206 154 m 257 154 l 309 154 l 309 103 l 257 103 l 257 154 m 309 154 l 360 154 l 360 103 l 309 103 l 309 154 m 309 103 l 360 103 l 360 51 l 309 51 l 309 103 m 257 103 l 309 103 l 309 51 l 257 51 l 257 103 m 103 103 l 154 103 l 154 51 l 103 51 l 103 103 m 154 154 l 206 154 l 206 103 l 154 103 l 154 154 m 206 206 l 257 206 l 257 154 l 206 154 l 206 206 m 154 206 l 206 206 l 206 154 l 154 154 l 154 206 m 103 206 l 154 206 l 154 154 l 103 154 l 103 206 m 103 154 l 154 154 l 154 103 l 103 103 l 103 154 m 51 154 l 103 154 l 103 103 l 51 103 l 51 154 m 51 206 l 103 206 l 103 154 l 51 154 l 51 206 m 51 257 l 103 257 l 103 206 l 51 206 l 51 257 m 51 309 l 103 309 l 103 257 l 51 257 l 51 309 m 51 360 l 103 360 l 103 309 l 51 309 l 51 360 m 51 412 l 103 412 l 103 360 l 51 360 l 51 412 m 51 463 l 103 463 l 103 412 l 51 412 l 51 463 m 51 514 l 103 514 l 103 463 l 51 463 l 51 514 m 51 566 l 103 566 l 103 514 l 51 514 l 51 566 m 51 617 l 103 617 l 103 566 l 51 566 l 51 617 m 103 617 l 154 617 l 154 566 l 103 566 l 103 617 m 154 617 l 206 617 l 206 566 l 154 566 l 154 617 m 206 617 l 257 617 l 257 566 l 206 566 l 206 617 m 154 566 l 206 566 l 206 514 l 154 514 l 154 566 m 154 514 l 206 514 l 206 463 l 154 463 l 154 514 m 154 463 l 206 463 l 206 412 l 154 412 l 154 463 m 154 412 l 206 412 l 206 360 l 154 360 l 154 412 m 154 360 l 206 360 l 206 309 l 154 309 l 154 360 m 154 309 l 206 309 l 206 257 l 154 257 l 154 309 m 154 257 l 206 257 l 206 206 l 154 206 l 154 257 m 103 257 l 154 257 l 154 206 l 103 206 l 103 257 m 103 309 l 154 309 l 154 257 l 103 257 l 103 309 m 103 360 l 154 360 l 154 309 l 103 309 l 103 360 m 103 412 l 154 412 l 154 360 l 103 360 l 103 412 m 103 463 l 154 463 l 154 412 l 103 412 l 103 463 m 103 514 l 154 514 l 154 463 l 103 463 l 103 514 m 103 566 l 154 566 l 154 514 l 103 514 l 103 566 m 257 1029 l 309 1029 l 309 977 l 257 977 l 257 1029 m 309 1029 l 360 1029 l 360 977 l 309 977 l 309 1029 m 309 977 l 360 977 l 360 926 l 309 926 l 309 977 m 257 977 l 309 977 l 309 926 l 257 926 l 257 977 m 309 926 l 360 926 l 360 874 l 309 874 l 309 926 m 257 926 l 309 926 l 309 874 l 257 874 l 257 926 m 206 977 l 257 977 l 257 926 l 206 926 l 206 977 m 206 1029 l 257 1029 l 257 977 l 206 977 l 206 1029 m 206 926 l 257 926 l 257 874 l 206 874 l 206 926 z "},"D":{"ha":617,"x_min":51,"x_max":566,"o":"m 154 772 l 206 772 l 206 720 l 154 720 l 154 772 m 206 772 l 257 772 l 257 720 l 206 720 l 206 772 m 257 772 l 309 772 l 309 720 l 257 720 l 257 772 m 309 772 l 360 772 l 360 720 l 309 720 l 309 772 m 360 772 l 412 772 l 412 720 l 360 720 l 360 772 m 412 772 l 463 772 l 463 720 l 412 720 l 412 772 m 412 720 l 463 720 l 463 669 l 412 669 l 412 720 m 463 720 l 514 720 l 514 669 l 463 669 l 463 720 m 360 720 l 412 720 l 412 669 l 360 669 l 360 720 m 309 720 l 360 720 l 360 669 l 309 669 l 309 720 m 257 720 l 309 720 l 309 669 l 257 669 l 257 720 m 206 720 l 257 720 l 257 669 l 206 669 l 206 720 m 154 720 l 206 720 l 206 669 l 154 669 l 154 720 m 103 669 l 154 669 l 154 617 l 103 617 l 103 669 m 103 720 l 154 720 l 154 669 l 103 669 l 103 720 m 51 669 l 103 669 l 103 617 l 51 617 l 51 669 m 154 669 l 206 669 l 206 617 l 154 617 l 154 669 m 206 669 l 257 669 l 257 617 l 206 617 l 206 669 m 257 669 l 309 669 l 309 617 l 257 617 l 257 669 m 309 669 l 360 669 l 360 617 l 309 617 l 309 669 m 360 669 l 412 669 l 412 617 l 360 617 l 360 669 m 412 669 l 463 669 l 463 617 l 412 617 l 412 669 m 463 669 l 514 669 l 514 617 l 463 617 l 463 669 m 514 669 l 566 669 l 566 617 l 514 617 l 514 669 m 514 617 l 566 617 l 566 566 l 514 566 l 514 617 m 463 617 l 514 617 l 514 566 l 463 566 l 463 617 m 412 617 l 463 617 l 463 566 l 412 566 l 412 617 m 360 617 l 412 617 l 412 566 l 360 566 l 360 617 m 412 566 l 463 566 l 463 514 l 412 514 l 412 566 m 412 514 l 463 514 l 463 463 l 412 463 l 412 514 m 412 463 l 463 463 l 463 412 l 412 412 l 412 463 m 412 412 l 463 412 l 463 360 l 412 360 l 412 412 m 412 360 l 463 360 l 463 309 l 412 309 l 412 360 m 463 412 l 514 412 l 514 360 l 463 360 l 463 412 m 514 412 l 566 412 l 566 360 l 514 360 l 514 412 m 514 463 l 566 463 l 566 412 l 514 412 l 514 463 m 514 514 l 566 514 l 566 463 l 514 463 l 514 514 m 514 566 l 566 566 l 566 514 l 514 514 l 514 566 m 463 566 l 514 566 l 514 514 l 463 514 l 463 566 m 463 514 l 514 514 l 514 463 l 463 463 l 463 514 m 463 463 l 514 463 l 514 412 l 463 412 l 463 463 m 463 360 l 514 360 l 514 309 l 463 309 l 463 360 m 463 309 l 514 309 l 514 257 l 463 257 l 463 309 m 514 309 l 566 309 l 566 257 l 514 257 l 514 309 m 514 360 l 566 360 l 566 309 l 514 309 l 514 360 m 514 257 l 566 257 l 566 206 l 514 206 l 514 257 m 514 206 l 566 206 l 566 154 l 514 154 l 514 206 m 514 154 l 566 154 l 566 103 l 514 103 l 514 154 m 463 154 l 514 154 l 514 103 l 463 103 l 463 154 m 463 206 l 514 206 l 514 154 l 463 154 l 463 206 m 463 257 l 514 257 l 514 206 l 463 206 l 463 257 m 412 309 l 463 309 l 463 257 l 412 257 l 412 309 m 412 257 l 463 257 l 463 206 l 412 206 l 412 257 m 412 206 l 463 206 l 463 154 l 412 154 l 412 206 m 360 206 l 412 206 l 412 154 l 360 154 l 360 206 m 412 154 l 463 154 l 463 103 l 412 103 l 412 154 m 463 103 l 514 103 l 514 51 l 463 51 l 463 103 m 412 103 l 463 103 l 463 51 l 412 51 l 412 103 m 360 154 l 412 154 l 412 103 l 360 103 l 360 154 m 360 103 l 412 103 l 412 51 l 360 51 l 360 103 m 412 51 l 463 51 l 463 0 l 412 0 l 412 51 m 360 51 l 412 51 l 412 0 l 360 0 l 360 51 m 309 51 l 360 51 l 360 0 l 309 0 l 309 51 m 257 51 l 309 51 l 309 0 l 257 0 l 257 51 m 206 51 l 257 51 l 257 0 l 206 0 l 206 51 m 154 51 l 206 51 l 206 0 l 154 0 l 154 51 m 154 103 l 206 103 l 206 51 l 154 51 l 154 103 m 206 103 l 257 103 l 257 51 l 206 51 l 206 103 m 206 154 l 257 154 l 257 103 l 206 103 l 206 154 m 257 154 l 309 154 l 309 103 l 257 103 l 257 154 m 309 154 l 360 154 l 360 103 l 309 103 l 309 154 m 309 103 l 360 103 l 360 51 l 309 51 l 309 103 m 257 103 l 309 103 l 309 51 l 257 51 l 257 103 m 103 103 l 154 103 l 154 51 l 103 51 l 103 103 m 154 154 l 206 154 l 206 103 l 154 103 l 154 154 m 154 206 l 206 206 l 206 154 l 154 154 l 154 206 m 103 206 l 154 206 l 154 154 l 103 154 l 103 206 m 103 154 l 154 154 l 154 103 l 103 103 l 103 154 m 51 154 l 103 154 l 103 103 l 51 103 l 51 154 m 51 206 l 103 206 l 103 154 l 51 154 l 51 206 m 51 257 l 103 257 l 103 206 l 51 206 l 51 257 m 51 309 l 103 309 l 103 257 l 51 257 l 51 309 m 51 360 l 103 360 l 103 309 l 51 309 l 51 360 m 51 412 l 103 412 l 103 360 l 51 360 l 51 412 m 51 463 l 103 463 l 103 412 l 51 412 l 51 463 m 51 514 l 103 514 l 103 463 l 51 463 l 51 514 m 51 566 l 103 566 l 103 514 l 51 514 l 51 566 m 51 617 l 103 617 l 103 566 l 51 566 l 51 617 m 103 617 l 154 617 l 154 566 l 103 566 l 103 617 m 154 617 l 206 617 l 206 566 l 154 566 l 154 617 m 154 566 l 206 566 l 206 514 l 154 514 l 154 566 m 154 514 l 206 514 l 206 463 l 154 463 l 154 514 m 154 463 l 206 463 l 206 412 l 154 412 l 154 463 m 154 412 l 206 412 l 206 360 l 154 360 l 154 412 m 154 360 l 206 360 l 206 309 l 154 309 l 154 360 m 154 309 l 206 309 l 206 257 l 154 257 l 154 309 m 154 257 l 206 257 l 206 206 l 154 206 l 154 257 m 103 257 l 154 257 l 154 206 l 103 206 l 103 257 m 103 309 l 154 309 l 154 257 l 103 257 l 103 309 m 103 360 l 154 360 l 154 309 l 103 309 l 103 360 m 103 412 l 154 412 l 154 360 l 103 360 l 103 412 m 103 463 l 154 463 l 154 412 l 103 412 l 103 463 m 103 514 l 154 514 l 154 463 l 103 463 l 103 514 m 103 566 l 154 566 l 154 514 l 103 514 l 103 566 m 51 103 l 103 103 l 103 51 l 51 51 l 51 103 m 51 51 l 103 51 l 103 0 l 51 0 l 51 51 m 103 51 l 154 51 l 154 0 l 103 0 l 103 51 m 103 772 l 154 772 l 154 720 l 103 720 l 103 772 m 51 772 l 103 772 l 103 720 l 51 720 l 51 772 m 51 720 l 103 720 l 103 669 l 51 669 l 51 720 z "},"":{"ha":669,"x_min":0,"x_max":617,"o":"m 206 772 l 257 772 l 257 720 l 206 720 l 206 772 m 257 772 l 309 772 l 309 720 l 257 720 l 257 772 m 309 772 l 360 772 l 360 720 l 309 720 l 309 772 m 360 772 l 412 772 l 412 720 l 360 720 l 360 772 m 412 772 l 463 772 l 463 720 l 412 720 l 412 772 m 463 772 l 514 772 l 514 720 l 463 720 l 463 772 m 463 720 l 514 720 l 514 669 l 463 669 l 463 720 m 514 720 l 566 720 l 566 669 l 514 669 l 514 720 m 412 720 l 463 720 l 463 669 l 412 669 l 412 720 m 360 720 l 412 720 l 412 669 l 360 669 l 360 720 m 309 720 l 360 720 l 360 669 l 309 669 l 309 720 m 257 720 l 309 720 l 309 669 l 257 669 l 257 720 m 206 720 l 257 720 l 257 669 l 206 669 l 206 720 m 154 669 l 206 669 l 206 617 l 154 617 l 154 669 m 154 720 l 206 720 l 206 669 l 154 669 l 154 720 m 103 669 l 154 669 l 154 617 l 103 617 l 103 669 m 206 669 l 257 669 l 257 617 l 206 617 l 206 669 m 257 669 l 309 669 l 309 617 l 257 617 l 257 669 m 309 669 l 360 669 l 360 617 l 309 617 l 309 669 m 360 669 l 412 669 l 412 617 l 360 617 l 360 669 m 412 669 l 463 669 l 463 617 l 412 617 l 412 669 m 463 669 l 514 669 l 514 617 l 463 617 l 463 669 m 514 669 l 566 669 l 566 617 l 514 617 l 514 669 m 566 669 l 617 669 l 617 617 l 566 617 l 566 669 m 566 617 l 617 617 l 617 566 l 566 566 l 566 617 m 514 617 l 566 617 l 566 566 l 514 566 l 514 617 m 463 617 l 514 617 l 514 566 l 463 566 l 463 617 m 412 617 l 463 617 l 463 566 l 412 566 l 412 617 m 463 566 l 514 566 l 514 514 l 463 514 l 463 566 m 463 514 l 514 514 l 514 463 l 463 463 l 463 514 m 463 463 l 514 463 l 514 412 l 463 412 l 463 463 m 463 412 l 514 412 l 514 360 l 463 360 l 463 412 m 463 360 l 514 360 l 514 309 l 463 309 l 463 360 m 514 412 l 566 412 l 566 360 l 514 360 l 514 412 m 566 412 l 617 412 l 617 360 l 566 360 l 566 412 m 566 463 l 617 463 l 617 412 l 566 412 l 566 463 m 566 514 l 617 514 l 617 463 l 566 463 l 566 514 m 566 566 l 617 566 l 617 514 l 566 514 l 566 566 m 514 566 l 566 566 l 566 514 l 514 514 l 514 566 m 514 514 l 566 514 l 566 463 l 514 463 l 514 514 m 514 463 l 566 463 l 566 412 l 514 412 l 514 463 m 514 360 l 566 360 l 566 309 l 514 309 l 514 360 m 514 309 l 566 309 l 566 257 l 514 257 l 514 309 m 566 309 l 617 309 l 617 257 l 566 257 l 566 309 m 566 360 l 617 360 l 617 309 l 566 309 l 566 360 m 566 257 l 617 257 l 617 206 l 566 206 l 566 257 m 566 206 l 617 206 l 617 154 l 566 154 l 566 206 m 566 154 l 617 154 l 617 103 l 566 103 l 566 154 m 514 154 l 566 154 l 566 103 l 514 103 l 514 154 m 514 206 l 566 206 l 566 154 l 514 154 l 514 206 m 514 257 l 566 257 l 566 206 l 514 206 l 514 257 m 463 309 l 514 309 l 514 257 l 463 257 l 463 309 m 463 257 l 514 257 l 514 206 l 463 206 l 463 257 m 463 206 l 514 206 l 514 154 l 463 154 l 463 206 m 412 206 l 463 206 l 463 154 l 412 154 l 412 206 m 463 154 l 514 154 l 514 103 l 463 103 l 463 154 m 514 103 l 566 103 l 566 51 l 514 51 l 514 103 m 463 103 l 514 103 l 514 51 l 463 51 l 463 103 m 412 154 l 463 154 l 463 103 l 412 103 l 412 154 m 412 103 l 463 103 l 463 51 l 412 51 l 412 103 m 463 51 l 514 51 l 514 0 l 463 0 l 463 51 m 412 51 l 463 51 l 463 0 l 412 0 l 412 51 m 360 51 l 412 51 l 412 0 l 360 0 l 360 51 m 309 51 l 360 51 l 360 0 l 309 0 l 309 51 m 257 51 l 309 51 l 309 0 l 257 0 l 257 51 m 206 51 l 257 51 l 257 0 l 206 0 l 206 51 m 206 103 l 257 103 l 257 51 l 206 51 l 206 103 m 257 103 l 309 103 l 309 51 l 257 51 l 257 103 m 257 154 l 309 154 l 309 103 l 257 103 l 257 154 m 309 154 l 360 154 l 360 103 l 309 103 l 309 154 m 360 154 l 412 154 l 412 103 l 360 103 l 360 154 m 360 103 l 412 103 l 412 51 l 360 51 l 360 103 m 309 103 l 360 103 l 360 51 l 309 51 l 309 103 m 154 103 l 206 103 l 206 51 l 154 51 l 154 103 m 206 154 l 257 154 l 257 103 l 206 103 l 206 154 m 206 206 l 257 206 l 257 154 l 206 154 l 206 206 m 154 206 l 206 206 l 206 154 l 154 154 l 154 206 m 154 154 l 206 154 l 206 103 l 154 103 l 154 154 m 103 154 l 154 154 l 154 103 l 103 103 l 103 154 m 103 206 l 154 206 l 154 154 l 103 154 l 103 206 m 103 257 l 154 257 l 154 206 l 103 206 l 103 257 m 103 309 l 154 309 l 154 257 l 103 257 l 103 309 m 103 360 l 154 360 l 154 309 l 103 309 l 103 360 m 103 412 l 154 412 l 154 360 l 103 360 l 103 412 m 103 463 l 154 463 l 154 412 l 103 412 l 103 463 m 103 514 l 154 514 l 154 463 l 103 463 l 103 514 m 103 566 l 154 566 l 154 514 l 103 514 l 103 566 m 103 617 l 154 617 l 154 566 l 103 566 l 103 617 m 154 617 l 206 617 l 206 566 l 154 566 l 154 617 m 206 617 l 257 617 l 257 566 l 206 566 l 206 617 m 206 566 l 257 566 l 257 514 l 206 514 l 206 566 m 206 514 l 257 514 l 257 463 l 206 463 l 206 514 m 206 463 l 257 463 l 257 412 l 206 412 l 206 463 m 206 412 l 257 412 l 257 360 l 206 360 l 206 412 m 206 360 l 257 360 l 257 309 l 206 309 l 206 360 m 206 309 l 257 309 l 257 257 l 206 257 l 206 309 m 206 257 l 257 257 l 257 206 l 206 206 l 206 257 m 154 257 l 206 257 l 206 206 l 154 206 l 154 257 m 154 309 l 206 309 l 206 257 l 154 257 l 154 309 m 154 360 l 206 360 l 206 309 l 154 309 l 154 360 m 154 412 l 206 412 l 206 360 l 154 360 l 154 412 m 154 463 l 206 463 l 206 412 l 154 412 l 154 463 m 154 514 l 206 514 l 206 463 l 154 463 l 154 514 m 154 566 l 206 566 l 206 514 l 154 514 l 154 566 m 103 103 l 154 103 l 154 51 l 103 51 l 103 103 m 103 51 l 154 51 l 154 0 l 103 0 l 103 51 m 154 51 l 206 51 l 206 0 l 154 0 l 154 51 m 154 772 l 206 772 l 206 720 l 154 720 l 154 772 m 103 772 l 154 772 l 154 720 l 103 720 l 103 772 m 103 720 l 154 720 l 154 669 l 103 669 l 103 720 m 257 412 l 309 412 l 309 360 l 257 360 l 257 412 m 309 412 l 360 412 l 360 360 l 309 360 l 309 412 m 309 463 l 360 463 l 360 412 l 309 412 l 309 463 m 257 463 l 309 463 l 309 412 l 257 412 l 257 463 m 51 463 l 103 463 l 103 412 l 51 412 l 51 463 m 0 463 l 51 463 l 51 412 l 0 412 l 0 463 m 0 412 l 51 412 l 51 360 l 0 360 l 0 412 m 51 412 l 103 412 l 103 360 l 51 360 l 51 412 m 360 463 l 412 463 l 412 412 l 360 412 l 360 463 m 360 412 l 412 412 l 412 360 l 360 360 l 360 412 z "},"":{"ha":617,"x_min":51,"x_max":566,"o":"m 154 772 l 206 772 l 206 720 l 154 720 l 154 772 m 206 772 l 257 772 l 257 720 l 206 720 l 206 772 m 257 772 l 309 772 l 309 720 l 257 720 l 257 772 m 309 772 l 360 772 l 360 720 l 309 720 l 309 772 m 360 772 l 412 772 l 412 720 l 360 720 l 360 772 m 412 772 l 463 772 l 463 720 l 412 720 l 412 772 m 412 720 l 463 720 l 463 669 l 412 669 l 412 720 m 463 720 l 514 720 l 514 669 l 463 669 l 463 720 m 360 720 l 412 720 l 412 669 l 360 669 l 360 720 m 309 720 l 360 720 l 360 669 l 309 669 l 309 720 m 257 720 l 309 720 l 309 669 l 257 669 l 257 720 m 206 720 l 257 720 l 257 669 l 206 669 l 206 720 m 154 720 l 206 720 l 206 669 l 154 669 l 154 720 m 103 669 l 154 669 l 154 617 l 103 617 l 103 669 m 103 720 l 154 720 l 154 669 l 103 669 l 103 720 m 51 669 l 103 669 l 103 617 l 51 617 l 51 669 m 154 669 l 206 669 l 206 617 l 154 617 l 154 669 m 206 669 l 257 669 l 257 617 l 206 617 l 206 669 m 257 669 l 309 669 l 309 617 l 257 617 l 257 669 m 309 669 l 360 669 l 360 617 l 309 617 l 309 669 m 360 669 l 412 669 l 412 617 l 360 617 l 360 669 m 412 669 l 463 669 l 463 617 l 412 617 l 412 669 m 463 669 l 514 669 l 514 617 l 463 617 l 463 669 m 514 669 l 566 669 l 566 617 l 514 617 l 514 669 m 514 617 l 566 617 l 566 566 l 514 566 l 514 617 m 463 617 l 514 617 l 514 566 l 463 566 l 463 617 m 412 617 l 463 617 l 463 566 l 412 566 l 412 617 m 360 617 l 412 617 l 412 566 l 360 566 l 360 617 m 412 566 l 463 566 l 463 514 l 412 514 l 412 566 m 412 514 l 463 514 l 463 463 l 412 463 l 412 514 m 412 463 l 463 463 l 463 412 l 412 412 l 412 463 m 412 412 l 463 412 l 463 360 l 412 360 l 412 412 m 412 360 l 463 360 l 463 309 l 412 309 l 412 360 m 463 412 l 514 412 l 514 360 l 463 360 l 463 412 m 514 412 l 566 412 l 566 360 l 514 360 l 514 412 m 514 463 l 566 463 l 566 412 l 514 412 l 514 463 m 514 514 l 566 514 l 566 463 l 514 463 l 514 514 m 514 566 l 566 566 l 566 514 l 514 514 l 514 566 m 463 566 l 514 566 l 514 514 l 463 514 l 463 566 m 463 514 l 514 514 l 514 463 l 463 463 l 463 514 m 463 463 l 514 463 l 514 412 l 463 412 l 463 463 m 463 360 l 514 360 l 514 309 l 463 309 l 463 360 m 463 309 l 514 309 l 514 257 l 463 257 l 463 309 m 514 309 l 566 309 l 566 257 l 514 257 l 514 309 m 514 360 l 566 360 l 566 309 l 514 309 l 514 360 m 514 257 l 566 257 l 566 206 l 514 206 l 514 257 m 514 206 l 566 206 l 566 154 l 514 154 l 514 206 m 514 154 l 566 154 l 566 103 l 514 103 l 514 154 m 463 154 l 514 154 l 514 103 l 463 103 l 463 154 m 463 206 l 514 206 l 514 154 l 463 154 l 463 206 m 463 257 l 514 257 l 514 206 l 463 206 l 463 257 m 412 309 l 463 309 l 463 257 l 412 257 l 412 309 m 412 257 l 463 257 l 463 206 l 412 206 l 412 257 m 412 206 l 463 206 l 463 154 l 412 154 l 412 206 m 360 206 l 412 206 l 412 154 l 360 154 l 360 206 m 412 154 l 463 154 l 463 103 l 412 103 l 412 154 m 463 103 l 514 103 l 514 51 l 463 51 l 463 103 m 412 103 l 463 103 l 463 51 l 412 51 l 412 103 m 360 154 l 412 154 l 412 103 l 360 103 l 360 154 m 360 103 l 412 103 l 412 51 l 360 51 l 360 103 m 412 51 l 463 51 l 463 0 l 412 0 l 412 51 m 360 51 l 412 51 l 412 0 l 360 0 l 360 51 m 309 51 l 360 51 l 360 0 l 309 0 l 309 51 m 257 51 l 309 51 l 309 0 l 257 0 l 257 51 m 206 51 l 257 51 l 257 0 l 206 0 l 206 51 m 154 51 l 206 51 l 206 0 l 154 0 l 154 51 m 154 103 l 206 103 l 206 51 l 154 51 l 154 103 m 206 103 l 257 103 l 257 51 l 206 51 l 206 103 m 206 154 l 257 154 l 257 103 l 206 103 l 206 154 m 257 154 l 309 154 l 309 103 l 257 103 l 257 154 m 309 154 l 360 154 l 360 103 l 309 103 l 309 154 m 309 103 l 360 103 l 360 51 l 309 51 l 309 103 m 257 103 l 309 103 l 309 51 l 257 51 l 257 103 m 103 103 l 154 103 l 154 51 l 103 51 l 103 103 m 154 154 l 206 154 l 206 103 l 154 103 l 154 154 m 154 206 l 206 206 l 206 154 l 154 154 l 154 206 m 103 206 l 154 206 l 154 154 l 103 154 l 103 206 m 103 154 l 154 154 l 154 103 l 103 103 l 103 154 m 51 154 l 103 154 l 103 103 l 51 103 l 51 154 m 51 206 l 103 206 l 103 154 l 51 154 l 51 206 m 51 257 l 103 257 l 103 206 l 51 206 l 51 257 m 51 309 l 103 309 l 103 257 l 51 257 l 51 309 m 51 360 l 103 360 l 103 309 l 51 309 l 51 360 m 51 412 l 103 412 l 103 360 l 51 360 l 51 412 m 51 463 l 103 463 l 103 412 l 51 412 l 51 463 m 51 514 l 103 514 l 103 463 l 51 463 l 51 514 m 51 566 l 103 566 l 103 514 l 51 514 l 51 566 m 51 617 l 103 617 l 103 566 l 51 566 l 51 617 m 103 617 l 154 617 l 154 566 l 103 566 l 103 617 m 154 617 l 206 617 l 206 566 l 154 566 l 154 617 m 154 566 l 206 566 l 206 514 l 154 514 l 154 566 m 154 514 l 206 514 l 206 463 l 154 463 l 154 514 m 154 463 l 206 463 l 206 412 l 154 412 l 154 463 m 154 412 l 206 412 l 206 360 l 154 360 l 154 412 m 154 360 l 206 360 l 206 309 l 154 309 l 154 360 m 154 309 l 206 309 l 206 257 l 154 257 l 154 309 m 154 257 l 206 257 l 206 206 l 154 206 l 154 257 m 103 257 l 154 257 l 154 206 l 103 206 l 103 257 m 103 309 l 154 309 l 154 257 l 103 257 l 103 309 m 103 360 l 154 360 l 154 309 l 103 309 l 103 360 m 103 412 l 154 412 l 154 360 l 103 360 l 103 412 m 103 463 l 154 463 l 154 412 l 103 412 l 103 463 m 103 514 l 154 514 l 154 463 l 103 463 l 103 514 m 103 566 l 154 566 l 154 514 l 103 514 l 103 566 m 51 103 l 103 103 l 103 51 l 51 51 l 51 103 m 51 51 l 103 51 l 103 0 l 51 0 l 51 51 m 103 51 l 154 51 l 154 0 l 103 0 l 103 51 m 103 772 l 154 772 l 154 720 l 103 720 l 103 772 m 51 772 l 103 772 l 103 720 l 51 720 l 51 772 m 51 720 l 103 720 l 103 669 l 51 669 l 51 720 m 309 926 l 309 977 l 360 977 l 360 926 l 309 926 m 309 977 l 309 1029 l 360 1029 l 360 977 l 309 977 m 257 926 l 257 977 l 309 977 l 309 926 l 257 926 m 206 926 l 206 977 l 257 977 l 257 926 l 206 926 m 206 874 l 206 926 l 257 926 l 257 874 l 206 874 m 154 926 l 154 977 l 206 977 l 206 926 l 154 926 m 154 977 l 154 1029 l 206 1029 l 206 977 l 154 977 m 103 1029 l 154 1029 l 154 977 l 103 977 l 103 1029 m 103 977 l 154 977 l 154 926 l 103 926 l 103 977 m 360 1029 l 412 1029 l 412 977 l 360 977 l 360 1029 m 360 977 l 412 977 l 412 926 l 360 926 l 360 977 m 257 926 l 309 926 l 309 874 l 257 874 l 257 926 m 309 926 l 360 926 l 360 874 l 309 874 l 309 926 m 154 926 l 206 926 l 206 874 l 154 874 l 154 926 m 206 874 l 257 874 l 257 823 l 206 823 l 206 874 m 257 874 l 309 874 l 309 823 l 257 823 l 257 874 z "},"":{"ha":669,"x_min":0,"x_max":617,"o":"m 206 772 l 257 772 l 257 720 l 206 720 l 206 772 m 257 772 l 309 772 l 309 720 l 257 720 l 257 772 m 309 772 l 360 772 l 360 720 l 309 720 l 309 772 m 360 772 l 412 772 l 412 720 l 360 720 l 360 772 m 412 772 l 463 772 l 463 720 l 412 720 l 412 772 m 463 772 l 514 772 l 514 720 l 463 720 l 463 772 m 463 720 l 514 720 l 514 669 l 463 669 l 463 720 m 514 720 l 566 720 l 566 669 l 514 669 l 514 720 m 412 720 l 463 720 l 463 669 l 412 669 l 412 720 m 360 720 l 412 720 l 412 669 l 360 669 l 360 720 m 309 720 l 360 720 l 360 669 l 309 669 l 309 720 m 257 720 l 309 720 l 309 669 l 257 669 l 257 720 m 206 720 l 257 720 l 257 669 l 206 669 l 206 720 m 154 669 l 206 669 l 206 617 l 154 617 l 154 669 m 154 720 l 206 720 l 206 669 l 154 669 l 154 720 m 103 669 l 154 669 l 154 617 l 103 617 l 103 669 m 206 669 l 257 669 l 257 617 l 206 617 l 206 669 m 257 669 l 309 669 l 309 617 l 257 617 l 257 669 m 309 669 l 360 669 l 360 617 l 309 617 l 309 669 m 360 669 l 412 669 l 412 617 l 360 617 l 360 669 m 412 669 l 463 669 l 463 617 l 412 617 l 412 669 m 463 669 l 514 669 l 514 617 l 463 617 l 463 669 m 514 669 l 566 669 l 566 617 l 514 617 l 514 669 m 566 669 l 617 669 l 617 617 l 566 617 l 566 669 m 566 617 l 617 617 l 617 566 l 566 566 l 566 617 m 514 617 l 566 617 l 566 566 l 514 566 l 514 617 m 463 617 l 514 617 l 514 566 l 463 566 l 463 617 m 412 617 l 463 617 l 463 566 l 412 566 l 412 617 m 463 566 l 514 566 l 514 514 l 463 514 l 463 566 m 463 514 l 514 514 l 514 463 l 463 463 l 463 514 m 463 463 l 514 463 l 514 412 l 463 412 l 463 463 m 463 412 l 514 412 l 514 360 l 463 360 l 463 412 m 463 360 l 514 360 l 514 309 l 463 309 l 463 360 m 514 412 l 566 412 l 566 360 l 514 360 l 514 412 m 566 412 l 617 412 l 617 360 l 566 360 l 566 412 m 566 463 l 617 463 l 617 412 l 566 412 l 566 463 m 566 514 l 617 514 l 617 463 l 566 463 l 566 514 m 566 566 l 617 566 l 617 514 l 566 514 l 566 566 m 514 566 l 566 566 l 566 514 l 514 514 l 514 566 m 514 514 l 566 514 l 566 463 l 514 463 l 514 514 m 514 463 l 566 463 l 566 412 l 514 412 l 514 463 m 514 360 l 566 360 l 566 309 l 514 309 l 514 360 m 514 309 l 566 309 l 566 257 l 514 257 l 514 309 m 566 309 l 617 309 l 617 257 l 566 257 l 566 309 m 566 360 l 617 360 l 617 309 l 566 309 l 566 360 m 566 257 l 617 257 l 617 206 l 566 206 l 566 257 m 566 206 l 617 206 l 617 154 l 566 154 l 566 206 m 566 154 l 617 154 l 617 103 l 566 103 l 566 154 m 514 154 l 566 154 l 566 103 l 514 103 l 514 154 m 514 206 l 566 206 l 566 154 l 514 154 l 514 206 m 514 257 l 566 257 l 566 206 l 514 206 l 514 257 m 463 309 l 514 309 l 514 257 l 463 257 l 463 309 m 463 257 l 514 257 l 514 206 l 463 206 l 463 257 m 463 206 l 514 206 l 514 154 l 463 154 l 463 206 m 412 206 l 463 206 l 463 154 l 412 154 l 412 206 m 463 154 l 514 154 l 514 103 l 463 103 l 463 154 m 514 103 l 566 103 l 566 51 l 514 51 l 514 103 m 463 103 l 514 103 l 514 51 l 463 51 l 463 103 m 412 154 l 463 154 l 463 103 l 412 103 l 412 154 m 412 103 l 463 103 l 463 51 l 412 51 l 412 103 m 463 51 l 514 51 l 514 0 l 463 0 l 463 51 m 412 51 l 463 51 l 463 0 l 412 0 l 412 51 m 360 51 l 412 51 l 412 0 l 360 0 l 360 51 m 309 51 l 360 51 l 360 0 l 309 0 l 309 51 m 257 51 l 309 51 l 309 0 l 257 0 l 257 51 m 206 51 l 257 51 l 257 0 l 206 0 l 206 51 m 206 103 l 257 103 l 257 51 l 206 51 l 206 103 m 257 103 l 309 103 l 309 51 l 257 51 l 257 103 m 257 154 l 309 154 l 309 103 l 257 103 l 257 154 m 309 154 l 360 154 l 360 103 l 309 103 l 309 154 m 360 154 l 412 154 l 412 103 l 360 103 l 360 154 m 360 103 l 412 103 l 412 51 l 360 51 l 360 103 m 309 103 l 360 103 l 360 51 l 309 51 l 309 103 m 154 103 l 206 103 l 206 51 l 154 51 l 154 103 m 206 154 l 257 154 l 257 103 l 206 103 l 206 154 m 206 206 l 257 206 l 257 154 l 206 154 l 206 206 m 154 206 l 206 206 l 206 154 l 154 154 l 154 206 m 154 154 l 206 154 l 206 103 l 154 103 l 154 154 m 103 154 l 154 154 l 154 103 l 103 103 l 103 154 m 103 206 l 154 206 l 154 154 l 103 154 l 103 206 m 103 257 l 154 257 l 154 206 l 103 206 l 103 257 m 103 309 l 154 309 l 154 257 l 103 257 l 103 309 m 103 360 l 154 360 l 154 309 l 103 309 l 103 360 m 103 412 l 154 412 l 154 360 l 103 360 l 103 412 m 103 463 l 154 463 l 154 412 l 103 412 l 103 463 m 103 514 l 154 514 l 154 463 l 103 463 l 103 514 m 103 566 l 154 566 l 154 514 l 103 514 l 103 566 m 103 617 l 154 617 l 154 566 l 103 566 l 103 617 m 154 617 l 206 617 l 206 566 l 154 566 l 154 617 m 206 617 l 257 617 l 257 566 l 206 566 l 206 617 m 206 566 l 257 566 l 257 514 l 206 514 l 206 566 m 206 514 l 257 514 l 257 463 l 206 463 l 206 514 m 206 463 l 257 463 l 257 412 l 206 412 l 206 463 m 206 412 l 257 412 l 257 360 l 206 360 l 206 412 m 206 360 l 257 360 l 257 309 l 206 309 l 206 360 m 206 309 l 257 309 l 257 257 l 206 257 l 206 309 m 206 257 l 257 257 l 257 206 l 206 206 l 206 257 m 154 257 l 206 257 l 206 206 l 154 206 l 154 257 m 154 309 l 206 309 l 206 257 l 154 257 l 154 309 m 154 360 l 206 360 l 206 309 l 154 309 l 154 360 m 154 412 l 206 412 l 206 360 l 154 360 l 154 412 m 154 463 l 206 463 l 206 412 l 154 412 l 154 463 m 154 514 l 206 514 l 206 463 l 154 463 l 154 514 m 154 566 l 206 566 l 206 514 l 154 514 l 154 566 m 103 103 l 154 103 l 154 51 l 103 51 l 103 103 m 103 51 l 154 51 l 154 0 l 103 0 l 103 51 m 154 51 l 206 51 l 206 0 l 154 0 l 154 51 m 154 772 l 206 772 l 206 720 l 154 720 l 154 772 m 103 772 l 154 772 l 154 720 l 103 720 l 103 772 m 103 720 l 154 720 l 154 669 l 103 669 l 103 720 m 257 412 l 309 412 l 309 360 l 257 360 l 257 412 m 309 412 l 360 412 l 360 360 l 309 360 l 309 412 m 360 412 l 412 412 l 412 360 l 360 360 l 360 412 m 360 463 l 412 463 l 412 412 l 360 412 l 360 463 m 309 463 l 360 463 l 360 412 l 309 412 l 309 463 m 257 463 l 309 463 l 309 412 l 257 412 l 257 463 m 51 463 l 103 463 l 103 412 l 51 412 l 51 463 m 0 463 l 51 463 l 51 412 l 0 412 l 0 463 m 0 412 l 51 412 l 51 360 l 0 360 l 0 412 m 51 412 l 103 412 l 103 360 l 51 360 l 51 412 z "},"E":{"ha":566,"x_min":51,"x_max":514,"o":"m 103 772 l 154 772 l 154 720 l 103 720 l 103 772 m 103 720 l 154 720 l 154 669 l 103 669 l 103 720 m 103 669 l 154 669 l 154 617 l 103 617 l 103 669 m 103 617 l 154 617 l 154 566 l 103 566 l 103 617 m 103 566 l 154 566 l 154 514 l 103 514 l 103 566 m 103 514 l 154 514 l 154 463 l 103 463 l 103 514 m 103 463 l 154 463 l 154 412 l 103 412 l 103 463 m 103 412 l 154 412 l 154 360 l 103 360 l 103 412 m 103 360 l 154 360 l 154 309 l 103 309 l 103 360 m 103 309 l 154 309 l 154 257 l 103 257 l 103 309 m 103 257 l 154 257 l 154 206 l 103 206 l 103 257 m 103 206 l 154 206 l 154 154 l 103 154 l 103 206 m 103 154 l 154 154 l 154 103 l 103 103 l 103 154 m 103 103 l 154 103 l 154 51 l 103 51 l 103 103 m 103 51 l 154 51 l 154 0 l 103 0 l 103 51 m 51 51 l 103 51 l 103 0 l 51 0 l 51 51 m 51 103 l 103 103 l 103 51 l 51 51 l 51 103 m 51 154 l 103 154 l 103 103 l 51 103 l 51 154 m 51 720 l 103 720 l 103 669 l 51 669 l 51 720 m 51 772 l 103 772 l 103 720 l 51 720 l 51 772 m 51 669 l 103 669 l 103 617 l 51 617 l 51 669 m 51 617 l 103 617 l 103 566 l 51 566 l 51 617 m 51 566 l 103 566 l 103 514 l 51 514 l 51 566 m 51 514 l 103 514 l 103 463 l 51 463 l 51 514 m 51 463 l 103 463 l 103 412 l 51 412 l 51 463 m 51 412 l 103 412 l 103 360 l 51 360 l 51 412 m 51 360 l 103 360 l 103 309 l 51 309 l 51 360 m 51 309 l 103 309 l 103 257 l 51 257 l 51 309 m 51 257 l 103 257 l 103 206 l 51 206 l 51 257 m 51 206 l 103 206 l 103 154 l 51 154 l 51 206 m 154 51 l 206 51 l 206 0 l 154 0 l 154 51 m 154 103 l 206 103 l 206 51 l 154 51 l 154 103 m 154 154 l 206 154 l 206 103 l 154 103 l 154 154 m 154 206 l 206 206 l 206 154 l 154 154 l 154 206 m 154 309 l 206 309 l 206 257 l 154 257 l 154 309 m 154 360 l 206 360 l 206 309 l 154 309 l 154 360 m 154 412 l 206 412 l 206 360 l 154 360 l 154 412 m 154 463 l 206 463 l 206 412 l 154 412 l 154 463 m 154 514 l 206 514 l 206 463 l 154 463 l 154 514 m 154 566 l 206 566 l 206 514 l 154 514 l 154 566 m 154 772 l 206 772 l 206 720 l 154 720 l 154 772 m 154 720 l 206 720 l 206 669 l 154 669 l 154 720 m 154 669 l 206 669 l 206 617 l 154 617 l 154 669 m 154 617 l 206 617 l 206 566 l 154 566 l 154 617 m 154 257 l 206 257 l 206 206 l 154 206 l 154 257 m 206 51 l 257 51 l 257 0 l 206 0 l 206 51 m 257 51 l 309 51 l 309 0 l 257 0 l 257 51 m 309 51 l 360 51 l 360 0 l 309 0 l 309 51 m 309 103 l 360 103 l 360 51 l 309 51 l 309 103 m 309 154 l 360 154 l 360 103 l 309 103 l 309 154 m 257 154 l 309 154 l 309 103 l 257 103 l 257 154 m 257 103 l 309 103 l 309 51 l 257 51 l 257 103 m 206 103 l 257 103 l 257 51 l 206 51 l 206 103 m 206 154 l 257 154 l 257 103 l 206 103 l 206 154 m 360 154 l 412 154 l 412 103 l 360 103 l 360 154 m 360 103 l 412 103 l 412 51 l 360 51 l 360 103 m 360 51 l 412 51 l 412 0 l 360 0 l 360 51 m 412 51 l 463 51 l 463 0 l 412 0 l 412 51 m 412 103 l 463 103 l 463 51 l 412 51 l 412 103 m 412 154 l 463 154 l 463 103 l 412 103 l 412 154 m 463 154 l 514 154 l 514 103 l 463 103 l 463 154 m 463 103 l 514 103 l 514 51 l 463 51 l 463 103 m 463 51 l 514 51 l 514 0 l 463 0 l 463 51 m 206 772 l 257 772 l 257 720 l 206 720 l 206 772 m 257 772 l 309 772 l 309 720 l 257 720 l 257 772 m 309 772 l 360 772 l 360 720 l 309 720 l 309 772 m 360 772 l 412 772 l 412 720 l 360 720 l 360 772 m 412 772 l 463 772 l 463 720 l 412 720 l 412 772 m 463 772 l 514 772 l 514 720 l 463 720 l 463 772 m 463 720 l 514 720 l 514 669 l 463 669 l 463 720 m 463 669 l 514 669 l 514 617 l 463 617 l 463 669 m 412 669 l 463 669 l 463 617 l 412 617 l 412 669 m 360 669 l 412 669 l 412 617 l 360 617 l 360 669 m 309 669 l 360 669 l 360 617 l 309 617 l 309 669 m 257 669 l 309 669 l 309 617 l 257 617 l 257 669 m 257 720 l 309 720 l 309 669 l 257 669 l 257 720 m 206 720 l 257 720 l 257 669 l 206 669 l 206 720 m 206 669 l 257 669 l 257 617 l 206 617 l 206 669 m 309 720 l 360 720 l 360 669 l 309 669 l 309 720 m 360 720 l 412 720 l 412 669 l 360 669 l 360 720 m 412 720 l 463 720 l 463 669 l 412 669 l 412 720 m 206 463 l 257 463 l 257 412 l 206 412 l 206 463 m 206 412 l 257 412 l 257 360 l 206 360 l 206 412 m 206 360 l 257 360 l 257 309 l 206 309 l 206 360 m 257 360 l 309 360 l 309 309 l 257 309 l 257 360 m 257 412 l 309 412 l 309 360 l 257 360 l 257 412 m 257 463 l 309 463 l 309 412 l 257 412 l 257 463 m 309 463 l 360 463 l 360 412 l 309 412 l 309 463 m 309 412 l 360 412 l 360 360 l 309 360 l 309 412 m 360 412 l 412 412 l 412 360 l 360 360 l 360 412 m 360 463 l 412 463 l 412 412 l 360 412 l 360 463 m 360 360 l 412 360 l 412 309 l 360 309 l 360 360 m 309 360 l 360 360 l 360 309 l 309 309 l 309 360 m 412 463 l 463 463 l 463 412 l 412 412 l 412 463 m 412 412 l 463 412 l 463 360 l 412 360 l 412 412 m 412 360 l 463 360 l 463 309 l 412 309 l 412 360 z "},"":{"ha":566,"x_min":51,"x_max":514,"o":"m 103 772 l 154 772 l 154 720 l 103 720 l 103 772 m 103 720 l 154 720 l 154 669 l 103 669 l 103 720 m 103 669 l 154 669 l 154 617 l 103 617 l 103 669 m 103 617 l 154 617 l 154 566 l 103 566 l 103 617 m 103 566 l 154 566 l 154 514 l 103 514 l 103 566 m 103 514 l 154 514 l 154 463 l 103 463 l 103 514 m 103 463 l 154 463 l 154 412 l 103 412 l 103 463 m 103 412 l 154 412 l 154 360 l 103 360 l 103 412 m 103 360 l 154 360 l 154 309 l 103 309 l 103 360 m 103 309 l 154 309 l 154 257 l 103 257 l 103 309 m 103 257 l 154 257 l 154 206 l 103 206 l 103 257 m 103 206 l 154 206 l 154 154 l 103 154 l 103 206 m 103 154 l 154 154 l 154 103 l 103 103 l 103 154 m 103 103 l 154 103 l 154 51 l 103 51 l 103 103 m 103 51 l 154 51 l 154 0 l 103 0 l 103 51 m 51 51 l 103 51 l 103 0 l 51 0 l 51 51 m 51 103 l 103 103 l 103 51 l 51 51 l 51 103 m 51 154 l 103 154 l 103 103 l 51 103 l 51 154 m 51 720 l 103 720 l 103 669 l 51 669 l 51 720 m 51 772 l 103 772 l 103 720 l 51 720 l 51 772 m 51 669 l 103 669 l 103 617 l 51 617 l 51 669 m 51 617 l 103 617 l 103 566 l 51 566 l 51 617 m 51 566 l 103 566 l 103 514 l 51 514 l 51 566 m 51 514 l 103 514 l 103 463 l 51 463 l 51 514 m 51 463 l 103 463 l 103 412 l 51 412 l 51 463 m 51 412 l 103 412 l 103 360 l 51 360 l 51 412 m 51 360 l 103 360 l 103 309 l 51 309 l 51 360 m 51 309 l 103 309 l 103 257 l 51 257 l 51 309 m 51 257 l 103 257 l 103 206 l 51 206 l 51 257 m 51 206 l 103 206 l 103 154 l 51 154 l 51 206 m 154 51 l 206 51 l 206 0 l 154 0 l 154 51 m 154 103 l 206 103 l 206 51 l 154 51 l 154 103 m 154 154 l 206 154 l 206 103 l 154 103 l 154 154 m 154 206 l 206 206 l 206 154 l 154 154 l 154 206 m 154 309 l 206 309 l 206 257 l 154 257 l 154 309 m 154 360 l 206 360 l 206 309 l 154 309 l 154 360 m 154 412 l 206 412 l 206 360 l 154 360 l 154 412 m 154 463 l 206 463 l 206 412 l 154 412 l 154 463 m 154 514 l 206 514 l 206 463 l 154 463 l 154 514 m 154 566 l 206 566 l 206 514 l 154 514 l 154 566 m 154 772 l 206 772 l 206 720 l 154 720 l 154 772 m 154 720 l 206 720 l 206 669 l 154 669 l 154 720 m 154 669 l 206 669 l 206 617 l 154 617 l 154 669 m 154 617 l 206 617 l 206 566 l 154 566 l 154 617 m 154 257 l 206 257 l 206 206 l 154 206 l 154 257 m 206 51 l 257 51 l 257 0 l 206 0 l 206 51 m 257 51 l 309 51 l 309 0 l 257 0 l 257 51 m 309 51 l 360 51 l 360 0 l 309 0 l 309 51 m 309 103 l 360 103 l 360 51 l 309 51 l 309 103 m 309 154 l 360 154 l 360 103 l 309 103 l 309 154 m 257 154 l 309 154 l 309 103 l 257 103 l 257 154 m 257 103 l 309 103 l 309 51 l 257 51 l 257 103 m 206 103 l 257 103 l 257 51 l 206 51 l 206 103 m 206 154 l 257 154 l 257 103 l 206 103 l 206 154 m 360 154 l 412 154 l 412 103 l 360 103 l 360 154 m 360 103 l 412 103 l 412 51 l 360 51 l 360 103 m 360 51 l 412 51 l 412 0 l 360 0 l 360 51 m 412 51 l 463 51 l 463 0 l 412 0 l 412 51 m 412 103 l 463 103 l 463 51 l 412 51 l 412 103 m 412 154 l 463 154 l 463 103 l 412 103 l 412 154 m 463 154 l 514 154 l 514 103 l 463 103 l 463 154 m 463 103 l 514 103 l 514 51 l 463 51 l 463 103 m 463 51 l 514 51 l 514 0 l 463 0 l 463 51 m 206 772 l 257 772 l 257 720 l 206 720 l 206 772 m 257 772 l 309 772 l 309 720 l 257 720 l 257 772 m 309 772 l 360 772 l 360 720 l 309 720 l 309 772 m 360 772 l 412 772 l 412 720 l 360 720 l 360 772 m 412 772 l 463 772 l 463 720 l 412 720 l 412 772 m 463 772 l 514 772 l 514 720 l 463 720 l 463 772 m 463 720 l 514 720 l 514 669 l 463 669 l 463 720 m 463 669 l 514 669 l 514 617 l 463 617 l 463 669 m 412 669 l 463 669 l 463 617 l 412 617 l 412 669 m 360 669 l 412 669 l 412 617 l 360 617 l 360 669 m 309 669 l 360 669 l 360 617 l 309 617 l 309 669 m 257 669 l 309 669 l 309 617 l 257 617 l 257 669 m 257 720 l 309 720 l 309 669 l 257 669 l 257 720 m 206 720 l 257 720 l 257 669 l 206 669 l 206 720 m 206 669 l 257 669 l 257 617 l 206 617 l 206 669 m 309 720 l 360 720 l 360 669 l 309 669 l 309 720 m 360 720 l 412 720 l 412 669 l 360 669 l 360 720 m 412 720 l 463 720 l 463 669 l 412 669 l 412 720 m 206 463 l 257 463 l 257 412 l 206 412 l 206 463 m 206 412 l 257 412 l 257 360 l 206 360 l 206 412 m 206 360 l 257 360 l 257 309 l 206 309 l 206 360 m 257 360 l 309 360 l 309 309 l 257 309 l 257 360 m 257 412 l 309 412 l 309 360 l 257 360 l 257 412 m 257 463 l 309 463 l 309 412 l 257 412 l 257 463 m 309 463 l 360 463 l 360 412 l 309 412 l 309 463 m 309 412 l 360 412 l 360 360 l 309 360 l 309 412 m 360 412 l 412 412 l 412 360 l 360 360 l 360 412 m 360 463 l 412 463 l 412 412 l 360 412 l 360 463 m 360 360 l 412 360 l 412 309 l 360 309 l 360 360 m 309 360 l 360 360 l 360 309 l 309 309 l 309 360 m 412 463 l 463 463 l 463 412 l 412 412 l 412 463 m 412 412 l 463 412 l 463 360 l 412 360 l 412 412 m 412 360 l 463 360 l 463 309 l 412 309 l 412 360 m 360 1029 l 360 977 l 309 977 l 309 1029 l 360 1029 m 309 977 l 309 926 l 257 926 l 257 977 l 309 977 m 360 977 l 360 926 l 309 926 l 309 977 l 360 977 m 257 926 l 257 874 l 206 874 l 206 926 l 257 926 m 309 926 l 309 874 l 257 874 l 257 926 l 309 926 m 412 1029 l 412 977 l 360 977 l 360 1029 l 412 1029 m 257 874 l 309 874 l 309 823 l 257 823 l 257 874 m 206 874 l 257 874 l 257 823 l 206 823 l 206 874 m 309 926 l 360 926 l 360 874 l 309 874 l 309 926 m 360 977 l 412 977 l 412 926 l 360 926 l 360 977 z "},"":{"ha":566,"x_min":51,"x_max":514,"o":"m 103 772 l 154 772 l 154 720 l 103 720 l 103 772 m 103 720 l 154 720 l 154 669 l 103 669 l 103 720 m 103 669 l 154 669 l 154 617 l 103 617 l 103 669 m 103 617 l 154 617 l 154 566 l 103 566 l 103 617 m 103 566 l 154 566 l 154 514 l 103 514 l 103 566 m 103 514 l 154 514 l 154 463 l 103 463 l 103 514 m 103 463 l 154 463 l 154 412 l 103 412 l 103 463 m 103 412 l 154 412 l 154 360 l 103 360 l 103 412 m 103 360 l 154 360 l 154 309 l 103 309 l 103 360 m 103 309 l 154 309 l 154 257 l 103 257 l 103 309 m 103 257 l 154 257 l 154 206 l 103 206 l 103 257 m 103 206 l 154 206 l 154 154 l 103 154 l 103 206 m 103 154 l 154 154 l 154 103 l 103 103 l 103 154 m 103 103 l 154 103 l 154 51 l 103 51 l 103 103 m 103 51 l 154 51 l 154 0 l 103 0 l 103 51 m 51 51 l 103 51 l 103 0 l 51 0 l 51 51 m 51 103 l 103 103 l 103 51 l 51 51 l 51 103 m 51 154 l 103 154 l 103 103 l 51 103 l 51 154 m 51 720 l 103 720 l 103 669 l 51 669 l 51 720 m 51 772 l 103 772 l 103 720 l 51 720 l 51 772 m 51 669 l 103 669 l 103 617 l 51 617 l 51 669 m 51 617 l 103 617 l 103 566 l 51 566 l 51 617 m 51 566 l 103 566 l 103 514 l 51 514 l 51 566 m 51 514 l 103 514 l 103 463 l 51 463 l 51 514 m 51 463 l 103 463 l 103 412 l 51 412 l 51 463 m 51 412 l 103 412 l 103 360 l 51 360 l 51 412 m 51 360 l 103 360 l 103 309 l 51 309 l 51 360 m 51 309 l 103 309 l 103 257 l 51 257 l 51 309 m 51 257 l 103 257 l 103 206 l 51 206 l 51 257 m 51 206 l 103 206 l 103 154 l 51 154 l 51 206 m 154 51 l 206 51 l 206 0 l 154 0 l 154 51 m 154 103 l 206 103 l 206 51 l 154 51 l 154 103 m 154 154 l 206 154 l 206 103 l 154 103 l 154 154 m 154 206 l 206 206 l 206 154 l 154 154 l 154 206 m 154 309 l 206 309 l 206 257 l 154 257 l 154 309 m 154 360 l 206 360 l 206 309 l 154 309 l 154 360 m 154 412 l 206 412 l 206 360 l 154 360 l 154 412 m 154 463 l 206 463 l 206 412 l 154 412 l 154 463 m 154 514 l 206 514 l 206 463 l 154 463 l 154 514 m 154 566 l 206 566 l 206 514 l 154 514 l 154 566 m 154 772 l 206 772 l 206 720 l 154 720 l 154 772 m 154 720 l 206 720 l 206 669 l 154 669 l 154 720 m 154 669 l 206 669 l 206 617 l 154 617 l 154 669 m 154 617 l 206 617 l 206 566 l 154 566 l 154 617 m 154 257 l 206 257 l 206 206 l 154 206 l 154 257 m 206 51 l 257 51 l 257 0 l 206 0 l 206 51 m 257 51 l 309 51 l 309 0 l 257 0 l 257 51 m 309 51 l 360 51 l 360 0 l 309 0 l 309 51 m 309 103 l 360 103 l 360 51 l 309 51 l 309 103 m 309 154 l 360 154 l 360 103 l 309 103 l 309 154 m 257 154 l 309 154 l 309 103 l 257 103 l 257 154 m 257 103 l 309 103 l 309 51 l 257 51 l 257 103 m 206 103 l 257 103 l 257 51 l 206 51 l 206 103 m 206 154 l 257 154 l 257 103 l 206 103 l 206 154 m 360 154 l 412 154 l 412 103 l 360 103 l 360 154 m 360 103 l 412 103 l 412 51 l 360 51 l 360 103 m 360 51 l 412 51 l 412 0 l 360 0 l 360 51 m 412 51 l 463 51 l 463 0 l 412 0 l 412 51 m 412 103 l 463 103 l 463 51 l 412 51 l 412 103 m 412 154 l 463 154 l 463 103 l 412 103 l 412 154 m 463 154 l 514 154 l 514 103 l 463 103 l 463 154 m 463 103 l 514 103 l 514 51 l 463 51 l 463 103 m 463 51 l 514 51 l 514 0 l 463 0 l 463 51 m 206 772 l 257 772 l 257 720 l 206 720 l 206 772 m 257 772 l 309 772 l 309 720 l 257 720 l 257 772 m 309 772 l 360 772 l 360 720 l 309 720 l 309 772 m 360 772 l 412 772 l 412 720 l 360 720 l 360 772 m 412 772 l 463 772 l 463 720 l 412 720 l 412 772 m 463 772 l 514 772 l 514 720 l 463 720 l 463 772 m 463 720 l 514 720 l 514 669 l 463 669 l 463 720 m 463 669 l 514 669 l 514 617 l 463 617 l 463 669 m 412 669 l 463 669 l 463 617 l 412 617 l 412 669 m 360 669 l 412 669 l 412 617 l 360 617 l 360 669 m 309 669 l 360 669 l 360 617 l 309 617 l 309 669 m 257 669 l 309 669 l 309 617 l 257 617 l 257 669 m 257 720 l 309 720 l 309 669 l 257 669 l 257 720 m 206 720 l 257 720 l 257 669 l 206 669 l 206 720 m 206 669 l 257 669 l 257 617 l 206 617 l 206 669 m 309 720 l 360 720 l 360 669 l 309 669 l 309 720 m 360 720 l 412 720 l 412 669 l 360 669 l 360 720 m 412 720 l 463 720 l 463 669 l 412 669 l 412 720 m 206 463 l 257 463 l 257 412 l 206 412 l 206 463 m 206 412 l 257 412 l 257 360 l 206 360 l 206 412 m 206 360 l 257 360 l 257 309 l 206 309 l 206 360 m 257 360 l 309 360 l 309 309 l 257 309 l 257 360 m 257 412 l 309 412 l 309 360 l 257 360 l 257 412 m 257 463 l 309 463 l 309 412 l 257 412 l 257 463 m 309 463 l 360 463 l 360 412 l 309 412 l 309 463 m 309 412 l 360 412 l 360 360 l 309 360 l 309 412 m 360 412 l 412 412 l 412 360 l 360 360 l 360 412 m 360 463 l 412 463 l 412 412 l 360 412 l 360 463 m 360 360 l 412 360 l 412 309 l 360 309 l 360 360 m 309 360 l 360 360 l 360 309 l 309 309 l 309 360 m 412 463 l 463 463 l 463 412 l 412 412 l 412 463 m 412 412 l 463 412 l 463 360 l 412 360 l 412 412 m 412 360 l 463 360 l 463 309 l 412 309 l 412 360 m 360 926 l 360 977 l 412 977 l 412 926 l 360 926 m 360 977 l 360 1029 l 412 1029 l 412 977 l 360 977 m 309 926 l 309 977 l 360 977 l 360 926 l 309 926 m 257 926 l 257 977 l 309 977 l 309 926 l 257 926 m 257 874 l 257 926 l 309 926 l 309 874 l 257 874 m 206 926 l 206 977 l 257 977 l 257 926 l 206 926 m 206 977 l 206 1029 l 257 1029 l 257 977 l 206 977 m 154 1029 l 206 1029 l 206 977 l 154 977 l 154 1029 m 154 977 l 206 977 l 206 926 l 154 926 l 154 977 m 412 1029 l 463 1029 l 463 977 l 412 977 l 412 1029 m 412 977 l 463 977 l 463 926 l 412 926 l 412 977 m 309 926 l 360 926 l 360 874 l 309 874 l 309 926 m 360 926 l 412 926 l 412 874 l 360 874 l 360 926 m 206 926 l 257 926 l 257 874 l 206 874 l 206 926 m 257 874 l 309 874 l 309 823 l 257 823 l 257 874 m 309 874 l 360 874 l 360 823 l 309 823 l 309 874 z "},"":{"ha":566,"x_min":51,"x_max":514,"o":"m 103 772 l 154 772 l 154 720 l 103 720 l 103 772 m 103 720 l 154 720 l 154 669 l 103 669 l 103 720 m 103 669 l 154 669 l 154 617 l 103 617 l 103 669 m 103 617 l 154 617 l 154 566 l 103 566 l 103 617 m 103 566 l 154 566 l 154 514 l 103 514 l 103 566 m 103 514 l 154 514 l 154 463 l 103 463 l 103 514 m 103 463 l 154 463 l 154 412 l 103 412 l 103 463 m 103 412 l 154 412 l 154 360 l 103 360 l 103 412 m 103 360 l 154 360 l 154 309 l 103 309 l 103 360 m 103 309 l 154 309 l 154 257 l 103 257 l 103 309 m 103 257 l 154 257 l 154 206 l 103 206 l 103 257 m 103 206 l 154 206 l 154 154 l 103 154 l 103 206 m 103 154 l 154 154 l 154 103 l 103 103 l 103 154 m 103 103 l 154 103 l 154 51 l 103 51 l 103 103 m 103 51 l 154 51 l 154 0 l 103 0 l 103 51 m 51 51 l 103 51 l 103 0 l 51 0 l 51 51 m 51 103 l 103 103 l 103 51 l 51 51 l 51 103 m 51 154 l 103 154 l 103 103 l 51 103 l 51 154 m 51 720 l 103 720 l 103 669 l 51 669 l 51 720 m 51 772 l 103 772 l 103 720 l 51 720 l 51 772 m 51 669 l 103 669 l 103 617 l 51 617 l 51 669 m 51 617 l 103 617 l 103 566 l 51 566 l 51 617 m 51 566 l 103 566 l 103 514 l 51 514 l 51 566 m 51 514 l 103 514 l 103 463 l 51 463 l 51 514 m 51 463 l 103 463 l 103 412 l 51 412 l 51 463 m 51 412 l 103 412 l 103 360 l 51 360 l 51 412 m 51 360 l 103 360 l 103 309 l 51 309 l 51 360 m 51 309 l 103 309 l 103 257 l 51 257 l 51 309 m 51 257 l 103 257 l 103 206 l 51 206 l 51 257 m 51 206 l 103 206 l 103 154 l 51 154 l 51 206 m 154 51 l 206 51 l 206 0 l 154 0 l 154 51 m 154 103 l 206 103 l 206 51 l 154 51 l 154 103 m 154 154 l 206 154 l 206 103 l 154 103 l 154 154 m 154 206 l 206 206 l 206 154 l 154 154 l 154 206 m 154 309 l 206 309 l 206 257 l 154 257 l 154 309 m 154 360 l 206 360 l 206 309 l 154 309 l 154 360 m 154 412 l 206 412 l 206 360 l 154 360 l 154 412 m 154 463 l 206 463 l 206 412 l 154 412 l 154 463 m 154 514 l 206 514 l 206 463 l 154 463 l 154 514 m 154 566 l 206 566 l 206 514 l 154 514 l 154 566 m 154 772 l 206 772 l 206 720 l 154 720 l 154 772 m 154 720 l 206 720 l 206 669 l 154 669 l 154 720 m 154 669 l 206 669 l 206 617 l 154 617 l 154 669 m 154 617 l 206 617 l 206 566 l 154 566 l 154 617 m 154 257 l 206 257 l 206 206 l 154 206 l 154 257 m 206 51 l 257 51 l 257 0 l 206 0 l 206 51 m 257 51 l 309 51 l 309 0 l 257 0 l 257 51 m 309 51 l 360 51 l 360 0 l 309 0 l 309 51 m 309 103 l 360 103 l 360 51 l 309 51 l 309 103 m 309 154 l 360 154 l 360 103 l 309 103 l 309 154 m 257 154 l 309 154 l 309 103 l 257 103 l 257 154 m 257 103 l 309 103 l 309 51 l 257 51 l 257 103 m 206 103 l 257 103 l 257 51 l 206 51 l 206 103 m 206 154 l 257 154 l 257 103 l 206 103 l 206 154 m 360 154 l 412 154 l 412 103 l 360 103 l 360 154 m 360 103 l 412 103 l 412 51 l 360 51 l 360 103 m 360 51 l 412 51 l 412 0 l 360 0 l 360 51 m 412 51 l 463 51 l 463 0 l 412 0 l 412 51 m 412 103 l 463 103 l 463 51 l 412 51 l 412 103 m 412 154 l 463 154 l 463 103 l 412 103 l 412 154 m 463 154 l 514 154 l 514 103 l 463 103 l 463 154 m 463 103 l 514 103 l 514 51 l 463 51 l 463 103 m 463 51 l 514 51 l 514 0 l 463 0 l 463 51 m 206 772 l 257 772 l 257 720 l 206 720 l 206 772 m 257 772 l 309 772 l 309 720 l 257 720 l 257 772 m 309 772 l 360 772 l 360 720 l 309 720 l 309 772 m 360 772 l 412 772 l 412 720 l 360 720 l 360 772 m 412 772 l 463 772 l 463 720 l 412 720 l 412 772 m 463 772 l 514 772 l 514 720 l 463 720 l 463 772 m 463 720 l 514 720 l 514 669 l 463 669 l 463 720 m 463 669 l 514 669 l 514 617 l 463 617 l 463 669 m 412 669 l 463 669 l 463 617 l 412 617 l 412 669 m 360 669 l 412 669 l 412 617 l 360 617 l 360 669 m 309 669 l 360 669 l 360 617 l 309 617 l 309 669 m 257 669 l 309 669 l 309 617 l 257 617 l 257 669 m 257 720 l 309 720 l 309 669 l 257 669 l 257 720 m 206 720 l 257 720 l 257 669 l 206 669 l 206 720 m 206 669 l 257 669 l 257 617 l 206 617 l 206 669 m 309 720 l 360 720 l 360 669 l 309 669 l 309 720 m 360 720 l 412 720 l 412 669 l 360 669 l 360 720 m 412 720 l 463 720 l 463 669 l 412 669 l 412 720 m 206 463 l 257 463 l 257 412 l 206 412 l 206 463 m 206 412 l 257 412 l 257 360 l 206 360 l 206 412 m 206 360 l 257 360 l 257 309 l 206 309 l 206 360 m 257 360 l 309 360 l 309 309 l 257 309 l 257 360 m 257 412 l 309 412 l 309 360 l 257 360 l 257 412 m 257 463 l 309 463 l 309 412 l 257 412 l 257 463 m 309 463 l 360 463 l 360 412 l 309 412 l 309 463 m 309 412 l 360 412 l 360 360 l 309 360 l 309 412 m 360 412 l 412 412 l 412 360 l 360 360 l 360 412 m 360 463 l 412 463 l 412 412 l 360 412 l 360 463 m 360 360 l 412 360 l 412 309 l 360 309 l 360 360 m 309 360 l 360 360 l 360 309 l 309 309 l 309 360 m 412 463 l 463 463 l 463 412 l 412 412 l 412 463 m 412 412 l 463 412 l 463 360 l 412 360 l 412 412 m 412 360 l 463 360 l 463 309 l 412 309 l 412 360 m 360 926 l 412 926 l 412 874 l 360 874 l 360 926 m 309 977 l 360 977 l 360 926 l 309 926 l 309 977 m 360 874 l 412 874 l 412 823 l 360 823 l 360 874 m 309 926 l 360 926 l 360 874 l 309 874 l 309 926 m 257 926 l 309 926 l 309 874 l 257 874 l 257 926 m 257 977 l 309 977 l 309 926 l 257 926 l 257 977 m 206 926 l 257 926 l 257 874 l 206 874 l 206 926 m 206 874 l 257 874 l 257 823 l 206 823 l 206 874 m 154 874 l 206 874 l 206 823 l 154 823 l 154 874 m 154 926 l 206 926 l 206 874 l 154 874 l 154 926 m 206 977 l 257 977 l 257 926 l 206 926 l 206 977 m 257 1029 l 309 1029 l 309 977 l 257 977 l 257 1029 m 309 1029 l 360 1029 l 360 977 l 309 977 l 309 1029 m 360 977 l 412 977 l 412 926 l 360 926 l 360 977 m 412 926 l 463 926 l 463 874 l 412 874 l 412 926 m 412 874 l 463 874 l 463 823 l 412 823 l 412 874 z "},"":{"ha":566,"x_min":51,"x_max":514,"o":"m 103 772 l 154 772 l 154 720 l 103 720 l 103 772 m 103 720 l 154 720 l 154 669 l 103 669 l 103 720 m 103 669 l 154 669 l 154 617 l 103 617 l 103 669 m 103 617 l 154 617 l 154 566 l 103 566 l 103 617 m 103 566 l 154 566 l 154 514 l 103 514 l 103 566 m 103 514 l 154 514 l 154 463 l 103 463 l 103 514 m 103 463 l 154 463 l 154 412 l 103 412 l 103 463 m 103 412 l 154 412 l 154 360 l 103 360 l 103 412 m 103 360 l 154 360 l 154 309 l 103 309 l 103 360 m 103 309 l 154 309 l 154 257 l 103 257 l 103 309 m 103 257 l 154 257 l 154 206 l 103 206 l 103 257 m 103 206 l 154 206 l 154 154 l 103 154 l 103 206 m 103 154 l 154 154 l 154 103 l 103 103 l 103 154 m 103 103 l 154 103 l 154 51 l 103 51 l 103 103 m 103 51 l 154 51 l 154 0 l 103 0 l 103 51 m 51 51 l 103 51 l 103 0 l 51 0 l 51 51 m 51 103 l 103 103 l 103 51 l 51 51 l 51 103 m 51 154 l 103 154 l 103 103 l 51 103 l 51 154 m 51 720 l 103 720 l 103 669 l 51 669 l 51 720 m 51 772 l 103 772 l 103 720 l 51 720 l 51 772 m 51 669 l 103 669 l 103 617 l 51 617 l 51 669 m 51 617 l 103 617 l 103 566 l 51 566 l 51 617 m 51 566 l 103 566 l 103 514 l 51 514 l 51 566 m 51 514 l 103 514 l 103 463 l 51 463 l 51 514 m 51 463 l 103 463 l 103 412 l 51 412 l 51 463 m 51 412 l 103 412 l 103 360 l 51 360 l 51 412 m 51 360 l 103 360 l 103 309 l 51 309 l 51 360 m 51 309 l 103 309 l 103 257 l 51 257 l 51 309 m 51 257 l 103 257 l 103 206 l 51 206 l 51 257 m 51 206 l 103 206 l 103 154 l 51 154 l 51 206 m 154 51 l 206 51 l 206 0 l 154 0 l 154 51 m 154 103 l 206 103 l 206 51 l 154 51 l 154 103 m 154 154 l 206 154 l 206 103 l 154 103 l 154 154 m 154 206 l 206 206 l 206 154 l 154 154 l 154 206 m 154 309 l 206 309 l 206 257 l 154 257 l 154 309 m 154 360 l 206 360 l 206 309 l 154 309 l 154 360 m 154 412 l 206 412 l 206 360 l 154 360 l 154 412 m 154 463 l 206 463 l 206 412 l 154 412 l 154 463 m 154 514 l 206 514 l 206 463 l 154 463 l 154 514 m 154 566 l 206 566 l 206 514 l 154 514 l 154 566 m 154 772 l 206 772 l 206 720 l 154 720 l 154 772 m 154 720 l 206 720 l 206 669 l 154 669 l 154 720 m 154 669 l 206 669 l 206 617 l 154 617 l 154 669 m 154 617 l 206 617 l 206 566 l 154 566 l 154 617 m 154 257 l 206 257 l 206 206 l 154 206 l 154 257 m 206 51 l 257 51 l 257 0 l 206 0 l 206 51 m 257 51 l 309 51 l 309 0 l 257 0 l 257 51 m 309 51 l 360 51 l 360 0 l 309 0 l 309 51 m 309 103 l 360 103 l 360 51 l 309 51 l 309 103 m 309 154 l 360 154 l 360 103 l 309 103 l 309 154 m 257 154 l 309 154 l 309 103 l 257 103 l 257 154 m 257 103 l 309 103 l 309 51 l 257 51 l 257 103 m 206 103 l 257 103 l 257 51 l 206 51 l 206 103 m 206 154 l 257 154 l 257 103 l 206 103 l 206 154 m 360 154 l 412 154 l 412 103 l 360 103 l 360 154 m 360 103 l 412 103 l 412 51 l 360 51 l 360 103 m 360 51 l 412 51 l 412 0 l 360 0 l 360 51 m 412 51 l 463 51 l 463 0 l 412 0 l 412 51 m 412 103 l 463 103 l 463 51 l 412 51 l 412 103 m 412 154 l 463 154 l 463 103 l 412 103 l 412 154 m 463 154 l 514 154 l 514 103 l 463 103 l 463 154 m 463 103 l 514 103 l 514 51 l 463 51 l 463 103 m 463 51 l 514 51 l 514 0 l 463 0 l 463 51 m 206 772 l 257 772 l 257 720 l 206 720 l 206 772 m 257 772 l 309 772 l 309 720 l 257 720 l 257 772 m 309 772 l 360 772 l 360 720 l 309 720 l 309 772 m 360 772 l 412 772 l 412 720 l 360 720 l 360 772 m 412 772 l 463 772 l 463 720 l 412 720 l 412 772 m 463 772 l 514 772 l 514 720 l 463 720 l 463 772 m 463 720 l 514 720 l 514 669 l 463 669 l 463 720 m 463 669 l 514 669 l 514 617 l 463 617 l 463 669 m 412 669 l 463 669 l 463 617 l 412 617 l 412 669 m 360 669 l 412 669 l 412 617 l 360 617 l 360 669 m 309 669 l 360 669 l 360 617 l 309 617 l 309 669 m 257 669 l 309 669 l 309 617 l 257 617 l 257 669 m 257 720 l 309 720 l 309 669 l 257 669 l 257 720 m 206 720 l 257 720 l 257 669 l 206 669 l 206 720 m 206 669 l 257 669 l 257 617 l 206 617 l 206 669 m 309 720 l 360 720 l 360 669 l 309 669 l 309 720 m 360 720 l 412 720 l 412 669 l 360 669 l 360 720 m 412 720 l 463 720 l 463 669 l 412 669 l 412 720 m 206 463 l 257 463 l 257 412 l 206 412 l 206 463 m 206 412 l 257 412 l 257 360 l 206 360 l 206 412 m 206 360 l 257 360 l 257 309 l 206 309 l 206 360 m 257 360 l 309 360 l 309 309 l 257 309 l 257 360 m 257 412 l 309 412 l 309 360 l 257 360 l 257 412 m 257 463 l 309 463 l 309 412 l 257 412 l 257 463 m 309 463 l 360 463 l 360 412 l 309 412 l 309 463 m 309 412 l 360 412 l 360 360 l 309 360 l 309 412 m 360 412 l 412 412 l 412 360 l 360 360 l 360 412 m 360 463 l 412 463 l 412 412 l 360 412 l 360 463 m 360 360 l 412 360 l 412 309 l 360 309 l 360 360 m 309 360 l 360 360 l 360 309 l 309 309 l 309 360 m 412 463 l 463 463 l 463 412 l 412 412 l 412 463 m 412 412 l 463 412 l 463 360 l 412 360 l 412 412 m 412 360 l 463 360 l 463 309 l 412 309 l 412 360 m 360 1029 l 412 1029 l 412 977 l 360 977 l 360 1029 m 412 1029 l 463 1029 l 463 977 l 412 977 l 412 1029 m 412 977 l 463 977 l 463 926 l 412 926 l 412 977 m 360 977 l 412 977 l 412 926 l 360 926 l 360 977 m 154 1029 l 206 1029 l 206 977 l 154 977 l 154 1029 m 206 1029 l 257 1029 l 257 977 l 206 977 l 206 1029 m 206 977 l 257 977 l 257 926 l 206 926 l 206 977 m 154 977 l 206 977 l 206 926 l 154 926 l 154 977 m 206 926 l 257 926 l 257 874 l 206 874 l 206 926 m 154 926 l 206 926 l 206 874 l 154 874 l 154 926 m 103 926 l 154 926 l 154 874 l 103 874 l 103 926 m 103 977 l 154 977 l 154 926 l 103 926 l 103 977 m 103 1029 l 154 1029 l 154 977 l 103 977 l 103 1029 m 360 926 l 412 926 l 412 874 l 360 874 l 360 926 m 412 926 l 463 926 l 463 874 l 412 874 l 412 926 m 463 926 l 514 926 l 514 874 l 463 874 l 463 926 m 463 977 l 514 977 l 514 926 l 463 926 l 463 977 m 463 1029 l 514 1029 l 514 977 l 463 977 l 463 1029 z "},"":{"ha":566,"x_min":51,"x_max":514,"o":"m 103 772 l 154 772 l 154 720 l 103 720 l 103 772 m 103 720 l 154 720 l 154 669 l 103 669 l 103 720 m 103 669 l 154 669 l 154 617 l 103 617 l 103 669 m 103 617 l 154 617 l 154 566 l 103 566 l 103 617 m 103 566 l 154 566 l 154 514 l 103 514 l 103 566 m 103 514 l 154 514 l 154 463 l 103 463 l 103 514 m 103 463 l 154 463 l 154 412 l 103 412 l 103 463 m 103 412 l 154 412 l 154 360 l 103 360 l 103 412 m 103 360 l 154 360 l 154 309 l 103 309 l 103 360 m 103 309 l 154 309 l 154 257 l 103 257 l 103 309 m 103 257 l 154 257 l 154 206 l 103 206 l 103 257 m 103 206 l 154 206 l 154 154 l 103 154 l 103 206 m 103 154 l 154 154 l 154 103 l 103 103 l 103 154 m 103 103 l 154 103 l 154 51 l 103 51 l 103 103 m 103 51 l 154 51 l 154 0 l 103 0 l 103 51 m 51 51 l 103 51 l 103 0 l 51 0 l 51 51 m 51 103 l 103 103 l 103 51 l 51 51 l 51 103 m 51 154 l 103 154 l 103 103 l 51 103 l 51 154 m 51 720 l 103 720 l 103 669 l 51 669 l 51 720 m 51 772 l 103 772 l 103 720 l 51 720 l 51 772 m 51 669 l 103 669 l 103 617 l 51 617 l 51 669 m 51 617 l 103 617 l 103 566 l 51 566 l 51 617 m 51 566 l 103 566 l 103 514 l 51 514 l 51 566 m 51 514 l 103 514 l 103 463 l 51 463 l 51 514 m 51 463 l 103 463 l 103 412 l 51 412 l 51 463 m 51 412 l 103 412 l 103 360 l 51 360 l 51 412 m 51 360 l 103 360 l 103 309 l 51 309 l 51 360 m 51 309 l 103 309 l 103 257 l 51 257 l 51 309 m 51 257 l 103 257 l 103 206 l 51 206 l 51 257 m 51 206 l 103 206 l 103 154 l 51 154 l 51 206 m 154 51 l 206 51 l 206 0 l 154 0 l 154 51 m 154 103 l 206 103 l 206 51 l 154 51 l 154 103 m 154 154 l 206 154 l 206 103 l 154 103 l 154 154 m 154 206 l 206 206 l 206 154 l 154 154 l 154 206 m 154 309 l 206 309 l 206 257 l 154 257 l 154 309 m 154 360 l 206 360 l 206 309 l 154 309 l 154 360 m 154 412 l 206 412 l 206 360 l 154 360 l 154 412 m 154 463 l 206 463 l 206 412 l 154 412 l 154 463 m 154 514 l 206 514 l 206 463 l 154 463 l 154 514 m 154 566 l 206 566 l 206 514 l 154 514 l 154 566 m 154 772 l 206 772 l 206 720 l 154 720 l 154 772 m 154 720 l 206 720 l 206 669 l 154 669 l 154 720 m 154 669 l 206 669 l 206 617 l 154 617 l 154 669 m 154 617 l 206 617 l 206 566 l 154 566 l 154 617 m 154 257 l 206 257 l 206 206 l 154 206 l 154 257 m 206 51 l 257 51 l 257 0 l 206 0 l 206 51 m 257 51 l 309 51 l 309 0 l 257 0 l 257 51 m 309 51 l 360 51 l 360 0 l 309 0 l 309 51 m 309 103 l 360 103 l 360 51 l 309 51 l 309 103 m 309 154 l 360 154 l 360 103 l 309 103 l 309 154 m 257 154 l 309 154 l 309 103 l 257 103 l 257 154 m 257 103 l 309 103 l 309 51 l 257 51 l 257 103 m 206 103 l 257 103 l 257 51 l 206 51 l 206 103 m 206 154 l 257 154 l 257 103 l 206 103 l 206 154 m 360 154 l 412 154 l 412 103 l 360 103 l 360 154 m 360 103 l 412 103 l 412 51 l 360 51 l 360 103 m 360 51 l 412 51 l 412 0 l 360 0 l 360 51 m 412 51 l 463 51 l 463 0 l 412 0 l 412 51 m 412 103 l 463 103 l 463 51 l 412 51 l 412 103 m 412 154 l 463 154 l 463 103 l 412 103 l 412 154 m 463 154 l 514 154 l 514 103 l 463 103 l 463 154 m 463 103 l 514 103 l 514 51 l 463 51 l 463 103 m 463 51 l 514 51 l 514 0 l 463 0 l 463 51 m 206 772 l 257 772 l 257 720 l 206 720 l 206 772 m 257 772 l 309 772 l 309 720 l 257 720 l 257 772 m 309 772 l 360 772 l 360 720 l 309 720 l 309 772 m 360 772 l 412 772 l 412 720 l 360 720 l 360 772 m 412 772 l 463 772 l 463 720 l 412 720 l 412 772 m 463 772 l 514 772 l 514 720 l 463 720 l 463 772 m 463 720 l 514 720 l 514 669 l 463 669 l 463 720 m 463 669 l 514 669 l 514 617 l 463 617 l 463 669 m 412 669 l 463 669 l 463 617 l 412 617 l 412 669 m 360 669 l 412 669 l 412 617 l 360 617 l 360 669 m 309 669 l 360 669 l 360 617 l 309 617 l 309 669 m 257 669 l 309 669 l 309 617 l 257 617 l 257 669 m 257 720 l 309 720 l 309 669 l 257 669 l 257 720 m 206 720 l 257 720 l 257 669 l 206 669 l 206 720 m 206 669 l 257 669 l 257 617 l 206 617 l 206 669 m 309 720 l 360 720 l 360 669 l 309 669 l 309 720 m 360 720 l 412 720 l 412 669 l 360 669 l 360 720 m 412 720 l 463 720 l 463 669 l 412 669 l 412 720 m 206 463 l 257 463 l 257 412 l 206 412 l 206 463 m 206 412 l 257 412 l 257 360 l 206 360 l 206 412 m 206 360 l 257 360 l 257 309 l 206 309 l 206 360 m 257 360 l 309 360 l 309 309 l 257 309 l 257 360 m 257 412 l 309 412 l 309 360 l 257 360 l 257 412 m 257 463 l 309 463 l 309 412 l 257 412 l 257 463 m 309 463 l 360 463 l 360 412 l 309 412 l 309 463 m 309 412 l 360 412 l 360 360 l 309 360 l 309 412 m 360 412 l 412 412 l 412 360 l 360 360 l 360 412 m 360 463 l 412 463 l 412 412 l 360 412 l 360 463 m 360 360 l 412 360 l 412 309 l 360 309 l 360 360 m 309 360 l 360 360 l 360 309 l 309 309 l 309 360 m 412 463 l 463 463 l 463 412 l 412 412 l 412 463 m 412 412 l 463 412 l 463 360 l 412 360 l 412 412 m 412 360 l 463 360 l 463 309 l 412 309 l 412 360 m 257 1029 l 309 1029 l 309 977 l 257 977 l 257 1029 m 309 1029 l 360 1029 l 360 977 l 309 977 l 309 1029 m 309 977 l 360 977 l 360 926 l 309 926 l 309 977 m 257 977 l 309 977 l 309 926 l 257 926 l 257 977 m 309 926 l 360 926 l 360 874 l 309 874 l 309 926 m 257 926 l 309 926 l 309 874 l 257 874 l 257 926 m 206 977 l 257 977 l 257 926 l 206 926 l 206 977 m 206 1029 l 257 1029 l 257 977 l 206 977 l 206 1029 m 206 926 l 257 926 l 257 874 l 206 874 l 206 926 z "}}}
